<svg width="24" height="24" viewBox="0 0 24 24" fill="none" xmlns="http://www.w3.org/2000/svg">
<g clip-path="url(#clip0_10364_102051)">
<path d="M13.1826 12.5L14.9374 14.5313L17.2969 16.0583L17.7083 12.5125L17.2969 9.04584L14.8921 10.3875L13.1826 12.5Z" fill="#00832D"/>
<path d="M3 15.7292V18.75C3 19.4406 3.55234 20 4.23429 20H7.21714L7.83429 17.7167L7.21714 15.7292L5.17029 15.1042L3 15.7292Z" fill="#0066DA"/>
<path d="M7.21714 5L3 9.27083L5.17029 9.89583L7.21714 9.27083L7.824 7.31042L7.21714 5Z" fill="#E94235"/>
<path d="M7.21714 9.27084H3V15.7292H7.21714V9.27084Z" fill="#2684FC"/>
<path d="M19.9921 6.80832L17.2973 9.04582V16.0583L20.0045 18.3062C20.4097 18.6271 21.0022 18.3344 21.0022 17.8125V7.29166C21.0022 6.76353 20.3964 6.47395 19.9921 6.80832ZM13.183 12.5V15.7292H7.21729V20H16.063C16.7449 20 17.2973 19.4406 17.2973 18.75V16.0583L13.183 12.5Z" fill="#00AC47"/>
<path d="M16.063 5H7.21729V9.27083H13.183V12.5L17.2973 9.04792V6.25C17.2973 5.55937 16.7449 5 16.063 5Z" fill="#FFBA00"/>
</g>
<defs>
<clipPath id="clip0_10364_102051">
<rect width="18" height="15" fill="white" transform="translate(3 5)"/>
</clipPath>
</defs>
</svg>
