<svg width="24" height="24" viewBox="0 0 24 24" fill="none" xmlns="http://www.w3.org/2000/svg">
<path d="M20.4226 16L3 18.5L3.57739 21L21 18.5L20.4226 16Z" fill="#FFE900"/>
<path d="M11.9867 8.36216V10.6218H15.0829C14.3678 12.5153 13.0052 13.7389 11.4261 13.7389C10.7354 13.7379 10.0556 13.565 9.44684 13.2357C8.83813 12.9063 8.31933 12.4308 7.93637 11.8509C7.55341 11.2711 7.31811 10.605 7.25131 9.9115C7.18452 9.21806 7.28828 8.5187 7.55342 7.87535C7.81855 7.23201 8.23688 6.66453 8.77135 6.22318C9.30582 5.78183 9.93995 5.48021 10.6176 5.34505C11.2952 5.20989 11.9954 5.24535 12.6562 5.44829C13.317 5.65123 13.918 6.0154 14.406 6.50852L15.9964 4.90353C15.096 3.99511 13.949 3.37628 12.6999 3.12526C11.451 2.87424 10.1563 3.00229 8.97943 3.49323C7.80259 3.98417 6.79645 4.81596 6.08816 5.88348C5.37987 6.95101 5.00122 8.20636 5.00005 9.49088C4.99659 10.3431 5.16101 11.1876 5.48377 11.9752C5.80653 12.7628 6.28121 13.4779 6.88022 14.079C7.47588 14.6848 8.18408 15.1663 8.96434 15.4959C9.74461 15.8255 10.5816 15.9969 11.4276 16C13.6218 16 15.5961 14.5748 16.7597 12.3123V15.7282H19V8.36216H11.9867Z" fill="black"/>
</svg>
