<svg width="24" height="24" viewBox="0 0 24 24" fill="none" xmlns="http://www.w3.org/2000/svg">
<path d="M13 11C13 10.4477 13.4477 10 14 10H19C19.5523 10 20 10.4477 20 11V14.5C20 16.433 18.433 18 16.5 18C14.567 18 13 16.433 13 14.5V11Z" fill="#5059C9"/>
<circle cx="17" cy="7" r="2" fill="#5059C9"/>
<g filter="url(#filter0_d_10641_218397)">
<path d="M8 11C8 10.4477 8.44772 10 9 10H16C16.5523 10 17 10.4477 17 11V15.5C17 17.9853 14.9853 20 12.5 20C10.0147 20 8 17.9853 8 15.5V11Z" fill="#7B83EB"/>
</g>
<circle cx="12.5" cy="6.5" r="2.5" fill="#7B83EB"/>
<g filter="url(#filter1_d_10641_218397)">
<path d="M4 8C4 7.44772 4.44772 7 5 7H12C12.5523 7 13 7.44772 13 8V15C13 15.5523 12.5523 16 12 16H5C4.44772 16 4 15.5523 4 15V8Z" fill="#5059C9"/>
<path fill-rule="evenodd" clip-rule="evenodd" d="M8 9H6V10H8L8 14H9L9 10H11V9H9H8Z" fill="white"/>
</g>
<defs>
<filter id="filter0_d_10641_218397" x="7" y="8" width="13" height="14" filterUnits="userSpaceOnUse" color-interpolation-filters="sRGB">
<feFlood flood-opacity="0" result="BackgroundImageFix"/>
<feColorMatrix in="SourceAlpha" type="matrix" values="0 0 0 0 0 0 0 0 0 0 0 0 0 0 0 0 0 0 127 0" result="hardAlpha"/>
<feOffset dx="1"/>
<feGaussianBlur stdDeviation="1"/>
<feComposite in2="hardAlpha" operator="out"/>
<feColorMatrix type="matrix" values="0 0 0 0 0 0 0 0 0 0 0 0 0 0 0 0 0 0 0.25 0"/>
<feBlend mode="normal" in2="BackgroundImageFix" result="effect1_dropShadow_10641_218397"/>
<feBlend mode="normal" in="SourceGraphic" in2="effect1_dropShadow_10641_218397" result="shape"/>
</filter>
<filter id="filter1_d_10641_218397" x="3" y="6" width="11" height="11" filterUnits="userSpaceOnUse" color-interpolation-filters="sRGB">
<feFlood flood-opacity="0" result="BackgroundImageFix"/>
<feColorMatrix in="SourceAlpha" type="matrix" values="0 0 0 0 0 0 0 0 0 0 0 0 0 0 0 0 0 0 127 0" result="hardAlpha"/>
<feOffset/>
<feGaussianBlur stdDeviation="0.5"/>
<feComposite in2="hardAlpha" operator="out"/>
<feColorMatrix type="matrix" values="0 0 0 0 0 0 0 0 0 0 0 0 0 0 0 0 0 0 0.25 0"/>
<feBlend mode="normal" in2="BackgroundImageFix" result="effect1_dropShadow_10641_218397"/>
<feBlend mode="normal" in="SourceGraphic" in2="effect1_dropShadow_10641_218397" result="shape"/>
</filter>
</defs>
</svg>
