<svg width="24" height="24" viewBox="0 0 24 24" fill="none" xmlns="http://www.w3.org/2000/svg">
<path fill-rule="evenodd" clip-rule="evenodd" d="M5.33333 9C5.33333 8.63181 5.63181 8.33333 6 8.33333H13.3333C13.7015 8.33333 14 8.63181 14 9V12.3328C14 12.3331 14 12.3335 14 12.3339V15.6667C14 16.0349 13.7015 16.3333 13.3333 16.3333H6C5.63181 16.3333 5.33333 16.0349 5.33333 15.6667V9ZM15.3333 13.6288V15.6667C15.3333 16.7712 14.4379 17.6667 13.3333 17.6667H6C4.89543 17.6667 4 16.7712 4 15.6667V9C4 7.89543 4.89543 7 6 7H13.3333C14.4379 7 15.3333 7.89543 15.3333 9V11.0379L18.9458 8.45751C19.3871 8.14233 20 8.45775 20 9V15.6667C20 16.2089 19.3871 16.5243 18.9458 16.2092L15.3333 13.6288ZM15.8138 12.3333L18.6668 10.2955V14.3712L15.8138 12.3333Z" fill="#1991FF"/>
</svg>
