<svg width="24" height="24" viewBox="0 0 24 24" fill="none" xmlns="http://www.w3.org/2000/svg">
<path d="M7.10924 12.5624C7.31678 13.273 7.60733 13.9418 7.93939 14.6106C8.06391 14.9032 8.27145 15.154 8.52049 15.3629L8.68652 15.4465C9.1016 15.5301 9.30914 15.1958 9.47517 14.9032C9.6827 14.4016 9.84873 13.9 9.97326 13.3984C10.0148 13.3148 10.0148 13.2312 10.0563 13.1058C10.0978 12.9386 10.1393 12.7296 10.1808 12.5624L12.0071 7.67195C12.3807 7.17037 12.8788 6.75238 13.4599 6.45979C13.9995 6.1672 14.6221 6 15.2447 6C16.1579 6 17.0295 6.33439 17.7352 6.87778C18.9389 7.79735 19.6445 9.5947 19.6445 9.5947C19.7275 9.8455 19.8105 10.0963 19.8105 10.3471C19.8105 10.5979 19.769 10.8069 19.686 11.0577C19.5615 11.2667 19.437 11.4757 19.3124 11.6428C19.1464 11.81 18.9389 11.9354 18.7313 12.019C18.5238 12.1026 18.2748 12.1444 18.0257 12.1444C17.7767 12.1444 17.5276 12.1026 17.2786 11.9772C17.0295 11.8518 16.822 11.6846 16.656 11.5175C16.656 11.5175 16.656 11.4757 16.6145 11.4757C16.4899 11.3085 16.4069 11.1413 16.3239 10.9741C16.2409 10.7651 16.1164 10.5561 15.9918 10.3471C15.9088 10.2635 15.8673 10.1381 15.7843 10.0545C15.7428 9.97089 15.6598 9.8455 15.5353 9.8037C15.3692 9.6783 15.1617 9.6365 14.9957 9.7201L14.9542 9.6783C14.7466 9.8455 14.6221 10.0545 14.5391 10.3053C14.29 10.9323 14.0825 11.5592 13.9165 12.228L13.8335 12.6042L13.0863 15.0704L12.0486 17.4111C11.6751 17.9127 11.177 18.2889 10.5959 18.5815C10.0563 18.8323 9.43366 18.9994 8.81105 18.9994C6.23758 19.0412 5.03387 16.7005 5.03387 16.7005C3.5811 14.2762 3.16603 11.0995 3.04151 10.0545C3 9.92909 3 9.8037 3 9.6783C3 9.34391 3.08301 9.05132 3.24904 8.75873C3.41507 8.46613 3.62261 8.25714 3.91316 8.08994C4.20372 7.96455 4.53578 7.88095 4.86784 7.88095C5.40743 7.92275 5.90552 8.17354 6.23758 8.63333C6.44512 9.00952 6.56964 9.38571 6.56964 9.8037C6.65266 10.7651 6.8602 11.6846 7.10924 12.5624Z" fill="url(#paint0_linear_10641_218557)"/>
<path d="M7.10924 12.5624C7.31678 13.273 7.60733 13.9418 7.93939 14.6106C8.06391 14.9032 8.27145 15.154 8.52049 15.3629L8.68652 15.4465C9.1016 15.5301 9.30914 15.1958 9.47517 14.9032C9.6827 14.4016 9.84873 13.9 9.97326 13.3984C10.0148 13.3148 10.0148 13.2312 10.0563 13.1058C10.0978 12.9386 10.1393 12.7296 10.1808 12.5624L12.0071 7.67195C12.3807 7.17037 12.8788 6.75238 13.4599 6.45979C13.9995 6.1672 14.6221 6 15.2447 6C16.1579 6 17.0295 6.33439 17.7352 6.87778C18.9389 7.79735 19.6445 9.5947 19.6445 9.5947C19.7275 9.8455 19.8105 10.0963 19.8105 10.3471C19.8105 10.5979 19.769 10.8069 19.686 11.0577C19.5615 11.2667 19.437 11.4757 19.3124 11.6428C19.1464 11.81 18.9389 11.9354 18.7313 12.019C18.5238 12.1026 18.2748 12.1444 18.0257 12.1444C17.7767 12.1444 17.5276 12.1026 17.2786 11.9772C17.0295 11.8518 16.822 11.6846 16.656 11.5175C16.656 11.5175 16.656 11.4757 16.6145 11.4757C16.4899 11.3085 16.4069 11.1413 16.3239 10.9741C16.2409 10.7651 16.1164 10.5561 15.9918 10.3471C15.9088 10.2635 15.8673 10.1381 15.7843 10.0545C15.7428 9.97089 15.6598 9.8455 15.5353 9.8037C15.3692 9.6783 15.1617 9.6365 14.9957 9.7201L14.9542 9.6783C14.7466 9.8455 14.6221 10.0545 14.5391 10.3053C14.29 10.9323 14.0825 11.5592 13.9165 12.228L13.8335 12.6042L13.0863 15.0704L12.0486 17.4111C11.6751 17.9127 11.177 18.2889 10.5959 18.5815C10.0563 18.8323 9.43366 18.9994 8.81105 18.9994C6.23758 19.0412 5.03387 16.7005 5.03387 16.7005C3.5811 14.2762 3.16603 11.0995 3.04151 10.0545C3 9.92909 3 9.8037 3 9.6783C3 9.34391 3.08301 9.05132 3.24904 8.75873C3.41507 8.46613 3.62261 8.25714 3.91316 8.08994C4.20372 7.96455 4.53578 7.88095 4.86784 7.88095C5.40743 7.92275 5.90552 8.17354 6.23758 8.63333C6.44512 9.00952 6.56964 9.38571 6.56964 9.8037C6.65266 10.7651 6.8602 11.6846 7.10924 12.5624Z" fill="url(#paint1_radial_10641_218557)"/>
<path d="M7.10924 12.5624C7.31678 13.273 7.60733 13.9418 7.93939 14.6106C8.06391 14.9032 8.27145 15.154 8.52049 15.3629L8.68652 15.4465C9.1016 15.5301 9.30914 15.1958 9.47517 14.9032C9.6827 14.4016 9.84873 13.9 9.97326 13.3984C10.0148 13.3148 10.0148 13.2312 10.0563 13.1058C10.0978 12.9386 10.1393 12.7296 10.1808 12.5624L12.0071 7.67195C12.3807 7.17037 12.8788 6.75238 13.4599 6.45979C13.9995 6.1672 14.6221 6 15.2447 6C16.1579 6 17.0295 6.33439 17.7352 6.87778C18.9389 7.79735 19.6445 9.5947 19.6445 9.5947C19.7275 9.8455 19.8105 10.0963 19.8105 10.3471C19.8105 10.5979 19.769 10.8069 19.686 11.0577C19.5615 11.2667 19.437 11.4757 19.3124 11.6428C19.1464 11.81 18.9389 11.9354 18.7313 12.019C18.5238 12.1026 18.2748 12.1444 18.0257 12.1444C17.7767 12.1444 17.5276 12.1026 17.2786 11.9772C17.0295 11.8518 16.822 11.6846 16.656 11.5175C16.656 11.5175 16.656 11.4757 16.6145 11.4757C16.4899 11.3085 16.4069 11.1413 16.3239 10.9741C16.2409 10.7651 16.1164 10.5561 15.9918 10.3471C15.9088 10.2635 15.8673 10.1381 15.7843 10.0545C15.7428 9.97089 15.6598 9.8455 15.5353 9.8037C15.3692 9.6783 15.1617 9.6365 14.9957 9.7201L14.9542 9.6783C14.7466 9.8455 14.6221 10.0545 14.5391 10.3053C14.29 10.9323 14.0825 11.5592 13.9165 12.228L13.8335 12.6042L13.0863 15.0704L12.0486 17.4111C11.6751 17.9127 11.177 18.2889 10.5959 18.5815C10.0563 18.8323 9.43366 18.9994 8.81105 18.9994C6.23758 19.0412 5.03387 16.7005 5.03387 16.7005C3.5811 14.2762 3.16603 11.0995 3.04151 10.0545C3 9.92909 3 9.8037 3 9.6783C3 9.34391 3.08301 9.05132 3.24904 8.75873C3.41507 8.46613 3.62261 8.25714 3.91316 8.08994C4.20372 7.96455 4.53578 7.88095 4.86784 7.88095C5.40743 7.92275 5.90552 8.17354 6.23758 8.63333C6.44512 9.00952 6.56964 9.38571 6.56964 9.8037C6.65266 10.7651 6.8602 11.6846 7.10924 12.5624Z" fill="url(#paint2_radial_10641_218557)"/>
<path d="M7.10924 12.5624C7.31678 13.273 7.60733 13.9418 7.93939 14.6106C8.06391 14.9032 8.27145 15.154 8.52049 15.3629L8.68652 15.4465C9.1016 15.5301 9.30914 15.1958 9.47517 14.9032C9.6827 14.4016 9.84873 13.9 9.97326 13.3984C10.0148 13.3148 10.0148 13.2312 10.0563 13.1058C10.0978 12.9386 10.1393 12.7296 10.1808 12.5624L12.0071 7.67195C12.3807 7.17037 12.8788 6.75238 13.4599 6.45979C13.9995 6.1672 14.6221 6 15.2447 6C16.1579 6 17.0295 6.33439 17.7352 6.87778C18.9389 7.79735 19.6445 9.5947 19.6445 9.5947C19.7275 9.8455 19.8105 10.0963 19.8105 10.3471C19.8105 10.5979 19.769 10.8069 19.686 11.0577C19.5615 11.2667 19.437 11.4757 19.3124 11.6428C19.1464 11.81 18.9389 11.9354 18.7313 12.019C18.5238 12.1026 18.2748 12.1444 18.0257 12.1444C17.7767 12.1444 17.5276 12.1026 17.2786 11.9772C17.0295 11.8518 16.822 11.6846 16.656 11.5175C16.656 11.5175 16.656 11.4757 16.6145 11.4757C16.4899 11.3085 16.4069 11.1413 16.3239 10.9741C16.2409 10.7651 16.1164 10.5561 15.9918 10.3471C15.9088 10.2635 15.8673 10.1381 15.7843 10.0545C15.7428 9.97089 15.6598 9.8455 15.5353 9.8037C15.3692 9.6783 15.1617 9.6365 14.9957 9.7201L14.9542 9.6783C14.7466 9.8455 14.6221 10.0545 14.5391 10.3053C14.29 10.9323 14.0825 11.5592 13.9165 12.228L13.8335 12.6042L13.0863 15.0704L12.0486 17.4111C11.6751 17.9127 11.177 18.2889 10.5959 18.5815C10.0563 18.8323 9.43366 18.9994 8.81105 18.9994C6.23758 19.0412 5.03387 16.7005 5.03387 16.7005C3.5811 14.2762 3.16603 11.0995 3.04151 10.0545C3 9.92909 3 9.8037 3 9.6783C3 9.34391 3.08301 9.05132 3.24904 8.75873C3.41507 8.46613 3.62261 8.25714 3.91316 8.08994C4.20372 7.96455 4.53578 7.88095 4.86784 7.88095C5.40743 7.92275 5.90552 8.17354 6.23758 8.63333C6.44512 9.00952 6.56964 9.38571 6.56964 9.8037C6.65266 10.7651 6.8602 11.6846 7.10924 12.5624Z" fill="url(#paint3_radial_10641_218557)"/>
<path d="M7.10924 12.5624C7.31678 13.273 7.60733 13.9418 7.93939 14.6106C8.06391 14.9032 8.27145 15.154 8.52049 15.3629L8.68652 15.4465C9.1016 15.5301 9.30914 15.1958 9.47517 14.9032C9.6827 14.4016 9.84873 13.9 9.97326 13.3984C10.0148 13.3148 10.0148 13.2312 10.0563 13.1058C10.0978 12.9386 10.1393 12.7296 10.1808 12.5624L12.0071 7.67195C12.3807 7.17037 12.8788 6.75238 13.4599 6.45979C13.9995 6.1672 14.6221 6 15.2447 6C16.1579 6 17.0295 6.33439 17.7352 6.87778C18.9389 7.79735 19.6445 9.5947 19.6445 9.5947C19.7275 9.8455 19.8105 10.0963 19.8105 10.3471C19.8105 10.5979 19.769 10.8069 19.686 11.0577C19.5615 11.2667 19.437 11.4757 19.3124 11.6428C19.1464 11.81 18.9389 11.9354 18.7313 12.019C18.5238 12.1026 18.2748 12.1444 18.0257 12.1444C17.7767 12.1444 17.5276 12.1026 17.2786 11.9772C17.0295 11.8518 16.822 11.6846 16.656 11.5175C16.656 11.5175 16.656 11.4757 16.6145 11.4757C16.4899 11.3085 16.4069 11.1413 16.3239 10.9741C16.2409 10.7651 16.1164 10.5561 15.9918 10.3471C15.9088 10.2635 15.8673 10.1381 15.7843 10.0545C15.7428 9.97089 15.6598 9.8455 15.5353 9.8037C15.3692 9.6783 15.1617 9.6365 14.9957 9.7201L14.9542 9.6783C14.7466 9.8455 14.6221 10.0545 14.5391 10.3053C14.29 10.9323 14.0825 11.5592 13.9165 12.228L13.8335 12.6042L13.0863 15.0704L12.0486 17.4111C11.6751 17.9127 11.177 18.2889 10.5959 18.5815C10.0563 18.8323 9.43366 18.9994 8.81105 18.9994C6.23758 19.0412 5.03387 16.7005 5.03387 16.7005C3.5811 14.2762 3.16603 11.0995 3.04151 10.0545C3 9.92909 3 9.8037 3 9.6783C3 9.34391 3.08301 9.05132 3.24904 8.75873C3.41507 8.46613 3.62261 8.25714 3.91316 8.08994C4.20372 7.96455 4.53578 7.88095 4.86784 7.88095C5.40743 7.92275 5.90552 8.17354 6.23758 8.63333C6.44512 9.00952 6.56964 9.38571 6.56964 9.8037C6.65266 10.7651 6.8602 11.6846 7.10924 12.5624Z" fill="url(#paint4_radial_10641_218557)"/>
<path d="M7.10924 12.5624C7.31678 13.273 7.60733 13.9418 7.93939 14.6106C8.06391 14.9032 8.27145 15.154 8.52049 15.3629L8.68652 15.4465C9.1016 15.5301 9.30914 15.1958 9.47517 14.9032C9.6827 14.4016 9.84873 13.9 9.97326 13.3984C10.0148 13.3148 10.0148 13.2312 10.0563 13.1058C10.0978 12.9386 10.1393 12.7296 10.1808 12.5624L12.0071 7.67195C12.3807 7.17037 12.8788 6.75238 13.4599 6.45979C13.9995 6.1672 14.6221 6 15.2447 6C16.1579 6 17.0295 6.33439 17.7352 6.87778C18.9389 7.79735 19.6445 9.5947 19.6445 9.5947C19.7275 9.8455 19.8105 10.0963 19.8105 10.3471C19.8105 10.5979 19.769 10.8069 19.686 11.0577C19.5615 11.2667 19.437 11.4757 19.3124 11.6428C19.1464 11.81 18.9389 11.9354 18.7313 12.019C18.5238 12.1026 18.2748 12.1444 18.0257 12.1444C17.7767 12.1444 17.5276 12.1026 17.2786 11.9772C17.0295 11.8518 16.822 11.6846 16.656 11.5175C16.656 11.5175 16.656 11.4757 16.6145 11.4757C16.4899 11.3085 16.4069 11.1413 16.3239 10.9741C16.2409 10.7651 16.1164 10.5561 15.9918 10.3471C15.9088 10.2635 15.8673 10.1381 15.7843 10.0545C15.7428 9.97089 15.6598 9.8455 15.5353 9.8037C15.3692 9.6783 15.1617 9.6365 14.9957 9.7201L14.9542 9.6783C14.7466 9.8455 14.6221 10.0545 14.5391 10.3053C14.29 10.9323 14.0825 11.5592 13.9165 12.228L13.8335 12.6042L13.0863 15.0704L12.0486 17.4111C11.6751 17.9127 11.177 18.2889 10.5959 18.5815C10.0563 18.8323 9.43366 18.9994 8.81105 18.9994C6.23758 19.0412 5.03387 16.7005 5.03387 16.7005C3.5811 14.2762 3.16603 11.0995 3.04151 10.0545C3 9.92909 3 9.8037 3 9.6783C3 9.34391 3.08301 9.05132 3.24904 8.75873C3.41507 8.46613 3.62261 8.25714 3.91316 8.08994C4.20372 7.96455 4.53578 7.88095 4.86784 7.88095C5.40743 7.92275 5.90552 8.17354 6.23758 8.63333C6.44512 9.00952 6.56964 9.38571 6.56964 9.8037C6.65266 10.7651 6.8602 11.6846 7.10924 12.5624Z" fill="url(#paint5_radial_10641_218557)"/>
<path d="M7.10924 12.5624C7.31678 13.273 7.60733 13.9418 7.93939 14.6106C8.06391 14.9032 8.27145 15.154 8.52049 15.3629L8.68652 15.4465C9.1016 15.5301 9.30914 15.1958 9.47517 14.9032C9.6827 14.4016 9.84873 13.9 9.97326 13.3984C10.0148 13.3148 10.0148 13.2312 10.0563 13.1058C10.0978 12.9386 10.1393 12.7296 10.1808 12.5624L12.0071 7.67195C12.3807 7.17037 12.8788 6.75238 13.4599 6.45979C13.9995 6.1672 14.6221 6 15.2447 6C16.1579 6 17.0295 6.33439 17.7352 6.87778C18.9389 7.79735 19.6445 9.5947 19.6445 9.5947C19.7275 9.8455 19.8105 10.0963 19.8105 10.3471C19.8105 10.5979 19.769 10.8069 19.686 11.0577C19.5615 11.2667 19.437 11.4757 19.3124 11.6428C19.1464 11.81 18.9389 11.9354 18.7313 12.019C18.5238 12.1026 18.2748 12.1444 18.0257 12.1444C17.7767 12.1444 17.5276 12.1026 17.2786 11.9772C17.0295 11.8518 16.822 11.6846 16.656 11.5175C16.656 11.5175 16.656 11.4757 16.6145 11.4757C16.4899 11.3085 16.4069 11.1413 16.3239 10.9741C16.2409 10.7651 16.1164 10.5561 15.9918 10.3471C15.9088 10.2635 15.8673 10.1381 15.7843 10.0545C15.7428 9.97089 15.6598 9.8455 15.5353 9.8037C15.3692 9.6783 15.1617 9.6365 14.9957 9.7201L14.9542 9.6783C14.7466 9.8455 14.6221 10.0545 14.5391 10.3053C14.29 10.9323 14.0825 11.5592 13.9165 12.228L13.8335 12.6042L13.0863 15.0704L12.0486 17.4111C11.6751 17.9127 11.177 18.2889 10.5959 18.5815C10.0563 18.8323 9.43366 18.9994 8.81105 18.9994C6.23758 19.0412 5.03387 16.7005 5.03387 16.7005C3.5811 14.2762 3.16603 11.0995 3.04151 10.0545C3 9.92909 3 9.8037 3 9.6783C3 9.34391 3.08301 9.05132 3.24904 8.75873C3.41507 8.46613 3.62261 8.25714 3.91316 8.08994C4.20372 7.96455 4.53578 7.88095 4.86784 7.88095C5.40743 7.92275 5.90552 8.17354 6.23758 8.63333C6.44512 9.00952 6.56964 9.38571 6.56964 9.8037C6.65266 10.7651 6.8602 11.6846 7.10924 12.5624Z" fill="url(#paint6_radial_10641_218557)"/>
<path d="M7.10924 12.5624C7.31678 13.273 7.60733 13.9418 7.93939 14.6106C8.06391 14.9032 8.27145 15.154 8.52049 15.3629L8.68652 15.4465C9.1016 15.5301 9.30914 15.1958 9.47517 14.9032C9.6827 14.4016 9.84873 13.9 9.97326 13.3984C10.0148 13.3148 10.0148 13.2312 10.0563 13.1058C10.0978 12.9386 10.1393 12.7296 10.1808 12.5624L12.0071 7.67195C12.3807 7.17037 12.8788 6.75238 13.4599 6.45979C13.9995 6.1672 14.6221 6 15.2447 6C16.1579 6 17.0295 6.33439 17.7352 6.87778C18.9389 7.79735 19.6445 9.5947 19.6445 9.5947C19.7275 9.8455 19.8105 10.0963 19.8105 10.3471C19.8105 10.5979 19.769 10.8069 19.686 11.0577C19.5615 11.2667 19.437 11.4757 19.3124 11.6428C19.1464 11.81 18.9389 11.9354 18.7313 12.019C18.5238 12.1026 18.2748 12.1444 18.0257 12.1444C17.7767 12.1444 17.5276 12.1026 17.2786 11.9772C17.0295 11.8518 16.822 11.6846 16.656 11.5175C16.656 11.5175 16.656 11.4757 16.6145 11.4757C16.4899 11.3085 16.4069 11.1413 16.3239 10.9741C16.2409 10.7651 16.1164 10.5561 15.9918 10.3471C15.9088 10.2635 15.8673 10.1381 15.7843 10.0545C15.7428 9.97089 15.6598 9.8455 15.5353 9.8037C15.3692 9.6783 15.1617 9.6365 14.9957 9.7201L14.9542 9.6783C14.7466 9.8455 14.6221 10.0545 14.5391 10.3053C14.29 10.9323 14.0825 11.5592 13.9165 12.228L13.8335 12.6042L13.0863 15.0704L12.0486 17.4111C11.6751 17.9127 11.177 18.2889 10.5959 18.5815C10.0563 18.8323 9.43366 18.9994 8.81105 18.9994C6.23758 19.0412 5.03387 16.7005 5.03387 16.7005C3.5811 14.2762 3.16603 11.0995 3.04151 10.0545C3 9.92909 3 9.8037 3 9.6783C3 9.34391 3.08301 9.05132 3.24904 8.75873C3.41507 8.46613 3.62261 8.25714 3.91316 8.08994C4.20372 7.96455 4.53578 7.88095 4.86784 7.88095C5.40743 7.92275 5.90552 8.17354 6.23758 8.63333C6.44512 9.00952 6.56964 9.38571 6.56964 9.8037C6.65266 10.7651 6.8602 11.6846 7.10924 12.5624Z" fill="url(#paint7_radial_10641_218557)"/>
<path d="M7.10924 12.5624C7.31678 13.273 7.60733 13.9418 7.93939 14.6106C8.06391 14.9032 8.27145 15.154 8.52049 15.3629L8.68652 15.4465C9.1016 15.5301 9.30914 15.1958 9.47517 14.9032C9.6827 14.4016 9.84873 13.9 9.97326 13.3984C10.0148 13.3148 10.0148 13.2312 10.0563 13.1058C10.0978 12.9386 10.1393 12.7296 10.1808 12.5624L12.0071 7.67195C12.3807 7.17037 12.8788 6.75238 13.4599 6.45979C13.9995 6.1672 14.6221 6 15.2447 6C16.1579 6 17.0295 6.33439 17.7352 6.87778C18.9389 7.79735 19.6445 9.5947 19.6445 9.5947C19.7275 9.8455 19.8105 10.0963 19.8105 10.3471C19.8105 10.5979 19.769 10.8069 19.686 11.0577C19.5615 11.2667 19.437 11.4757 19.3124 11.6428C19.1464 11.81 18.9389 11.9354 18.7313 12.019C18.5238 12.1026 18.2748 12.1444 18.0257 12.1444C17.7767 12.1444 17.5276 12.1026 17.2786 11.9772C17.0295 11.8518 16.822 11.6846 16.656 11.5175C16.656 11.5175 16.656 11.4757 16.6145 11.4757C16.4899 11.3085 16.4069 11.1413 16.3239 10.9741C16.2409 10.7651 16.1164 10.5561 15.9918 10.3471C15.9088 10.2635 15.8673 10.1381 15.7843 10.0545C15.7428 9.97089 15.6598 9.8455 15.5353 9.8037C15.3692 9.6783 15.1617 9.6365 14.9957 9.7201L14.9542 9.6783C14.7466 9.8455 14.6221 10.0545 14.5391 10.3053C14.29 10.9323 14.0825 11.5592 13.9165 12.228L13.8335 12.6042L13.0863 15.0704L12.0486 17.4111C11.6751 17.9127 11.177 18.2889 10.5959 18.5815C10.0563 18.8323 9.43366 18.9994 8.81105 18.9994C6.23758 19.0412 5.03387 16.7005 5.03387 16.7005C3.5811 14.2762 3.16603 11.0995 3.04151 10.0545C3 9.92909 3 9.8037 3 9.6783C3 9.34391 3.08301 9.05132 3.24904 8.75873C3.41507 8.46613 3.62261 8.25714 3.91316 8.08994C4.20372 7.96455 4.53578 7.88095 4.86784 7.88095C5.40743 7.92275 5.90552 8.17354 6.23758 8.63333C6.44512 9.00952 6.56964 9.38571 6.56964 9.8037C6.65266 10.7651 6.8602 11.6846 7.10924 12.5624Z" fill="url(#paint8_radial_10641_218557)"/>
<path d="M7.10924 12.5624C7.31678 13.273 7.60733 13.9418 7.93939 14.6106C8.06391 14.9032 8.27145 15.154 8.52049 15.3629L8.68652 15.4465C9.1016 15.5301 9.30914 15.1958 9.47517 14.9032C9.6827 14.4016 9.84873 13.9 9.97326 13.3984C10.0148 13.3148 10.0148 13.2312 10.0563 13.1058C10.0978 12.9386 10.1393 12.7296 10.1808 12.5624L12.0071 7.67195C12.3807 7.17037 12.8788 6.75238 13.4599 6.45979C13.9995 6.1672 14.6221 6 15.2447 6C16.1579 6 17.0295 6.33439 17.7352 6.87778C18.9389 7.79735 19.6445 9.5947 19.6445 9.5947C19.7275 9.8455 19.8105 10.0963 19.8105 10.3471C19.8105 10.5979 19.769 10.8069 19.686 11.0577C19.5615 11.2667 19.437 11.4757 19.3124 11.6428C19.1464 11.81 18.9389 11.9354 18.7313 12.019C18.5238 12.1026 18.2748 12.1444 18.0257 12.1444C17.7767 12.1444 17.5276 12.1026 17.2786 11.9772C17.0295 11.8518 16.822 11.6846 16.656 11.5175C16.656 11.5175 16.656 11.4757 16.6145 11.4757C16.4899 11.3085 16.4069 11.1413 16.3239 10.9741C16.2409 10.7651 16.1164 10.5561 15.9918 10.3471C15.9088 10.2635 15.8673 10.1381 15.7843 10.0545C15.7428 9.97089 15.6598 9.8455 15.5353 9.8037C15.3692 9.6783 15.1617 9.6365 14.9957 9.7201L14.9542 9.6783C14.7466 9.8455 14.6221 10.0545 14.5391 10.3053C14.29 10.9323 14.0825 11.5592 13.9165 12.228L13.8335 12.6042L13.0863 15.0704L12.0486 17.4111C11.6751 17.9127 11.177 18.2889 10.5959 18.5815C10.0563 18.8323 9.43366 18.9994 8.81105 18.9994C6.23758 19.0412 5.03387 16.7005 5.03387 16.7005C3.5811 14.2762 3.16603 11.0995 3.04151 10.0545C3 9.92909 3 9.8037 3 9.6783C3 9.34391 3.08301 9.05132 3.24904 8.75873C3.41507 8.46613 3.62261 8.25714 3.91316 8.08994C4.20372 7.96455 4.53578 7.88095 4.86784 7.88095C5.40743 7.92275 5.90552 8.17354 6.23758 8.63333C6.44512 9.00952 6.56964 9.38571 6.56964 9.8037C6.65266 10.7651 6.8602 11.6846 7.10924 12.5624Z" fill="url(#paint9_radial_10641_218557)"/>
<path d="M7.10924 12.5624C7.31678 13.273 7.60733 13.9418 7.93939 14.6106C8.06391 14.9032 8.27145 15.154 8.52049 15.3629L8.68652 15.4465C9.1016 15.5301 9.30914 15.1958 9.47517 14.9032C9.6827 14.4016 9.84873 13.9 9.97326 13.3984C10.0148 13.3148 10.0148 13.2312 10.0563 13.1058C10.0978 12.9386 10.1393 12.7296 10.1808 12.5624L12.0071 7.67195C12.3807 7.17037 12.8788 6.75238 13.4599 6.45979C13.9995 6.1672 14.6221 6 15.2447 6C16.1579 6 17.0295 6.33439 17.7352 6.87778C18.9389 7.79735 19.6445 9.5947 19.6445 9.5947C19.7275 9.8455 19.8105 10.0963 19.8105 10.3471C19.8105 10.5979 19.769 10.8069 19.686 11.0577C19.5615 11.2667 19.437 11.4757 19.3124 11.6428C19.1464 11.81 18.9389 11.9354 18.7313 12.019C18.5238 12.1026 18.2748 12.1444 18.0257 12.1444C17.7767 12.1444 17.5276 12.1026 17.2786 11.9772C17.0295 11.8518 16.822 11.6846 16.656 11.5175C16.656 11.5175 16.656 11.4757 16.6145 11.4757C16.4899 11.3085 16.4069 11.1413 16.3239 10.9741C16.2409 10.7651 16.1164 10.5561 15.9918 10.3471C15.9088 10.2635 15.8673 10.1381 15.7843 10.0545C15.7428 9.97089 15.6598 9.8455 15.5353 9.8037C15.3692 9.6783 15.1617 9.6365 14.9957 9.7201L14.9542 9.6783C14.7466 9.8455 14.6221 10.0545 14.5391 10.3053C14.29 10.9323 14.0825 11.5592 13.9165 12.228L13.8335 12.6042L13.0863 15.0704L12.0486 17.4111C11.6751 17.9127 11.177 18.2889 10.5959 18.5815C10.0563 18.8323 9.43366 18.9994 8.81105 18.9994C6.23758 19.0412 5.03387 16.7005 5.03387 16.7005C3.5811 14.2762 3.16603 11.0995 3.04151 10.0545C3 9.92909 3 9.8037 3 9.6783C3 9.34391 3.08301 9.05132 3.24904 8.75873C3.41507 8.46613 3.62261 8.25714 3.91316 8.08994C4.20372 7.96455 4.53578 7.88095 4.86784 7.88095C5.40743 7.92275 5.90552 8.17354 6.23758 8.63333C6.44512 9.00952 6.56964 9.38571 6.56964 9.8037C6.65266 10.7651 6.8602 11.6846 7.10924 12.5624Z" fill="url(#paint10_radial_10641_218557)"/>
<path d="M7.10924 12.5624C7.31678 13.273 7.60733 13.9418 7.93939 14.6106C8.06391 14.9032 8.27145 15.154 8.52049 15.3629L8.68652 15.4465C9.1016 15.5301 9.30914 15.1958 9.47517 14.9032C9.6827 14.4016 9.84873 13.9 9.97326 13.3984C10.0148 13.3148 10.0148 13.2312 10.0563 13.1058C10.0978 12.9386 10.1393 12.7296 10.1808 12.5624L12.0071 7.67195C12.3807 7.17037 12.8788 6.75238 13.4599 6.45979C13.9995 6.1672 14.6221 6 15.2447 6C16.1579 6 17.0295 6.33439 17.7352 6.87778C18.9389 7.79735 19.6445 9.5947 19.6445 9.5947C19.7275 9.8455 19.8105 10.0963 19.8105 10.3471C19.8105 10.5979 19.769 10.8069 19.686 11.0577C19.5615 11.2667 19.437 11.4757 19.3124 11.6428C19.1464 11.81 18.9389 11.9354 18.7313 12.019C18.5238 12.1026 18.2748 12.1444 18.0257 12.1444C17.7767 12.1444 17.5276 12.1026 17.2786 11.9772C17.0295 11.8518 16.822 11.6846 16.656 11.5175C16.656 11.5175 16.656 11.4757 16.6145 11.4757C16.4899 11.3085 16.4069 11.1413 16.3239 10.9741C16.2409 10.7651 16.1164 10.5561 15.9918 10.3471C15.9088 10.2635 15.8673 10.1381 15.7843 10.0545C15.7428 9.97089 15.6598 9.8455 15.5353 9.8037C15.3692 9.6783 15.1617 9.6365 14.9957 9.7201L14.9542 9.6783C14.7466 9.8455 14.6221 10.0545 14.5391 10.3053C14.29 10.9323 14.0825 11.5592 13.9165 12.228L13.8335 12.6042L13.0863 15.0704L12.0486 17.4111C11.6751 17.9127 11.177 18.2889 10.5959 18.5815C10.0563 18.8323 9.43366 18.9994 8.81105 18.9994C6.23758 19.0412 5.03387 16.7005 5.03387 16.7005C3.5811 14.2762 3.16603 11.0995 3.04151 10.0545C3 9.92909 3 9.8037 3 9.6783C3 9.34391 3.08301 9.05132 3.24904 8.75873C3.41507 8.46613 3.62261 8.25714 3.91316 8.08994C4.20372 7.96455 4.53578 7.88095 4.86784 7.88095C5.40743 7.92275 5.90552 8.17354 6.23758 8.63333C6.44512 9.00952 6.56964 9.38571 6.56964 9.8037C6.65266 10.7651 6.8602 11.6846 7.10924 12.5624Z" fill="url(#paint11_radial_10641_218557)"/>
<path d="M7.10924 12.5624C7.31678 13.273 7.60733 13.9418 7.93939 14.6106C8.06391 14.9032 8.27145 15.154 8.52049 15.3629L8.68652 15.4465C9.1016 15.5301 9.30914 15.1958 9.47517 14.9032C9.6827 14.4016 9.84873 13.9 9.97326 13.3984C10.0148 13.3148 10.0148 13.2312 10.0563 13.1058C10.0978 12.9386 10.1393 12.7296 10.1808 12.5624L12.0071 7.67195C12.3807 7.17037 12.8788 6.75238 13.4599 6.45979C13.9995 6.1672 14.6221 6 15.2447 6C16.1579 6 17.0295 6.33439 17.7352 6.87778C18.9389 7.79735 19.6445 9.5947 19.6445 9.5947C19.7275 9.8455 19.8105 10.0963 19.8105 10.3471C19.8105 10.5979 19.769 10.8069 19.686 11.0577C19.5615 11.2667 19.437 11.4757 19.3124 11.6428C19.1464 11.81 18.9389 11.9354 18.7313 12.019C18.5238 12.1026 18.2748 12.1444 18.0257 12.1444C17.7767 12.1444 17.5276 12.1026 17.2786 11.9772C17.0295 11.8518 16.822 11.6846 16.656 11.5175C16.656 11.5175 16.656 11.4757 16.6145 11.4757C16.4899 11.3085 16.4069 11.1413 16.3239 10.9741C16.2409 10.7651 16.1164 10.5561 15.9918 10.3471C15.9088 10.2635 15.8673 10.1381 15.7843 10.0545C15.7428 9.97089 15.6598 9.8455 15.5353 9.8037C15.3692 9.6783 15.1617 9.6365 14.9957 9.7201L14.9542 9.6783C14.7466 9.8455 14.6221 10.0545 14.5391 10.3053C14.29 10.9323 14.0825 11.5592 13.9165 12.228L13.8335 12.6042L13.0863 15.0704L12.0486 17.4111C11.6751 17.9127 11.177 18.2889 10.5959 18.5815C10.0563 18.8323 9.43366 18.9994 8.81105 18.9994C6.23758 19.0412 5.03387 16.7005 5.03387 16.7005C3.5811 14.2762 3.16603 11.0995 3.04151 10.0545C3 9.92909 3 9.8037 3 9.6783C3 9.34391 3.08301 9.05132 3.24904 8.75873C3.41507 8.46613 3.62261 8.25714 3.91316 8.08994C4.20372 7.96455 4.53578 7.88095 4.86784 7.88095C5.40743 7.92275 5.90552 8.17354 6.23758 8.63333C6.44512 9.00952 6.56964 9.38571 6.56964 9.8037C6.65266 10.7651 6.8602 11.6846 7.10924 12.5624Z" fill="url(#paint12_radial_10641_218557)"/>
<path d="M7.10924 12.5624C7.31678 13.273 7.60733 13.9418 7.93939 14.6106C8.06391 14.9032 8.27145 15.154 8.52049 15.3629L8.68652 15.4465C9.1016 15.5301 9.30914 15.1958 9.47517 14.9032C9.6827 14.4016 9.84873 13.9 9.97326 13.3984C10.0148 13.3148 10.0148 13.2312 10.0563 13.1058C10.0978 12.9386 10.1393 12.7296 10.1808 12.5624L12.0071 7.67195C12.3807 7.17037 12.8788 6.75238 13.4599 6.45979C13.9995 6.1672 14.6221 6 15.2447 6C16.1579 6 17.0295 6.33439 17.7352 6.87778C18.9389 7.79735 19.6445 9.5947 19.6445 9.5947C19.7275 9.8455 19.8105 10.0963 19.8105 10.3471C19.8105 10.5979 19.769 10.8069 19.686 11.0577C19.5615 11.2667 19.437 11.4757 19.3124 11.6428C19.1464 11.81 18.9389 11.9354 18.7313 12.019C18.5238 12.1026 18.2748 12.1444 18.0257 12.1444C17.7767 12.1444 17.5276 12.1026 17.2786 11.9772C17.0295 11.8518 16.822 11.6846 16.656 11.5175C16.656 11.5175 16.656 11.4757 16.6145 11.4757C16.4899 11.3085 16.4069 11.1413 16.3239 10.9741C16.2409 10.7651 16.1164 10.5561 15.9918 10.3471C15.9088 10.2635 15.8673 10.1381 15.7843 10.0545C15.7428 9.97089 15.6598 9.8455 15.5353 9.8037C15.3692 9.6783 15.1617 9.6365 14.9957 9.7201L14.9542 9.6783C14.7466 9.8455 14.6221 10.0545 14.5391 10.3053C14.29 10.9323 14.0825 11.5592 13.9165 12.228L13.8335 12.6042L13.0863 15.0704L12.0486 17.4111C11.6751 17.9127 11.177 18.2889 10.5959 18.5815C10.0563 18.8323 9.43366 18.9994 8.81105 18.9994C6.23758 19.0412 5.03387 16.7005 5.03387 16.7005C3.5811 14.2762 3.16603 11.0995 3.04151 10.0545C3 9.92909 3 9.8037 3 9.6783C3 9.34391 3.08301 9.05132 3.24904 8.75873C3.41507 8.46613 3.62261 8.25714 3.91316 8.08994C4.20372 7.96455 4.53578 7.88095 4.86784 7.88095C5.40743 7.92275 5.90552 8.17354 6.23758 8.63333C6.44512 9.00952 6.56964 9.38571 6.56964 9.8037C6.65266 10.7651 6.8602 11.6846 7.10924 12.5624Z" fill="url(#paint13_radial_10641_218557)"/>
<path d="M7.10924 12.5624C7.31678 13.273 7.60733 13.9418 7.93939 14.6106C8.06391 14.9032 8.27145 15.154 8.52049 15.3629L8.68652 15.4465C9.1016 15.5301 9.30914 15.1958 9.47517 14.9032C9.6827 14.4016 9.84873 13.9 9.97326 13.3984C10.0148 13.3148 10.0148 13.2312 10.0563 13.1058C10.0978 12.9386 10.1393 12.7296 10.1808 12.5624L12.0071 7.67195C12.3807 7.17037 12.8788 6.75238 13.4599 6.45979C13.9995 6.1672 14.6221 6 15.2447 6C16.1579 6 17.0295 6.33439 17.7352 6.87778C18.9389 7.79735 19.6445 9.5947 19.6445 9.5947C19.7275 9.8455 19.8105 10.0963 19.8105 10.3471C19.8105 10.5979 19.769 10.8069 19.686 11.0577C19.5615 11.2667 19.437 11.4757 19.3124 11.6428C19.1464 11.81 18.9389 11.9354 18.7313 12.019C18.5238 12.1026 18.2748 12.1444 18.0257 12.1444C17.7767 12.1444 17.5276 12.1026 17.2786 11.9772C17.0295 11.8518 16.822 11.6846 16.656 11.5175C16.656 11.5175 16.656 11.4757 16.6145 11.4757C16.4899 11.3085 16.4069 11.1413 16.3239 10.9741C16.2409 10.7651 16.1164 10.5561 15.9918 10.3471C15.9088 10.2635 15.8673 10.1381 15.7843 10.0545C15.7428 9.97089 15.6598 9.8455 15.5353 9.8037C15.3692 9.6783 15.1617 9.6365 14.9957 9.7201L14.9542 9.6783C14.7466 9.8455 14.6221 10.0545 14.5391 10.3053C14.29 10.9323 14.0825 11.5592 13.9165 12.228L13.8335 12.6042L13.0863 15.0704L12.0486 17.4111C11.6751 17.9127 11.177 18.2889 10.5959 18.5815C10.0563 18.8323 9.43366 18.9994 8.81105 18.9994C6.23758 19.0412 5.03387 16.7005 5.03387 16.7005C3.5811 14.2762 3.16603 11.0995 3.04151 10.0545C3 9.92909 3 9.8037 3 9.6783C3 9.34391 3.08301 9.05132 3.24904 8.75873C3.41507 8.46613 3.62261 8.25714 3.91316 8.08994C4.20372 7.96455 4.53578 7.88095 4.86784 7.88095C5.40743 7.92275 5.90552 8.17354 6.23758 8.63333C6.44512 9.00952 6.56964 9.38571 6.56964 9.8037C6.65266 10.7651 6.8602 11.6846 7.10924 12.5624Z" fill="url(#paint14_radial_10641_218557)"/>
<path d="M7.10924 12.5624C7.31678 13.273 7.60733 13.9418 7.93939 14.6106C8.06391 14.9032 8.27145 15.154 8.52049 15.3629L8.68652 15.4465C9.1016 15.5301 9.30914 15.1958 9.47517 14.9032C9.6827 14.4016 9.84873 13.9 9.97326 13.3984C10.0148 13.3148 10.0148 13.2312 10.0563 13.1058C10.0978 12.9386 10.1393 12.7296 10.1808 12.5624L12.0071 7.67195C12.3807 7.17037 12.8788 6.75238 13.4599 6.45979C13.9995 6.1672 14.6221 6 15.2447 6C16.1579 6 17.0295 6.33439 17.7352 6.87778C18.9389 7.79735 19.6445 9.5947 19.6445 9.5947C19.7275 9.8455 19.8105 10.0963 19.8105 10.3471C19.8105 10.5979 19.769 10.8069 19.686 11.0577C19.5615 11.2667 19.437 11.4757 19.3124 11.6428C19.1464 11.81 18.9389 11.9354 18.7313 12.019C18.5238 12.1026 18.2748 12.1444 18.0257 12.1444C17.7767 12.1444 17.5276 12.1026 17.2786 11.9772C17.0295 11.8518 16.822 11.6846 16.656 11.5175C16.656 11.5175 16.656 11.4757 16.6145 11.4757C16.4899 11.3085 16.4069 11.1413 16.3239 10.9741C16.2409 10.7651 16.1164 10.5561 15.9918 10.3471C15.9088 10.2635 15.8673 10.1381 15.7843 10.0545C15.7428 9.97089 15.6598 9.8455 15.5353 9.8037C15.3692 9.6783 15.1617 9.6365 14.9957 9.7201L14.9542 9.6783C14.7466 9.8455 14.6221 10.0545 14.5391 10.3053C14.29 10.9323 14.0825 11.5592 13.9165 12.228L13.8335 12.6042L13.0863 15.0704L12.0486 17.4111C11.6751 17.9127 11.177 18.2889 10.5959 18.5815C10.0563 18.8323 9.43366 18.9994 8.81105 18.9994C6.23758 19.0412 5.03387 16.7005 5.03387 16.7005C3.5811 14.2762 3.16603 11.0995 3.04151 10.0545C3 9.92909 3 9.8037 3 9.6783C3 9.34391 3.08301 9.05132 3.24904 8.75873C3.41507 8.46613 3.62261 8.25714 3.91316 8.08994C4.20372 7.96455 4.53578 7.88095 4.86784 7.88095C5.40743 7.92275 5.90552 8.17354 6.23758 8.63333C6.44512 9.00952 6.56964 9.38571 6.56964 9.8037C6.65266 10.7651 6.8602 11.6846 7.10924 12.5624Z" fill="url(#paint15_radial_10641_218557)"/>
<path d="M7.10924 12.5624C7.31678 13.273 7.60733 13.9418 7.93939 14.6106C8.06391 14.9032 8.27145 15.154 8.52049 15.3629L8.68652 15.4465C9.1016 15.5301 9.30914 15.1958 9.47517 14.9032C9.6827 14.4016 9.84873 13.9 9.97326 13.3984C10.0148 13.3148 10.0148 13.2312 10.0563 13.1058C10.0978 12.9386 10.1393 12.7296 10.1808 12.5624L12.0071 7.67195C12.3807 7.17037 12.8788 6.75238 13.4599 6.45979C13.9995 6.1672 14.6221 6 15.2447 6C16.1579 6 17.0295 6.33439 17.7352 6.87778C18.9389 7.79735 19.6445 9.5947 19.6445 9.5947C19.7275 9.8455 19.8105 10.0963 19.8105 10.3471C19.8105 10.5979 19.769 10.8069 19.686 11.0577C19.5615 11.2667 19.437 11.4757 19.3124 11.6428C19.1464 11.81 18.9389 11.9354 18.7313 12.019C18.5238 12.1026 18.2748 12.1444 18.0257 12.1444C17.7767 12.1444 17.5276 12.1026 17.2786 11.9772C17.0295 11.8518 16.822 11.6846 16.656 11.5175C16.656 11.5175 16.656 11.4757 16.6145 11.4757C16.4899 11.3085 16.4069 11.1413 16.3239 10.9741C16.2409 10.7651 16.1164 10.5561 15.9918 10.3471C15.9088 10.2635 15.8673 10.1381 15.7843 10.0545C15.7428 9.97089 15.6598 9.8455 15.5353 9.8037C15.3692 9.6783 15.1617 9.6365 14.9957 9.7201L14.9542 9.6783C14.7466 9.8455 14.6221 10.0545 14.5391 10.3053C14.29 10.9323 14.0825 11.5592 13.9165 12.228L13.8335 12.6042L13.0863 15.0704L12.0486 17.4111C11.6751 17.9127 11.177 18.2889 10.5959 18.5815C10.0563 18.8323 9.43366 18.9994 8.81105 18.9994C6.23758 19.0412 5.03387 16.7005 5.03387 16.7005C3.5811 14.2762 3.16603 11.0995 3.04151 10.0545C3 9.92909 3 9.8037 3 9.6783C3 9.34391 3.08301 9.05132 3.24904 8.75873C3.41507 8.46613 3.62261 8.25714 3.91316 8.08994C4.20372 7.96455 4.53578 7.88095 4.86784 7.88095C5.40743 7.92275 5.90552 8.17354 6.23758 8.63333C6.44512 9.00952 6.56964 9.38571 6.56964 9.8037C6.65266 10.7651 6.8602 11.6846 7.10924 12.5624Z" fill="url(#paint16_linear_10641_218557)"/>
<path d="M7.10924 12.5624C7.31678 13.273 7.60733 13.9418 7.93939 14.6106C8.06391 14.9032 8.27145 15.154 8.52049 15.3629L8.68652 15.4465C9.1016 15.5301 9.30914 15.1958 9.47517 14.9032C9.6827 14.4016 9.84873 13.9 9.97326 13.3984C10.0148 13.3148 10.0148 13.2312 10.0563 13.1058C10.0978 12.9386 10.1393 12.7296 10.1808 12.5624L12.0071 7.67195C12.3807 7.17037 12.8788 6.75238 13.4599 6.45979C13.9995 6.1672 14.6221 6 15.2447 6C16.1579 6 17.0295 6.33439 17.7352 6.87778C18.9389 7.79735 19.6445 9.5947 19.6445 9.5947C19.7275 9.8455 19.8105 10.0963 19.8105 10.3471C19.8105 10.5979 19.769 10.8069 19.686 11.0577C19.5615 11.2667 19.437 11.4757 19.3124 11.6428C19.1464 11.81 18.9389 11.9354 18.7313 12.019C18.5238 12.1026 18.2748 12.1444 18.0257 12.1444C17.7767 12.1444 17.5276 12.1026 17.2786 11.9772C17.0295 11.8518 16.822 11.6846 16.656 11.5175C16.656 11.5175 16.656 11.4757 16.6145 11.4757C16.4899 11.3085 16.4069 11.1413 16.3239 10.9741C16.2409 10.7651 16.1164 10.5561 15.9918 10.3471C15.9088 10.2635 15.8673 10.1381 15.7843 10.0545C15.7428 9.97089 15.6598 9.8455 15.5353 9.8037C15.3692 9.6783 15.1617 9.6365 14.9957 9.7201L14.9542 9.6783C14.7466 9.8455 14.6221 10.0545 14.5391 10.3053C14.29 10.9323 14.0825 11.5592 13.9165 12.228L13.8335 12.6042L13.0863 15.0704L12.0486 17.4111C11.6751 17.9127 11.177 18.2889 10.5959 18.5815C10.0563 18.8323 9.43366 18.9994 8.81105 18.9994C6.23758 19.0412 5.03387 16.7005 5.03387 16.7005C3.5811 14.2762 3.16603 11.0995 3.04151 10.0545C3 9.92909 3 9.8037 3 9.6783C3 9.34391 3.08301 9.05132 3.24904 8.75873C3.41507 8.46613 3.62261 8.25714 3.91316 8.08994C4.20372 7.96455 4.53578 7.88095 4.86784 7.88095C5.40743 7.92275 5.90552 8.17354 6.23758 8.63333C6.44512 9.00952 6.56964 9.38571 6.56964 9.8037C6.65266 10.7651 6.8602 11.6846 7.10924 12.5624Z" fill="url(#paint17_linear_10641_218557)"/>
<path d="M7.10924 12.5624C7.31678 13.273 7.60733 13.9418 7.93939 14.6106C8.06391 14.9032 8.27145 15.154 8.52049 15.3629L8.68652 15.4465C9.1016 15.5301 9.30914 15.1958 9.47517 14.9032C9.6827 14.4016 9.84873 13.9 9.97326 13.3984C10.0148 13.3148 10.0148 13.2312 10.0563 13.1058C10.0978 12.9386 10.1393 12.7296 10.1808 12.5624L12.0071 7.67195C12.3807 7.17037 12.8788 6.75238 13.4599 6.45979C13.9995 6.1672 14.6221 6 15.2447 6C16.1579 6 17.0295 6.33439 17.7352 6.87778C18.9389 7.79735 19.6445 9.5947 19.6445 9.5947C19.7275 9.8455 19.8105 10.0963 19.8105 10.3471C19.8105 10.5979 19.769 10.8069 19.686 11.0577C19.5615 11.2667 19.437 11.4757 19.3124 11.6428C19.1464 11.81 18.9389 11.9354 18.7313 12.019C18.5238 12.1026 18.2748 12.1444 18.0257 12.1444C17.7767 12.1444 17.5276 12.1026 17.2786 11.9772C17.0295 11.8518 16.822 11.6846 16.656 11.5175C16.656 11.5175 16.656 11.4757 16.6145 11.4757C16.4899 11.3085 16.4069 11.1413 16.3239 10.9741C16.2409 10.7651 16.1164 10.5561 15.9918 10.3471C15.9088 10.2635 15.8673 10.1381 15.7843 10.0545C15.7428 9.97089 15.6598 9.8455 15.5353 9.8037C15.3692 9.6783 15.1617 9.6365 14.9957 9.7201L14.9542 9.6783C14.7466 9.8455 14.6221 10.0545 14.5391 10.3053C14.29 10.9323 14.0825 11.5592 13.9165 12.228L13.8335 12.6042L13.0863 15.0704L12.0486 17.4111C11.6751 17.9127 11.177 18.2889 10.5959 18.5815C10.0563 18.8323 9.43366 18.9994 8.81105 18.9994C6.23758 19.0412 5.03387 16.7005 5.03387 16.7005C3.5811 14.2762 3.16603 11.0995 3.04151 10.0545C3 9.92909 3 9.8037 3 9.6783C3 9.34391 3.08301 9.05132 3.24904 8.75873C3.41507 8.46613 3.62261 8.25714 3.91316 8.08994C4.20372 7.96455 4.53578 7.88095 4.86784 7.88095C5.40743 7.92275 5.90552 8.17354 6.23758 8.63333C6.44512 9.00952 6.56964 9.38571 6.56964 9.8037C6.65266 10.7651 6.8602 11.6846 7.10924 12.5624Z" fill="url(#paint18_linear_10641_218557)"/>
<path d="M7.10924 12.5624C7.31678 13.273 7.60733 13.9418 7.93939 14.6106C8.06391 14.9032 8.27145 15.154 8.52049 15.3629L8.68652 15.4465C9.1016 15.5301 9.30914 15.1958 9.47517 14.9032C9.6827 14.4016 9.84873 13.9 9.97326 13.3984C10.0148 13.3148 10.0148 13.2312 10.0563 13.1058C10.0978 12.9386 10.1393 12.7296 10.1808 12.5624L12.0071 7.67195C12.3807 7.17037 12.8788 6.75238 13.4599 6.45979C13.9995 6.1672 14.6221 6 15.2447 6C16.1579 6 17.0295 6.33439 17.7352 6.87778C18.9389 7.79735 19.6445 9.5947 19.6445 9.5947C19.7275 9.8455 19.8105 10.0963 19.8105 10.3471C19.8105 10.5979 19.769 10.8069 19.686 11.0577C19.5615 11.2667 19.437 11.4757 19.3124 11.6428C19.1464 11.81 18.9389 11.9354 18.7313 12.019C18.5238 12.1026 18.2748 12.1444 18.0257 12.1444C17.7767 12.1444 17.5276 12.1026 17.2786 11.9772C17.0295 11.8518 16.822 11.6846 16.656 11.5175C16.656 11.5175 16.656 11.4757 16.6145 11.4757C16.4899 11.3085 16.4069 11.1413 16.3239 10.9741C16.2409 10.7651 16.1164 10.5561 15.9918 10.3471C15.9088 10.2635 15.8673 10.1381 15.7843 10.0545C15.7428 9.97089 15.6598 9.8455 15.5353 9.8037C15.3692 9.6783 15.1617 9.6365 14.9957 9.7201L14.9542 9.6783C14.7466 9.8455 14.6221 10.0545 14.5391 10.3053C14.29 10.9323 14.0825 11.5592 13.9165 12.228L13.8335 12.6042L13.0863 15.0704L12.0486 17.4111C11.6751 17.9127 11.177 18.2889 10.5959 18.5815C10.0563 18.8323 9.43366 18.9994 8.81105 18.9994C6.23758 19.0412 5.03387 16.7005 5.03387 16.7005C3.5811 14.2762 3.16603 11.0995 3.04151 10.0545C3 9.92909 3 9.8037 3 9.6783C3 9.34391 3.08301 9.05132 3.24904 8.75873C3.41507 8.46613 3.62261 8.25714 3.91316 8.08994C4.20372 7.96455 4.53578 7.88095 4.86784 7.88095C5.40743 7.92275 5.90552 8.17354 6.23758 8.63333C6.44512 9.00952 6.56964 9.38571 6.56964 9.8037C6.65266 10.7651 6.8602 11.6846 7.10924 12.5624Z" fill="url(#paint19_linear_10641_218557)"/>
<path d="M10.8452 10.7233L12.0074 7.63016C12.381 7.12857 12.8791 6.71058 13.4602 6.41799C14.0413 6.1672 14.6639 6 15.2865 6C16.1997 6 17.0713 6.33439 17.777 6.87778C18.9807 7.79735 19.6863 9.5947 19.6863 9.5947C19.7693 9.8455 19.8523 10.0963 19.8523 10.3471C19.8523 10.5979 19.8108 10.8069 19.7278 11.0577C19.6033 11.2667 19.4788 11.4757 19.3542 11.6428C19.1882 11.81 18.9807 11.9354 18.7731 12.019C18.5656 12.1026 18.3166 12.1444 18.0675 12.1444C17.8185 12.1444 17.5694 12.1026 17.3204 11.9772C17.0713 11.8518 16.8638 11.6846 16.6978 11.5174C16.6978 11.5174 16.6978 11.4757 16.6563 11.4757C16.5317 11.3085 16.4487 11.1413 16.3657 10.9741C16.2827 10.7651 16.1582 10.5561 16.0336 10.3471C15.9506 10.2635 15.9091 10.1381 15.8261 10.0545C15.7846 9.97089 15.7016 9.8455 15.5771 9.8037C15.411 9.6783 15.2035 9.6365 15.0375 9.7201L14.9545 9.6783C14.7469 9.8455 14.6224 10.0545 14.5394 10.3053C14.2903 10.9323 14.0828 11.5592 13.9168 12.228L13.8338 12.6042L13.0866 15.0704L10.8452 10.7233Z" fill="url(#paint20_linear_10641_218557)"/>
<path d="M19.2297 7.96467C19.1052 7.96467 18.9392 8.00647 18.8146 8.00647C19.1467 8.50806 19.4373 9.00964 19.6448 9.55303C19.7278 9.80382 19.8108 10.0546 19.8108 10.3054C19.8108 10.5562 19.7693 10.7652 19.6863 11.016C19.5618 11.225 19.4373 11.434 19.3127 11.6012C19.1467 11.7684 18.9392 11.9356 18.7316 11.9774C18.5241 12.061 18.275 12.1028 18.026 12.1028C17.6939 12.1028 17.4034 12.0192 17.1128 11.852L16.9468 12.5625C16.8223 13.1059 16.6147 13.6075 16.3657 14.1091C16.2412 14.4017 16.0751 14.6943 15.9091 14.9869C15.7846 15.1541 15.6186 15.3213 15.411 15.4049C15.328 15.4049 15.245 15.4467 15.2035 15.4467C15.1205 15.4467 15.0375 15.4049 14.9544 15.3631C14.8299 15.2377 14.7054 15.1123 14.6224 14.9451C14.5394 14.7779 14.4564 14.6107 14.3733 14.4017C14.2073 14.0255 13.9583 13.0641 13.9583 13.0641L13.7092 12.061L13.4602 11.0578L13.2941 10.389C13.0866 9.46943 12.713 8.59165 12.1734 7.79748C11.6754 7.0451 10.9282 6.50171 10.0981 6.20912C9.47546 6.00012 8.76983 5.95833 8.10571 6.04192C6.9435 6.29272 5.94732 7.0033 5.2832 8.00647C5.44923 8.04827 5.61526 8.13187 5.78129 8.21546C5.98883 8.34086 6.15486 8.50806 6.27938 8.67525C6.48692 9.05144 6.61144 9.42763 6.61144 9.84562C6.69446 10.7234 6.86049 11.643 7.10953 12.4789C7.35858 11.5176 7.77365 10.6398 8.31325 9.80382C8.39626 9.72022 8.47928 9.63662 8.56229 9.55303C8.6038 9.51123 8.68682 9.51123 8.72832 9.51123C8.85285 9.51123 8.93586 9.55303 9.01888 9.59483C9.06038 9.59483 9.06038 9.63663 9.06038 9.63663C9.1434 9.72022 9.22641 9.80382 9.30943 9.88742C9.43395 10.1382 9.55847 10.389 9.68299 10.6398C9.89053 11.225 10.0566 11.9356 10.0566 11.9356L10.5547 13.9837C10.7207 14.6943 10.9697 15.4049 11.2603 16.0736C12.0489 17.9128 13.2526 18.4144 13.2526 18.4144C13.8337 18.707 14.4979 18.916 15.162 18.916C15.7846 18.9578 16.4487 18.7906 16.9883 18.5398C17.6109 18.2054 18.1505 17.7874 18.6071 17.244C18.8561 16.8678 19.1052 16.4916 19.3127 16.0736C19.8108 15.1123 20.1429 14.1091 20.4334 13.0641C20.5995 12.4371 20.7655 11.7684 20.8485 11.0996C20.89 10.7652 20.9315 10.4726 20.973 10.1382C21.0145 9.84562 21.0145 9.51123 20.9315 9.21864C20.89 9.17684 20.89 9.13504 20.89 9.05144C20.724 8.67525 20.4749 8.34086 20.1014 8.13187C19.8523 8.04827 19.5203 7.96467 19.2297 7.96467Z" fill="url(#paint21_linear_10641_218557)"/>
<path d="M19.2297 7.96467C19.1052 7.96467 18.9392 8.00647 18.8146 8.00647C19.1467 8.50806 19.4373 9.00964 19.6448 9.55303C19.7278 9.80382 19.8108 10.0546 19.8108 10.3054C19.8108 10.5562 19.7693 10.7652 19.6863 11.016C19.5618 11.225 19.4373 11.434 19.3127 11.6012C19.1467 11.7684 18.9392 11.9356 18.7316 11.9774C18.5241 12.061 18.275 12.1028 18.026 12.1028C17.6939 12.1028 17.4034 12.0192 17.1128 11.852L16.9468 12.5625C16.8223 13.1059 16.6147 13.6075 16.3657 14.1091C16.2412 14.4017 16.0751 14.6943 15.9091 14.9869C15.7846 15.1541 15.6186 15.3213 15.411 15.4049C15.328 15.4049 15.245 15.4467 15.2035 15.4467C15.1205 15.4467 15.0375 15.4049 14.9544 15.3631C14.8299 15.2377 14.7054 15.1123 14.6224 14.9451C14.5394 14.7779 14.4564 14.6107 14.3733 14.4017C14.2073 14.0255 13.9583 13.0641 13.9583 13.0641L13.7092 12.061L13.4602 11.0578L13.2941 10.389C13.0866 9.46943 12.713 8.59165 12.1734 7.79748C11.6754 7.0451 10.9282 6.50171 10.0981 6.20912C9.47546 6.00012 8.76983 5.95833 8.10571 6.04192C6.9435 6.29272 5.94732 7.0033 5.2832 8.00647C5.44923 8.04827 5.61526 8.13187 5.78129 8.21546C5.98883 8.34086 6.15486 8.50806 6.27938 8.67525C6.48692 9.05144 6.61144 9.42763 6.61144 9.84562C6.69446 10.7234 6.86049 11.643 7.10953 12.4789C7.35858 11.5176 7.77365 10.6398 8.31325 9.80382C8.39626 9.72022 8.47928 9.63662 8.56229 9.55303C8.6038 9.51123 8.68682 9.51123 8.72832 9.51123C8.85285 9.51123 8.93586 9.55303 9.01888 9.59483C9.06038 9.59483 9.06038 9.63663 9.06038 9.63663C9.1434 9.72022 9.22641 9.80382 9.30943 9.88742C9.43395 10.1382 9.55847 10.389 9.68299 10.6398C9.89053 11.225 10.0566 11.9356 10.0566 11.9356L10.5547 13.9837C10.7207 14.6943 10.9697 15.4049 11.2603 16.0736C12.0489 17.9128 13.2526 18.4144 13.2526 18.4144C13.8337 18.707 14.4979 18.916 15.162 18.916C15.7846 18.9578 16.4487 18.7906 16.9883 18.5398C17.6109 18.2054 18.1505 17.7874 18.6071 17.244C18.8561 16.8678 19.1052 16.4916 19.3127 16.0736C19.8108 15.1123 20.1429 14.1091 20.4334 13.0641C20.5995 12.4371 20.7655 11.7684 20.8485 11.0996C20.89 10.7652 20.9315 10.4726 20.973 10.1382C21.0145 9.84562 21.0145 9.51123 20.9315 9.21864C20.89 9.17684 20.89 9.13504 20.89 9.05144C20.724 8.67525 20.4749 8.34086 20.1014 8.13187C19.8523 8.04827 19.5203 7.96467 19.2297 7.96467Z" fill="url(#paint22_radial_10641_218557)"/>
<path d="M19.2297 7.96467C19.1052 7.96467 18.9392 8.00647 18.8146 8.00647C19.1467 8.50806 19.4373 9.00964 19.6448 9.55303C19.7278 9.80382 19.8108 10.0546 19.8108 10.3054C19.8108 10.5562 19.7693 10.7652 19.6863 11.016C19.5618 11.225 19.4373 11.434 19.3127 11.6012C19.1467 11.7684 18.9392 11.9356 18.7316 11.9774C18.5241 12.061 18.275 12.1028 18.026 12.1028C17.6939 12.1028 17.4034 12.0192 17.1128 11.852L16.9468 12.5625C16.8223 13.1059 16.6147 13.6075 16.3657 14.1091C16.2412 14.4017 16.0751 14.6943 15.9091 14.9869C15.7846 15.1541 15.6186 15.3213 15.411 15.4049C15.328 15.4049 15.245 15.4467 15.2035 15.4467C15.1205 15.4467 15.0375 15.4049 14.9544 15.3631C14.8299 15.2377 14.7054 15.1123 14.6224 14.9451C14.5394 14.7779 14.4564 14.6107 14.3733 14.4017C14.2073 14.0255 13.9583 13.0641 13.9583 13.0641L13.7092 12.061L13.4602 11.0578L13.2941 10.389C13.0866 9.46943 12.713 8.59165 12.1734 7.79748C11.6754 7.0451 10.9282 6.50171 10.0981 6.20912C9.47546 6.00012 8.76983 5.95833 8.10571 6.04192C6.9435 6.29272 5.94732 7.0033 5.2832 8.00647C5.44923 8.04827 5.61526 8.13187 5.78129 8.21546C5.98883 8.34086 6.15486 8.50806 6.27938 8.67525C6.48692 9.05144 6.61144 9.42763 6.61144 9.84562C6.69446 10.7234 6.86049 11.643 7.10953 12.4789C7.35858 11.5176 7.77365 10.6398 8.31325 9.80382C8.39626 9.72022 8.47928 9.63662 8.56229 9.55303C8.6038 9.51123 8.68682 9.51123 8.72832 9.51123C8.85285 9.51123 8.93586 9.55303 9.01888 9.59483C9.06038 9.59483 9.06038 9.63663 9.06038 9.63663C9.1434 9.72022 9.22641 9.80382 9.30943 9.88742C9.43395 10.1382 9.55847 10.389 9.68299 10.6398C9.89053 11.225 10.0566 11.9356 10.0566 11.9356L10.5547 13.9837C10.7207 14.6943 10.9697 15.4049 11.2603 16.0736C12.0489 17.9128 13.2526 18.4144 13.2526 18.4144C13.8337 18.707 14.4979 18.916 15.162 18.916C15.7846 18.9578 16.4487 18.7906 16.9883 18.5398C17.6109 18.2054 18.1505 17.7874 18.6071 17.244C18.8561 16.8678 19.1052 16.4916 19.3127 16.0736C19.8108 15.1123 20.1429 14.1091 20.4334 13.0641C20.5995 12.4371 20.7655 11.7684 20.8485 11.0996C20.89 10.7652 20.9315 10.4726 20.973 10.1382C21.0145 9.84562 21.0145 9.51123 20.9315 9.21864C20.89 9.17684 20.89 9.13504 20.89 9.05144C20.724 8.67525 20.4749 8.34086 20.1014 8.13187C19.8523 8.04827 19.5203 7.96467 19.2297 7.96467Z" fill="url(#paint23_radial_10641_218557)"/>
<path d="M19.2297 7.96467C19.1052 7.96467 18.9392 8.00647 18.8146 8.00647C19.1467 8.50806 19.4373 9.00964 19.6448 9.55303C19.7278 9.80382 19.8108 10.0546 19.8108 10.3054C19.8108 10.5562 19.7693 10.7652 19.6863 11.016C19.5618 11.225 19.4373 11.434 19.3127 11.6012C19.1467 11.7684 18.9392 11.9356 18.7316 11.9774C18.5241 12.061 18.275 12.1028 18.026 12.1028C17.6939 12.1028 17.4034 12.0192 17.1128 11.852L16.9468 12.5625C16.8223 13.1059 16.6147 13.6075 16.3657 14.1091C16.2412 14.4017 16.0751 14.6943 15.9091 14.9869C15.7846 15.1541 15.6186 15.3213 15.411 15.4049C15.328 15.4049 15.245 15.4467 15.2035 15.4467C15.1205 15.4467 15.0375 15.4049 14.9544 15.3631C14.8299 15.2377 14.7054 15.1123 14.6224 14.9451C14.5394 14.7779 14.4564 14.6107 14.3733 14.4017C14.2073 14.0255 13.9583 13.0641 13.9583 13.0641L13.7092 12.061L13.4602 11.0578L13.2941 10.389C13.0866 9.46943 12.713 8.59165 12.1734 7.79748C11.6754 7.0451 10.9282 6.50171 10.0981 6.20912C9.47546 6.00012 8.76983 5.95833 8.10571 6.04192C6.9435 6.29272 5.94732 7.0033 5.2832 8.00647C5.44923 8.04827 5.61526 8.13187 5.78129 8.21546C5.98883 8.34086 6.15486 8.50806 6.27938 8.67525C6.48692 9.05144 6.61144 9.42763 6.61144 9.84562C6.69446 10.7234 6.86049 11.643 7.10953 12.4789C7.35858 11.5176 7.77365 10.6398 8.31325 9.80382C8.39626 9.72022 8.47928 9.63662 8.56229 9.55303C8.6038 9.51123 8.68682 9.51123 8.72832 9.51123C8.85285 9.51123 8.93586 9.55303 9.01888 9.59483C9.06038 9.59483 9.06038 9.63663 9.06038 9.63663C9.1434 9.72022 9.22641 9.80382 9.30943 9.88742C9.43395 10.1382 9.55847 10.389 9.68299 10.6398C9.89053 11.225 10.0566 11.9356 10.0566 11.9356L10.5547 13.9837C10.7207 14.6943 10.9697 15.4049 11.2603 16.0736C12.0489 17.9128 13.2526 18.4144 13.2526 18.4144C13.8337 18.707 14.4979 18.916 15.162 18.916C15.7846 18.9578 16.4487 18.7906 16.9883 18.5398C17.6109 18.2054 18.1505 17.7874 18.6071 17.244C18.8561 16.8678 19.1052 16.4916 19.3127 16.0736C19.8108 15.1123 20.1429 14.1091 20.4334 13.0641C20.5995 12.4371 20.7655 11.7684 20.8485 11.0996C20.89 10.7652 20.9315 10.4726 20.973 10.1382C21.0145 9.84562 21.0145 9.51123 20.9315 9.21864C20.89 9.17684 20.89 9.13504 20.89 9.05144C20.724 8.67525 20.4749 8.34086 20.1014 8.13187C19.8523 8.04827 19.5203 7.96467 19.2297 7.96467Z" fill="url(#paint24_radial_10641_218557)"/>
<path d="M19.2297 7.96467C19.1052 7.96467 18.9392 8.00647 18.8146 8.00647C19.1467 8.50806 19.4373 9.00964 19.6448 9.55303C19.7278 9.80382 19.8108 10.0546 19.8108 10.3054C19.8108 10.5562 19.7693 10.7652 19.6863 11.016C19.5618 11.225 19.4373 11.434 19.3127 11.6012C19.1467 11.7684 18.9392 11.9356 18.7316 11.9774C18.5241 12.061 18.275 12.1028 18.026 12.1028C17.6939 12.1028 17.4034 12.0192 17.1128 11.852L16.9468 12.5625C16.8223 13.1059 16.6147 13.6075 16.3657 14.1091C16.2412 14.4017 16.0751 14.6943 15.9091 14.9869C15.7846 15.1541 15.6186 15.3213 15.411 15.4049C15.328 15.4049 15.245 15.4467 15.2035 15.4467C15.1205 15.4467 15.0375 15.4049 14.9544 15.3631C14.8299 15.2377 14.7054 15.1123 14.6224 14.9451C14.5394 14.7779 14.4564 14.6107 14.3733 14.4017C14.2073 14.0255 13.9583 13.0641 13.9583 13.0641L13.7092 12.061L13.4602 11.0578L13.2941 10.389C13.0866 9.46943 12.713 8.59165 12.1734 7.79748C11.6754 7.0451 10.9282 6.50171 10.0981 6.20912C9.47546 6.00012 8.76983 5.95833 8.10571 6.04192C6.9435 6.29272 5.94732 7.0033 5.2832 8.00647C5.44923 8.04827 5.61526 8.13187 5.78129 8.21546C5.98883 8.34086 6.15486 8.50806 6.27938 8.67525C6.48692 9.05144 6.61144 9.42763 6.61144 9.84562C6.69446 10.7234 6.86049 11.643 7.10953 12.4789C7.35858 11.5176 7.77365 10.6398 8.31325 9.80382C8.39626 9.72022 8.47928 9.63662 8.56229 9.55303C8.6038 9.51123 8.68682 9.51123 8.72832 9.51123C8.85285 9.51123 8.93586 9.55303 9.01888 9.59483C9.06038 9.59483 9.06038 9.63663 9.06038 9.63663C9.1434 9.72022 9.22641 9.80382 9.30943 9.88742C9.43395 10.1382 9.55847 10.389 9.68299 10.6398C9.89053 11.225 10.0566 11.9356 10.0566 11.9356L10.5547 13.9837C10.7207 14.6943 10.9697 15.4049 11.2603 16.0736C12.0489 17.9128 13.2526 18.4144 13.2526 18.4144C13.8337 18.707 14.4979 18.916 15.162 18.916C15.7846 18.9578 16.4487 18.7906 16.9883 18.5398C17.6109 18.2054 18.1505 17.7874 18.6071 17.244C18.8561 16.8678 19.1052 16.4916 19.3127 16.0736C19.8108 15.1123 20.1429 14.1091 20.4334 13.0641C20.5995 12.4371 20.7655 11.7684 20.8485 11.0996C20.89 10.7652 20.9315 10.4726 20.973 10.1382C21.0145 9.84562 21.0145 9.51123 20.9315 9.21864C20.89 9.17684 20.89 9.13504 20.89 9.05144C20.724 8.67525 20.4749 8.34086 20.1014 8.13187C19.8523 8.04827 19.5203 7.96467 19.2297 7.96467Z" fill="url(#paint25_radial_10641_218557)"/>
<path d="M19.2297 7.96467C19.1052 7.96467 18.9392 8.00647 18.8146 8.00647C19.1467 8.50806 19.4373 9.00964 19.6448 9.55303C19.7278 9.80382 19.8108 10.0546 19.8108 10.3054C19.8108 10.5562 19.7693 10.7652 19.6863 11.016C19.5618 11.225 19.4373 11.434 19.3127 11.6012C19.1467 11.7684 18.9392 11.9356 18.7316 11.9774C18.5241 12.061 18.275 12.1028 18.026 12.1028C17.6939 12.1028 17.4034 12.0192 17.1128 11.852L16.9468 12.5625C16.8223 13.1059 16.6147 13.6075 16.3657 14.1091C16.2412 14.4017 16.0751 14.6943 15.9091 14.9869C15.7846 15.1541 15.6186 15.3213 15.411 15.4049C15.328 15.4049 15.245 15.4467 15.2035 15.4467C15.1205 15.4467 15.0375 15.4049 14.9544 15.3631C14.8299 15.2377 14.7054 15.1123 14.6224 14.9451C14.5394 14.7779 14.4564 14.6107 14.3733 14.4017C14.2073 14.0255 13.9583 13.0641 13.9583 13.0641L13.7092 12.061L13.4602 11.0578L13.2941 10.389C13.0866 9.46943 12.713 8.59165 12.1734 7.79748C11.6754 7.0451 10.9282 6.50171 10.0981 6.20912C9.47546 6.00012 8.76983 5.95833 8.10571 6.04192C6.9435 6.29272 5.94732 7.0033 5.2832 8.00647C5.44923 8.04827 5.61526 8.13187 5.78129 8.21546C5.98883 8.34086 6.15486 8.50806 6.27938 8.67525C6.48692 9.05144 6.61144 9.42763 6.61144 9.84562C6.69446 10.7234 6.86049 11.643 7.10953 12.4789C7.35858 11.5176 7.77365 10.6398 8.31325 9.80382C8.39626 9.72022 8.47928 9.63662 8.56229 9.55303C8.6038 9.51123 8.68682 9.51123 8.72832 9.51123C8.85285 9.51123 8.93586 9.55303 9.01888 9.59483C9.06038 9.59483 9.06038 9.63663 9.06038 9.63663C9.1434 9.72022 9.22641 9.80382 9.30943 9.88742C9.43395 10.1382 9.55847 10.389 9.68299 10.6398C9.89053 11.225 10.0566 11.9356 10.0566 11.9356L10.5547 13.9837C10.7207 14.6943 10.9697 15.4049 11.2603 16.0736C12.0489 17.9128 13.2526 18.4144 13.2526 18.4144C13.8337 18.707 14.4979 18.916 15.162 18.916C15.7846 18.9578 16.4487 18.7906 16.9883 18.5398C17.6109 18.2054 18.1505 17.7874 18.6071 17.244C18.8561 16.8678 19.1052 16.4916 19.3127 16.0736C19.8108 15.1123 20.1429 14.1091 20.4334 13.0641C20.5995 12.4371 20.7655 11.7684 20.8485 11.0996C20.89 10.7652 20.9315 10.4726 20.973 10.1382C21.0145 9.84562 21.0145 9.51123 20.9315 9.21864C20.89 9.17684 20.89 9.13504 20.89 9.05144C20.724 8.67525 20.4749 8.34086 20.1014 8.13187C19.8523 8.04827 19.5203 7.96467 19.2297 7.96467Z" fill="url(#paint26_radial_10641_218557)"/>
<path d="M19.2297 7.96467C19.1052 7.96467 18.9392 8.00647 18.8146 8.00647C19.1467 8.50806 19.4373 9.00964 19.6448 9.55303C19.7278 9.80382 19.8108 10.0546 19.8108 10.3054C19.8108 10.5562 19.7693 10.7652 19.6863 11.016C19.5618 11.225 19.4373 11.434 19.3127 11.6012C19.1467 11.7684 18.9392 11.9356 18.7316 11.9774C18.5241 12.061 18.275 12.1028 18.026 12.1028C17.6939 12.1028 17.4034 12.0192 17.1128 11.852L16.9468 12.5625C16.8223 13.1059 16.6147 13.6075 16.3657 14.1091C16.2412 14.4017 16.0751 14.6943 15.9091 14.9869C15.7846 15.1541 15.6186 15.3213 15.411 15.4049C15.328 15.4049 15.245 15.4467 15.2035 15.4467C15.1205 15.4467 15.0375 15.4049 14.9544 15.3631C14.8299 15.2377 14.7054 15.1123 14.6224 14.9451C14.5394 14.7779 14.4564 14.6107 14.3733 14.4017C14.2073 14.0255 13.9583 13.0641 13.9583 13.0641L13.7092 12.061L13.4602 11.0578L13.2941 10.389C13.0866 9.46943 12.713 8.59165 12.1734 7.79748C11.6754 7.0451 10.9282 6.50171 10.0981 6.20912C9.47546 6.00012 8.76983 5.95833 8.10571 6.04192C6.9435 6.29272 5.94732 7.0033 5.2832 8.00647C5.44923 8.04827 5.61526 8.13187 5.78129 8.21546C5.98883 8.34086 6.15486 8.50806 6.27938 8.67525C6.48692 9.05144 6.61144 9.42763 6.61144 9.84562C6.69446 10.7234 6.86049 11.643 7.10953 12.4789C7.35858 11.5176 7.77365 10.6398 8.31325 9.80382C8.39626 9.72022 8.47928 9.63662 8.56229 9.55303C8.6038 9.51123 8.68682 9.51123 8.72832 9.51123C8.85285 9.51123 8.93586 9.55303 9.01888 9.59483C9.06038 9.59483 9.06038 9.63663 9.06038 9.63663C9.1434 9.72022 9.22641 9.80382 9.30943 9.88742C9.43395 10.1382 9.55847 10.389 9.68299 10.6398C9.89053 11.225 10.0566 11.9356 10.0566 11.9356L10.5547 13.9837C10.7207 14.6943 10.9697 15.4049 11.2603 16.0736C12.0489 17.9128 13.2526 18.4144 13.2526 18.4144C13.8337 18.707 14.4979 18.916 15.162 18.916C15.7846 18.9578 16.4487 18.7906 16.9883 18.5398C17.6109 18.2054 18.1505 17.7874 18.6071 17.244C18.8561 16.8678 19.1052 16.4916 19.3127 16.0736C19.8108 15.1123 20.1429 14.1091 20.4334 13.0641C20.5995 12.4371 20.7655 11.7684 20.8485 11.0996C20.89 10.7652 20.9315 10.4726 20.973 10.1382C21.0145 9.84562 21.0145 9.51123 20.9315 9.21864C20.89 9.17684 20.89 9.13504 20.89 9.05144C20.724 8.67525 20.4749 8.34086 20.1014 8.13187C19.8523 8.04827 19.5203 7.96467 19.2297 7.96467Z" fill="url(#paint27_radial_10641_218557)"/>
<path d="M19.2297 7.96467C19.1052 7.96467 18.9392 8.00647 18.8146 8.00647C19.1467 8.50806 19.4373 9.00964 19.6448 9.55303C19.7278 9.80382 19.8108 10.0546 19.8108 10.3054C19.8108 10.5562 19.7693 10.7652 19.6863 11.016C19.5618 11.225 19.4373 11.434 19.3127 11.6012C19.1467 11.7684 18.9392 11.9356 18.7316 11.9774C18.5241 12.061 18.275 12.1028 18.026 12.1028C17.6939 12.1028 17.4034 12.0192 17.1128 11.852L16.9468 12.5625C16.8223 13.1059 16.6147 13.6075 16.3657 14.1091C16.2412 14.4017 16.0751 14.6943 15.9091 14.9869C15.7846 15.1541 15.6186 15.3213 15.411 15.4049C15.328 15.4049 15.245 15.4467 15.2035 15.4467C15.1205 15.4467 15.0375 15.4049 14.9544 15.3631C14.8299 15.2377 14.7054 15.1123 14.6224 14.9451C14.5394 14.7779 14.4564 14.6107 14.3733 14.4017C14.2073 14.0255 13.9583 13.0641 13.9583 13.0641L13.7092 12.061L13.4602 11.0578L13.2941 10.389C13.0866 9.46943 12.713 8.59165 12.1734 7.79748C11.6754 7.0451 10.9282 6.50171 10.0981 6.20912C9.47546 6.00012 8.76983 5.95833 8.10571 6.04192C6.9435 6.29272 5.94732 7.0033 5.2832 8.00647C5.44923 8.04827 5.61526 8.13187 5.78129 8.21546C5.98883 8.34086 6.15486 8.50806 6.27938 8.67525C6.48692 9.05144 6.61144 9.42763 6.61144 9.84562C6.69446 10.7234 6.86049 11.643 7.10953 12.4789C7.35858 11.5176 7.77365 10.6398 8.31325 9.80382C8.39626 9.72022 8.47928 9.63662 8.56229 9.55303C8.6038 9.51123 8.68682 9.51123 8.72832 9.51123C8.85285 9.51123 8.93586 9.55303 9.01888 9.59483C9.06038 9.59483 9.06038 9.63663 9.06038 9.63663C9.1434 9.72022 9.22641 9.80382 9.30943 9.88742C9.43395 10.1382 9.55847 10.389 9.68299 10.6398C9.89053 11.225 10.0566 11.9356 10.0566 11.9356L10.5547 13.9837C10.7207 14.6943 10.9697 15.4049 11.2603 16.0736C12.0489 17.9128 13.2526 18.4144 13.2526 18.4144C13.8337 18.707 14.4979 18.916 15.162 18.916C15.7846 18.9578 16.4487 18.7906 16.9883 18.5398C17.6109 18.2054 18.1505 17.7874 18.6071 17.244C18.8561 16.8678 19.1052 16.4916 19.3127 16.0736C19.8108 15.1123 20.1429 14.1091 20.4334 13.0641C20.5995 12.4371 20.7655 11.7684 20.8485 11.0996C20.89 10.7652 20.9315 10.4726 20.973 10.1382C21.0145 9.84562 21.0145 9.51123 20.9315 9.21864C20.89 9.17684 20.89 9.13504 20.89 9.05144C20.724 8.67525 20.4749 8.34086 20.1014 8.13187C19.8523 8.04827 19.5203 7.96467 19.2297 7.96467Z" fill="url(#paint28_radial_10641_218557)"/>
<path d="M19.2297 7.96467C19.1052 7.96467 18.9392 8.00647 18.8146 8.00647C19.1467 8.50806 19.4373 9.00964 19.6448 9.55303C19.7278 9.80382 19.8108 10.0546 19.8108 10.3054C19.8108 10.5562 19.7693 10.7652 19.6863 11.016C19.5618 11.225 19.4373 11.434 19.3127 11.6012C19.1467 11.7684 18.9392 11.9356 18.7316 11.9774C18.5241 12.061 18.275 12.1028 18.026 12.1028C17.6939 12.1028 17.4034 12.0192 17.1128 11.852L16.9468 12.5625C16.8223 13.1059 16.6147 13.6075 16.3657 14.1091C16.2412 14.4017 16.0751 14.6943 15.9091 14.9869C15.7846 15.1541 15.6186 15.3213 15.411 15.4049C15.328 15.4049 15.245 15.4467 15.2035 15.4467C15.1205 15.4467 15.0375 15.4049 14.9544 15.3631C14.8299 15.2377 14.7054 15.1123 14.6224 14.9451C14.5394 14.7779 14.4564 14.6107 14.3733 14.4017C14.2073 14.0255 13.9583 13.0641 13.9583 13.0641L13.7092 12.061L13.4602 11.0578L13.2941 10.389C13.0866 9.46943 12.713 8.59165 12.1734 7.79748C11.6754 7.0451 10.9282 6.50171 10.0981 6.20912C9.47546 6.00012 8.76983 5.95833 8.10571 6.04192C6.9435 6.29272 5.94732 7.0033 5.2832 8.00647C5.44923 8.04827 5.61526 8.13187 5.78129 8.21546C5.98883 8.34086 6.15486 8.50806 6.27938 8.67525C6.48692 9.05144 6.61144 9.42763 6.61144 9.84562C6.69446 10.7234 6.86049 11.643 7.10953 12.4789C7.35858 11.5176 7.77365 10.6398 8.31325 9.80382C8.39626 9.72022 8.47928 9.63662 8.56229 9.55303C8.6038 9.51123 8.68682 9.51123 8.72832 9.51123C8.85285 9.51123 8.93586 9.55303 9.01888 9.59483C9.06038 9.59483 9.06038 9.63663 9.06038 9.63663C9.1434 9.72022 9.22641 9.80382 9.30943 9.88742C9.43395 10.1382 9.55847 10.389 9.68299 10.6398C9.89053 11.225 10.0566 11.9356 10.0566 11.9356L10.5547 13.9837C10.7207 14.6943 10.9697 15.4049 11.2603 16.0736C12.0489 17.9128 13.2526 18.4144 13.2526 18.4144C13.8337 18.707 14.4979 18.916 15.162 18.916C15.7846 18.9578 16.4487 18.7906 16.9883 18.5398C17.6109 18.2054 18.1505 17.7874 18.6071 17.244C18.8561 16.8678 19.1052 16.4916 19.3127 16.0736C19.8108 15.1123 20.1429 14.1091 20.4334 13.0641C20.5995 12.4371 20.7655 11.7684 20.8485 11.0996C20.89 10.7652 20.9315 10.4726 20.973 10.1382C21.0145 9.84562 21.0145 9.51123 20.9315 9.21864C20.89 9.17684 20.89 9.13504 20.89 9.05144C20.724 8.67525 20.4749 8.34086 20.1014 8.13187C19.8523 8.04827 19.5203 7.96467 19.2297 7.96467Z" fill="url(#paint29_radial_10641_218557)"/>
<path d="M19.2297 7.96467C19.1052 7.96467 18.9392 8.00647 18.8146 8.00647C19.1467 8.50806 19.4373 9.00964 19.6448 9.55303C19.7278 9.80382 19.8108 10.0546 19.8108 10.3054C19.8108 10.5562 19.7693 10.7652 19.6863 11.016C19.5618 11.225 19.4373 11.434 19.3127 11.6012C19.1467 11.7684 18.9392 11.9356 18.7316 11.9774C18.5241 12.061 18.275 12.1028 18.026 12.1028C17.6939 12.1028 17.4034 12.0192 17.1128 11.852L16.9468 12.5625C16.8223 13.1059 16.6147 13.6075 16.3657 14.1091C16.2412 14.4017 16.0751 14.6943 15.9091 14.9869C15.7846 15.1541 15.6186 15.3213 15.411 15.4049C15.328 15.4049 15.245 15.4467 15.2035 15.4467C15.1205 15.4467 15.0375 15.4049 14.9544 15.3631C14.8299 15.2377 14.7054 15.1123 14.6224 14.9451C14.5394 14.7779 14.4564 14.6107 14.3733 14.4017C14.2073 14.0255 13.9583 13.0641 13.9583 13.0641L13.7092 12.061L13.4602 11.0578L13.2941 10.389C13.0866 9.46943 12.713 8.59165 12.1734 7.79748C11.6754 7.0451 10.9282 6.50171 10.0981 6.20912C9.47546 6.00012 8.76983 5.95833 8.10571 6.04192C6.9435 6.29272 5.94732 7.0033 5.2832 8.00647C5.44923 8.04827 5.61526 8.13187 5.78129 8.21546C5.98883 8.34086 6.15486 8.50806 6.27938 8.67525C6.48692 9.05144 6.61144 9.42763 6.61144 9.84562C6.69446 10.7234 6.86049 11.643 7.10953 12.4789C7.35858 11.5176 7.77365 10.6398 8.31325 9.80382C8.39626 9.72022 8.47928 9.63662 8.56229 9.55303C8.6038 9.51123 8.68682 9.51123 8.72832 9.51123C8.85285 9.51123 8.93586 9.55303 9.01888 9.59483C9.06038 9.59483 9.06038 9.63663 9.06038 9.63663C9.1434 9.72022 9.22641 9.80382 9.30943 9.88742C9.43395 10.1382 9.55847 10.389 9.68299 10.6398C9.89053 11.225 10.0566 11.9356 10.0566 11.9356L10.5547 13.9837C10.7207 14.6943 10.9697 15.4049 11.2603 16.0736C12.0489 17.9128 13.2526 18.4144 13.2526 18.4144C13.8337 18.707 14.4979 18.916 15.162 18.916C15.7846 18.9578 16.4487 18.7906 16.9883 18.5398C17.6109 18.2054 18.1505 17.7874 18.6071 17.244C18.8561 16.8678 19.1052 16.4916 19.3127 16.0736C19.8108 15.1123 20.1429 14.1091 20.4334 13.0641C20.5995 12.4371 20.7655 11.7684 20.8485 11.0996C20.89 10.7652 20.9315 10.4726 20.973 10.1382C21.0145 9.84562 21.0145 9.51123 20.9315 9.21864C20.89 9.17684 20.89 9.13504 20.89 9.05144C20.724 8.67525 20.4749 8.34086 20.1014 8.13187C19.8523 8.04827 19.5203 7.96467 19.2297 7.96467Z" fill="url(#paint30_radial_10641_218557)"/>
<path d="M19.2297 7.96467C19.1052 7.96467 18.9392 8.00647 18.8146 8.00647C19.1467 8.50806 19.4373 9.00964 19.6448 9.55303C19.7278 9.80382 19.8108 10.0546 19.8108 10.3054C19.8108 10.5562 19.7693 10.7652 19.6863 11.016C19.5618 11.225 19.4373 11.434 19.3127 11.6012C19.1467 11.7684 18.9392 11.9356 18.7316 11.9774C18.5241 12.061 18.275 12.1028 18.026 12.1028C17.6939 12.1028 17.4034 12.0192 17.1128 11.852L16.9468 12.5625C16.8223 13.1059 16.6147 13.6075 16.3657 14.1091C16.2412 14.4017 16.0751 14.6943 15.9091 14.9869C15.7846 15.1541 15.6186 15.3213 15.411 15.4049C15.328 15.4049 15.245 15.4467 15.2035 15.4467C15.1205 15.4467 15.0375 15.4049 14.9544 15.3631C14.8299 15.2377 14.7054 15.1123 14.6224 14.9451C14.5394 14.7779 14.4564 14.6107 14.3733 14.4017C14.2073 14.0255 13.9583 13.0641 13.9583 13.0641L13.7092 12.061L13.4602 11.0578L13.2941 10.389C13.0866 9.46943 12.713 8.59165 12.1734 7.79748C11.6754 7.0451 10.9282 6.50171 10.0981 6.20912C9.47546 6.00012 8.76983 5.95833 8.10571 6.04192C6.9435 6.29272 5.94732 7.0033 5.2832 8.00647C5.44923 8.04827 5.61526 8.13187 5.78129 8.21546C5.98883 8.34086 6.15486 8.50806 6.27938 8.67525C6.48692 9.05144 6.61144 9.42763 6.61144 9.84562C6.69446 10.7234 6.86049 11.643 7.10953 12.4789C7.35858 11.5176 7.77365 10.6398 8.31325 9.80382C8.39626 9.72022 8.47928 9.63662 8.56229 9.55303C8.6038 9.51123 8.68682 9.51123 8.72832 9.51123C8.85285 9.51123 8.93586 9.55303 9.01888 9.59483C9.06038 9.59483 9.06038 9.63663 9.06038 9.63663C9.1434 9.72022 9.22641 9.80382 9.30943 9.88742C9.43395 10.1382 9.55847 10.389 9.68299 10.6398C9.89053 11.225 10.0566 11.9356 10.0566 11.9356L10.5547 13.9837C10.7207 14.6943 10.9697 15.4049 11.2603 16.0736C12.0489 17.9128 13.2526 18.4144 13.2526 18.4144C13.8337 18.707 14.4979 18.916 15.162 18.916C15.7846 18.9578 16.4487 18.7906 16.9883 18.5398C17.6109 18.2054 18.1505 17.7874 18.6071 17.244C18.8561 16.8678 19.1052 16.4916 19.3127 16.0736C19.8108 15.1123 20.1429 14.1091 20.4334 13.0641C20.5995 12.4371 20.7655 11.7684 20.8485 11.0996C20.89 10.7652 20.9315 10.4726 20.973 10.1382C21.0145 9.84562 21.0145 9.51123 20.9315 9.21864C20.89 9.17684 20.89 9.13504 20.89 9.05144C20.724 8.67525 20.4749 8.34086 20.1014 8.13187C19.8523 8.04827 19.5203 7.96467 19.2297 7.96467Z" fill="url(#paint31_radial_10641_218557)"/>
<path d="M19.2297 7.96467C19.1052 7.96467 18.9392 8.00647 18.8146 8.00647C19.1467 8.50806 19.4373 9.00964 19.6448 9.55303C19.7278 9.80382 19.8108 10.0546 19.8108 10.3054C19.8108 10.5562 19.7693 10.7652 19.6863 11.016C19.5618 11.225 19.4373 11.434 19.3127 11.6012C19.1467 11.7684 18.9392 11.9356 18.7316 11.9774C18.5241 12.061 18.275 12.1028 18.026 12.1028C17.6939 12.1028 17.4034 12.0192 17.1128 11.852L16.9468 12.5625C16.8223 13.1059 16.6147 13.6075 16.3657 14.1091C16.2412 14.4017 16.0751 14.6943 15.9091 14.9869C15.7846 15.1541 15.6186 15.3213 15.411 15.4049C15.328 15.4049 15.245 15.4467 15.2035 15.4467C15.1205 15.4467 15.0375 15.4049 14.9544 15.3631C14.8299 15.2377 14.7054 15.1123 14.6224 14.9451C14.5394 14.7779 14.4564 14.6107 14.3733 14.4017C14.2073 14.0255 13.9583 13.0641 13.9583 13.0641L13.7092 12.061L13.4602 11.0578L13.2941 10.389C13.0866 9.46943 12.713 8.59165 12.1734 7.79748C11.6754 7.0451 10.9282 6.50171 10.0981 6.20912C9.47546 6.00012 8.76983 5.95833 8.10571 6.04192C6.9435 6.29272 5.94732 7.0033 5.2832 8.00647C5.44923 8.04827 5.61526 8.13187 5.78129 8.21546C5.98883 8.34086 6.15486 8.50806 6.27938 8.67525C6.48692 9.05144 6.61144 9.42763 6.61144 9.84562C6.69446 10.7234 6.86049 11.643 7.10953 12.4789C7.35858 11.5176 7.77365 10.6398 8.31325 9.80382C8.39626 9.72022 8.47928 9.63662 8.56229 9.55303C8.6038 9.51123 8.68682 9.51123 8.72832 9.51123C8.85285 9.51123 8.93586 9.55303 9.01888 9.59483C9.06038 9.59483 9.06038 9.63663 9.06038 9.63663C9.1434 9.72022 9.22641 9.80382 9.30943 9.88742C9.43395 10.1382 9.55847 10.389 9.68299 10.6398C9.89053 11.225 10.0566 11.9356 10.0566 11.9356L10.5547 13.9837C10.7207 14.6943 10.9697 15.4049 11.2603 16.0736C12.0489 17.9128 13.2526 18.4144 13.2526 18.4144C13.8337 18.707 14.4979 18.916 15.162 18.916C15.7846 18.9578 16.4487 18.7906 16.9883 18.5398C17.6109 18.2054 18.1505 17.7874 18.6071 17.244C18.8561 16.8678 19.1052 16.4916 19.3127 16.0736C19.8108 15.1123 20.1429 14.1091 20.4334 13.0641C20.5995 12.4371 20.7655 11.7684 20.8485 11.0996C20.89 10.7652 20.9315 10.4726 20.973 10.1382C21.0145 9.84562 21.0145 9.51123 20.9315 9.21864C20.89 9.17684 20.89 9.13504 20.89 9.05144C20.724 8.67525 20.4749 8.34086 20.1014 8.13187C19.8523 8.04827 19.5203 7.96467 19.2297 7.96467Z" fill="url(#paint32_radial_10641_218557)"/>
<path d="M19.2297 7.96467C19.1052 7.96467 18.9392 8.00647 18.8146 8.00647C19.1467 8.50806 19.4373 9.00964 19.6448 9.55303C19.7278 9.80382 19.8108 10.0546 19.8108 10.3054C19.8108 10.5562 19.7693 10.7652 19.6863 11.016C19.5618 11.225 19.4373 11.434 19.3127 11.6012C19.1467 11.7684 18.9392 11.9356 18.7316 11.9774C18.5241 12.061 18.275 12.1028 18.026 12.1028C17.6939 12.1028 17.4034 12.0192 17.1128 11.852L16.9468 12.5625C16.8223 13.1059 16.6147 13.6075 16.3657 14.1091C16.2412 14.4017 16.0751 14.6943 15.9091 14.9869C15.7846 15.1541 15.6186 15.3213 15.411 15.4049C15.328 15.4049 15.245 15.4467 15.2035 15.4467C15.1205 15.4467 15.0375 15.4049 14.9544 15.3631C14.8299 15.2377 14.7054 15.1123 14.6224 14.9451C14.5394 14.7779 14.4564 14.6107 14.3733 14.4017C14.2073 14.0255 13.9583 13.0641 13.9583 13.0641L13.7092 12.061L13.4602 11.0578L13.2941 10.389C13.0866 9.46943 12.713 8.59165 12.1734 7.79748C11.6754 7.0451 10.9282 6.50171 10.0981 6.20912C9.47546 6.00012 8.76983 5.95833 8.10571 6.04192C6.9435 6.29272 5.94732 7.0033 5.2832 8.00647C5.44923 8.04827 5.61526 8.13187 5.78129 8.21546C5.98883 8.34086 6.15486 8.50806 6.27938 8.67525C6.48692 9.05144 6.61144 9.42763 6.61144 9.84562C6.69446 10.7234 6.86049 11.643 7.10953 12.4789C7.35858 11.5176 7.77365 10.6398 8.31325 9.80382C8.39626 9.72022 8.47928 9.63662 8.56229 9.55303C8.6038 9.51123 8.68682 9.51123 8.72832 9.51123C8.85285 9.51123 8.93586 9.55303 9.01888 9.59483C9.06038 9.59483 9.06038 9.63663 9.06038 9.63663C9.1434 9.72022 9.22641 9.80382 9.30943 9.88742C9.43395 10.1382 9.55847 10.389 9.68299 10.6398C9.89053 11.225 10.0566 11.9356 10.0566 11.9356L10.5547 13.9837C10.7207 14.6943 10.9697 15.4049 11.2603 16.0736C12.0489 17.9128 13.2526 18.4144 13.2526 18.4144C13.8337 18.707 14.4979 18.916 15.162 18.916C15.7846 18.9578 16.4487 18.7906 16.9883 18.5398C17.6109 18.2054 18.1505 17.7874 18.6071 17.244C18.8561 16.8678 19.1052 16.4916 19.3127 16.0736C19.8108 15.1123 20.1429 14.1091 20.4334 13.0641C20.5995 12.4371 20.7655 11.7684 20.8485 11.0996C20.89 10.7652 20.9315 10.4726 20.973 10.1382C21.0145 9.84562 21.0145 9.51123 20.9315 9.21864C20.89 9.17684 20.89 9.13504 20.89 9.05144C20.724 8.67525 20.4749 8.34086 20.1014 8.13187C19.8523 8.04827 19.5203 7.96467 19.2297 7.96467Z" fill="url(#paint33_radial_10641_218557)"/>
<path d="M19.2297 7.96467C19.1052 7.96467 18.9392 8.00647 18.8146 8.00647C19.1467 8.50806 19.4373 9.00964 19.6448 9.55303C19.7278 9.80382 19.8108 10.0546 19.8108 10.3054C19.8108 10.5562 19.7693 10.7652 19.6863 11.016C19.5618 11.225 19.4373 11.434 19.3127 11.6012C19.1467 11.7684 18.9392 11.9356 18.7316 11.9774C18.5241 12.061 18.275 12.1028 18.026 12.1028C17.6939 12.1028 17.4034 12.0192 17.1128 11.852L16.9468 12.5625C16.8223 13.1059 16.6147 13.6075 16.3657 14.1091C16.2412 14.4017 16.0751 14.6943 15.9091 14.9869C15.7846 15.1541 15.6186 15.3213 15.411 15.4049C15.328 15.4049 15.245 15.4467 15.2035 15.4467C15.1205 15.4467 15.0375 15.4049 14.9544 15.3631C14.8299 15.2377 14.7054 15.1123 14.6224 14.9451C14.5394 14.7779 14.4564 14.6107 14.3733 14.4017C14.2073 14.0255 13.9583 13.0641 13.9583 13.0641L13.7092 12.061L13.4602 11.0578L13.2941 10.389C13.0866 9.46943 12.713 8.59165 12.1734 7.79748C11.6754 7.0451 10.9282 6.50171 10.0981 6.20912C9.47546 6.00012 8.76983 5.95833 8.10571 6.04192C6.9435 6.29272 5.94732 7.0033 5.2832 8.00647C5.44923 8.04827 5.61526 8.13187 5.78129 8.21546C5.98883 8.34086 6.15486 8.50806 6.27938 8.67525C6.48692 9.05144 6.61144 9.42763 6.61144 9.84562C6.69446 10.7234 6.86049 11.643 7.10953 12.4789C7.35858 11.5176 7.77365 10.6398 8.31325 9.80382C8.39626 9.72022 8.47928 9.63662 8.56229 9.55303C8.6038 9.51123 8.68682 9.51123 8.72832 9.51123C8.85285 9.51123 8.93586 9.55303 9.01888 9.59483C9.06038 9.59483 9.06038 9.63663 9.06038 9.63663C9.1434 9.72022 9.22641 9.80382 9.30943 9.88742C9.43395 10.1382 9.55847 10.389 9.68299 10.6398C9.89053 11.225 10.0566 11.9356 10.0566 11.9356L10.5547 13.9837C10.7207 14.6943 10.9697 15.4049 11.2603 16.0736C12.0489 17.9128 13.2526 18.4144 13.2526 18.4144C13.8337 18.707 14.4979 18.916 15.162 18.916C15.7846 18.9578 16.4487 18.7906 16.9883 18.5398C17.6109 18.2054 18.1505 17.7874 18.6071 17.244C18.8561 16.8678 19.1052 16.4916 19.3127 16.0736C19.8108 15.1123 20.1429 14.1091 20.4334 13.0641C20.5995 12.4371 20.7655 11.7684 20.8485 11.0996C20.89 10.7652 20.9315 10.4726 20.973 10.1382C21.0145 9.84562 21.0145 9.51123 20.9315 9.21864C20.89 9.17684 20.89 9.13504 20.89 9.05144C20.724 8.67525 20.4749 8.34086 20.1014 8.13187C19.8523 8.04827 19.5203 7.96467 19.2297 7.96467Z" fill="url(#paint34_linear_10641_218557)"/>
<defs>
<linearGradient id="paint0_linear_10641_218557" x1="3.7908" y1="14.7812" x2="17.8353" y2="9.14392" gradientUnits="userSpaceOnUse">
<stop offset="0.13" stop-color="#1CBBF3"/>
<stop offset="0.34" stop-color="#1F99A5"/>
<stop offset="0.45" stop-color="#209CA6"/>
<stop offset="0.51" stop-color="#24A4AA"/>
<stop offset="0.57" stop-color="#2BB3B0"/>
<stop offset="0.6" stop-color="#30BDB4"/>
<stop offset="0.79" stop-color="#38BA90"/>
<stop offset="1" stop-color="#60F05A"/>
</linearGradient>
<radialGradient id="paint1_radial_10641_218557" cx="0" cy="0" r="1" gradientUnits="userSpaceOnUse" gradientTransform="translate(13.0853 11.3165) rotate(74.4289) scale(6.78755 5.12653)">
<stop stop-color="#227B60"/>
<stop offset="0.14" stop-color="#227B60" stop-opacity="0.81"/>
<stop offset="0.58" stop-color="#227B60" stop-opacity="0.23"/>
<stop offset="0.78" stop-color="#227B60" stop-opacity="0"/>
</radialGradient>
<radialGradient id="paint2_radial_10641_218557" cx="0" cy="0" r="1" gradientUnits="userSpaceOnUse" gradientTransform="translate(13.9575 11.0829) rotate(91.1243) scale(4.59048 3.46459)">
<stop stop-color="#227B60"/>
<stop offset="0.25" stop-color="#227B60" stop-opacity="0.7"/>
<stop offset="0.71" stop-color="#227B60" stop-opacity="0.2"/>
<stop offset="0.92" stop-color="#227B60" stop-opacity="0"/>
</radialGradient>
<radialGradient id="paint3_radial_10641_218557" cx="0" cy="0" r="1" gradientUnits="userSpaceOnUse" gradientTransform="translate(13.8628 10.9051) rotate(88.6218) scale(4.27985 3.01703)">
<stop stop-color="#227B60"/>
<stop offset="0.07" stop-color="#227B60" stop-opacity="0.9"/>
<stop offset="0.34" stop-color="#227B60" stop-opacity="0.51"/>
<stop offset="0.59" stop-color="#227B60" stop-opacity="0.23"/>
<stop offset="0.79" stop-color="#227B60" stop-opacity="0.06"/>
<stop offset="0.92" stop-color="#227B60" stop-opacity="0"/>
</radialGradient>
<radialGradient id="paint4_radial_10641_218557" cx="0" cy="0" r="1" gradientUnits="userSpaceOnUse" gradientTransform="translate(14.1612 11.0583) rotate(88.5917) scale(3.45555 2.4378)">
<stop stop-color="#227B60"/>
<stop offset="0.36" stop-color="#227B60" stop-opacity="0.63"/>
<stop offset="0.92" stop-color="#227B60" stop-opacity="0"/>
</radialGradient>
<radialGradient id="paint5_radial_10641_218557" cx="0" cy="0" r="1" gradientUnits="userSpaceOnUse" gradientTransform="translate(13.8202 10.939) rotate(88.6086) scale(2.75561 1.75051)">
<stop stop-color="#20735A"/>
<stop offset="0.15" stop-color="#20745A" stop-opacity="0.93"/>
<stop offset="0.38" stop-color="#21755C" stop-opacity="0.74"/>
<stop offset="0.67" stop-color="#21785D" stop-opacity="0.43"/>
<stop offset="1" stop-color="#227B60" stop-opacity="0"/>
</radialGradient>
<radialGradient id="paint6_radial_10641_218557" cx="0" cy="0" r="1" gradientUnits="userSpaceOnUse" gradientTransform="translate(14.4644 11.6204) rotate(23.9579) scale(4.40999 3.32164)">
<stop stop-color="#227A61"/>
<stop offset="0.36" stop-color="#227A61" stop-opacity="0.56"/>
<stop offset="0.72" stop-color="#227A61" stop-opacity="0.16"/>
<stop offset="0.9" stop-color="#227A61" stop-opacity="0"/>
</radialGradient>
<radialGradient id="paint7_radial_10641_218557" cx="0" cy="0" r="1" gradientUnits="userSpaceOnUse" gradientTransform="translate(13.1081 4.30936) rotate(35.4671) scale(5.88664 5.3959)">
<stop stop-color="#3CD9C3"/>
<stop offset="0.07" stop-color="#3BD7C1" stop-opacity="0.9"/>
<stop offset="0.41" stop-color="#38CEB9" stop-opacity="0.42"/>
<stop offset="0.65" stop-color="#36C8B4" stop-opacity="0.12"/>
<stop offset="0.76" stop-color="#35C6B2" stop-opacity="0"/>
</radialGradient>
<radialGradient id="paint8_radial_10641_218557" cx="0" cy="0" r="1" gradientUnits="userSpaceOnUse" gradientTransform="translate(-9558.17 -13089.1) rotate(35.4616) scale(1045.98 735.715)">
<stop stop-color="#3CD9C3"/>
<stop offset="0.07" stop-color="#3BD7C1" stop-opacity="0.9"/>
<stop offset="0.41" stop-color="#38CEB9" stop-opacity="0.42"/>
<stop offset="0.65" stop-color="#36C8B4" stop-opacity="0.12"/>
<stop offset="0.76" stop-color="#35C6B2" stop-opacity="0"/>
</radialGradient>
<radialGradient id="paint9_radial_10641_218557" cx="0" cy="0" r="1" gradientUnits="userSpaceOnUse" gradientTransform="translate(15.235 12.4549) rotate(100.895) scale(5.21485 6.40281)">
<stop stop-color="#237F66" stop-opacity="0.8"/>
<stop offset="0.06" stop-color="#2C8C70" stop-opacity="0.65"/>
<stop offset="0.21" stop-color="#3DA785" stop-opacity="0.37"/>
<stop offset="0.35" stop-color="#4ABA93" stop-opacity="0.17"/>
<stop offset="0.47" stop-color="#51C59C" stop-opacity="0.04"/>
<stop offset="0.56" stop-color="#54C99F" stop-opacity="0"/>
</radialGradient>
<radialGradient id="paint10_radial_10641_218557" cx="0" cy="0" r="1" gradientUnits="userSpaceOnUse" gradientTransform="translate(12.4373 12.8275) rotate(-51.0125) scale(6.7982 7.33136)">
<stop stop-color="#167C8A"/>
<stop offset="0.04" stop-color="#167C8A" stop-opacity="0.93"/>
<stop offset="0.33" stop-color="#177F8D" stop-opacity="0.43"/>
<stop offset="0.54" stop-color="#17818F" stop-opacity="0.12"/>
<stop offset="0.65" stop-color="#178290" stop-opacity="0"/>
</radialGradient>
<radialGradient id="paint11_radial_10641_218557" cx="0" cy="0" r="1" gradientUnits="userSpaceOnUse" gradientTransform="translate(12.1828 13.4243) rotate(-31.8439) scale(6.61627 5.24442)">
<stop offset="0.05" stop-color="#177D87"/>
<stop offset="0.11" stop-color="#177E89" stop-opacity="0.8"/>
<stop offset="0.21" stop-color="#177F8B" stop-opacity="0.52"/>
<stop offset="0.32" stop-color="#17818D" stop-opacity="0.29"/>
<stop offset="0.42" stop-color="#17818F" stop-opacity="0.13"/>
<stop offset="0.51" stop-color="#178290" stop-opacity="0.03"/>
<stop offset="0.6" stop-color="#178290" stop-opacity="0"/>
</radialGradient>
<radialGradient id="paint12_radial_10641_218557" cx="0" cy="0" r="1" gradientUnits="userSpaceOnUse" gradientTransform="translate(10.8053 13.3167) rotate(-130.347) scale(3.95117 3.10666)">
<stop offset="0.26" stop-color="#177F8A"/>
<stop offset="0.27" stop-color="#177F8A" stop-opacity="0.98"/>
<stop offset="0.38" stop-color="#17808C" stop-opacity="0.68"/>
<stop offset="0.5" stop-color="#17818D" stop-opacity="0.43"/>
<stop offset="0.62" stop-color="#17818F" stop-opacity="0.24"/>
<stop offset="0.74" stop-color="#17828F" stop-opacity="0.11"/>
<stop offset="0.86" stop-color="#178290" stop-opacity="0.03"/>
<stop offset="1" stop-color="#178290" stop-opacity="0"/>
</radialGradient>
<radialGradient id="paint13_radial_10641_218557" cx="0" cy="0" r="1" gradientUnits="userSpaceOnUse" gradientTransform="translate(9.70868 14.6394) rotate(-173.062) scale(3.69071 3.71587)">
<stop stop-color="#13656E"/>
<stop offset="0.11" stop-color="#13646E" stop-opacity="0.73"/>
<stop offset="0.27" stop-color="#12646E" stop-opacity="0.41"/>
<stop offset="0.42" stop-color="#12636E" stop-opacity="0.18"/>
<stop offset="0.55" stop-color="#12636E" stop-opacity="0.05"/>
<stop offset="0.66" stop-color="#12636E" stop-opacity="0"/>
</radialGradient>
<radialGradient id="paint14_radial_10641_218557" cx="0" cy="0" r="1" gradientUnits="userSpaceOnUse" gradientTransform="translate(9.30636 15.269) rotate(-119.156) scale(2.59361 2.17328)">
<stop offset="0.13" stop-color="#146A73"/>
<stop offset="0.24" stop-color="#156F79" stop-opacity="0.79"/>
<stop offset="0.45" stop-color="#167783" stop-opacity="0.45"/>
<stop offset="0.65" stop-color="#167D8A" stop-opacity="0.2"/>
<stop offset="0.82" stop-color="#17818E" stop-opacity="0.05"/>
<stop offset="0.95" stop-color="#178290" stop-opacity="0"/>
</radialGradient>
<radialGradient id="paint15_radial_10641_218557" cx="0" cy="0" r="1" gradientUnits="userSpaceOnUse" gradientTransform="translate(8.72468 14.0637) rotate(-56.1587) scale(2.43994 1.9285)">
<stop stop-color="#198E9C"/>
<stop offset="0.1" stop-color="#198E9C" stop-opacity="0.87"/>
<stop offset="0.41" stop-color="#198E9C" stop-opacity="0.5"/>
<stop offset="0.67" stop-color="#198E9C" stop-opacity="0.23"/>
<stop offset="0.88" stop-color="#198E9C" stop-opacity="0.06"/>
<stop offset="1" stop-color="#198E9C" stop-opacity="0"/>
</radialGradient>
<linearGradient id="paint16_linear_10641_218557" x1="4.69326" y1="5.70281" x2="10.9178" y2="11.4235" gradientUnits="userSpaceOnUse">
<stop offset="0.13" stop-color="#2BF9FF"/>
<stop offset="0.27" stop-color="#29F9FF" stop-opacity="0.64"/>
<stop offset="0.4" stop-color="#27FAFF" stop-opacity="0.3"/>
<stop offset="0.49" stop-color="#26FAFF" stop-opacity="0.08"/>
<stop offset="0.54" stop-color="#26FAFF" stop-opacity="0"/>
</linearGradient>
<linearGradient id="paint17_linear_10641_218557" x1="1.1911" y1="15.1129" x2="8.42087" y2="13.0788" gradientUnits="userSpaceOnUse">
<stop stop-color="#26FAFF"/>
<stop offset="0.06" stop-color="#26FAFF" stop-opacity="0.88"/>
<stop offset="0.24" stop-color="#26FAFF" stop-opacity="0.51"/>
<stop offset="0.39" stop-color="#26FAFF" stop-opacity="0.23"/>
<stop offset="0.5" stop-color="#26FAFF" stop-opacity="0.06"/>
<stop offset="0.55" stop-color="#26FAFF" stop-opacity="0"/>
</linearGradient>
<linearGradient id="paint18_linear_10641_218557" x1="3.10501" y1="14.8657" x2="11.2574" y2="11.9759" gradientUnits="userSpaceOnUse">
<stop stop-color="#21DEFF"/>
<stop offset="0.04" stop-color="#21DEFF" stop-opacity="0.88"/>
<stop offset="0.17" stop-color="#21DEFF" stop-opacity="0.51"/>
<stop offset="0.27" stop-color="#21DEFF" stop-opacity="0.23"/>
<stop offset="0.34" stop-color="#21DEFF" stop-opacity="0.06"/>
<stop offset="0.38" stop-color="#21DEFF" stop-opacity="0"/>
</linearGradient>
<linearGradient id="paint19_linear_10641_218557" x1="10.8472" y1="10.6232" x2="15.447" y2="18.0723" gradientUnits="userSpaceOnUse">
<stop offset="0.62" stop-color="#21DEFF" stop-opacity="0"/>
<stop offset="0.66" stop-color="#21DEFF" stop-opacity="0.06"/>
<stop offset="0.73" stop-color="#21DEFF" stop-opacity="0.23"/>
<stop offset="0.83" stop-color="#21DEFF" stop-opacity="0.51"/>
<stop offset="0.96" stop-color="#21DEFF" stop-opacity="0.88"/>
<stop offset="1" stop-color="#21DEFF"/>
</linearGradient>
<linearGradient id="paint20_linear_10641_218557" x1="15.9007" y1="13.4252" x2="15.1771" y2="9.90776" gradientUnits="userSpaceOnUse">
<stop stop-color="#44B044"/>
<stop offset="0.11" stop-color="#44B044" stop-opacity="0.8"/>
<stop offset="0.27" stop-color="#44B044" stop-opacity="0.52"/>
<stop offset="0.43" stop-color="#44B044" stop-opacity="0.29"/>
<stop offset="0.58" stop-color="#44B044" stop-opacity="0.13"/>
<stop offset="0.7" stop-color="#44B044" stop-opacity="0.03"/>
<stop offset="0.8" stop-color="#44B044" stop-opacity="0"/>
</linearGradient>
<linearGradient id="paint21_linear_10641_218557" x1="5.91827" y1="9.76206" x2="21.0145" y2="14.7233" gradientUnits="userSpaceOnUse">
<stop stop-color="#3066FB"/>
<stop offset="0.38" stop-color="#2F64F7"/>
<stop offset="0.74" stop-color="#2857D9"/>
<stop offset="1" stop-color="#3C7EFF"/>
</linearGradient>
<radialGradient id="paint22_radial_10641_218557" cx="0" cy="0" r="1" gradientUnits="userSpaceOnUse" gradientTransform="translate(16.352 11.6705) rotate(98.623) scale(8.17015 5.35578)">
<stop stop-color="#1A3D9C"/>
<stop offset="0.4" stop-color="#1A3D9C" stop-opacity="0.42"/>
<stop offset="0.7" stop-color="#1A3D9C" stop-opacity="0"/>
</radialGradient>
<radialGradient id="paint23_radial_10641_218557" cx="0" cy="0" r="1" gradientUnits="userSpaceOnUse" gradientTransform="translate(4906.14 -12747.9) rotate(98.6303) scale(1005.04 538.302)">
<stop stop-color="#1A3D9C"/>
<stop offset="0.4" stop-color="#1A3D9C" stop-opacity="0.42"/>
<stop offset="0.7" stop-color="#1A3D9C" stop-opacity="0"/>
</radialGradient>
<radialGradient id="paint24_radial_10641_218557" cx="0" cy="0" r="1" gradientUnits="userSpaceOnUse" gradientTransform="translate(4307.56 -12940.8) rotate(98.5564) scale(1196.95 491.195)">
<stop stop-color="#1A3D9C"/>
<stop offset="0.4" stop-color="#1A3D9C" stop-opacity="0.42"/>
<stop offset="0.7" stop-color="#1A3D9C" stop-opacity="0"/>
</radialGradient>
<radialGradient id="paint25_radial_10641_218557" cx="0" cy="0" r="1" gradientUnits="userSpaceOnUse" gradientTransform="translate(15.4326 11.9615) rotate(83.129) scale(7.14172 4.94908)">
<stop stop-color="#1A3D9C"/>
<stop offset="0.16" stop-color="#1A3D9C" stop-opacity="0.69"/>
<stop offset="0.33" stop-color="#1A3D9C" stop-opacity="0.4"/>
<stop offset="0.49" stop-color="#1A3D9C" stop-opacity="0.18"/>
<stop offset="0.61" stop-color="#1A3D9C" stop-opacity="0.05"/>
<stop offset="0.7" stop-color="#1A3D9C" stop-opacity="0"/>
</radialGradient>
<radialGradient id="paint26_radial_10641_218557" cx="0" cy="0" r="1" gradientUnits="userSpaceOnUse" gradientTransform="translate(16.8381 12.8785) rotate(74.7332) scale(6.86089 4.63785)">
<stop stop-color="#18388F"/>
<stop offset="0.37" stop-color="#193B96" stop-opacity="0.45"/>
<stop offset="0.7" stop-color="#1A3D9C" stop-opacity="0"/>
</radialGradient>
<radialGradient id="paint27_radial_10641_218557" cx="0" cy="0" r="1" gradientUnits="userSpaceOnUse" gradientTransform="translate(16.147 14.7558) rotate(74.7449) scale(3.1885 3.01196)">
<stop stop-color="#18388F"/>
<stop offset="0.09" stop-color="#183992" stop-opacity="0.78"/>
<stop offset="0.22" stop-color="#193B96" stop-opacity="0.5"/>
<stop offset="0.35" stop-color="#193C98" stop-opacity="0.28"/>
<stop offset="0.47" stop-color="#1A3C9A" stop-opacity="0.13"/>
<stop offset="0.59" stop-color="#1A3D9C" stop-opacity="0.03"/>
<stop offset="0.7" stop-color="#1A3D9C" stop-opacity="0"/>
</radialGradient>
<radialGradient id="paint28_radial_10641_218557" cx="0" cy="0" r="1" gradientUnits="userSpaceOnUse" gradientTransform="translate(16.2235 15.2733) rotate(74.7449) scale(3.1885 3.01196)">
<stop stop-color="#1A3D9C" stop-opacity="0.8"/>
<stop offset="0.01" stop-color="#1A3D9C" stop-opacity="0.78"/>
<stop offset="0.24" stop-color="#1A3D9C" stop-opacity="0.45"/>
<stop offset="0.44" stop-color="#1A3D9C" stop-opacity="0.2"/>
<stop offset="0.6" stop-color="#1A3D9C" stop-opacity="0.05"/>
<stop offset="0.7" stop-color="#1A3D9C" stop-opacity="0"/>
</radialGradient>
<radialGradient id="paint29_radial_10641_218557" cx="0" cy="0" r="1" gradientUnits="userSpaceOnUse" gradientTransform="translate(8.67823 13.2867) rotate(67.1729) scale(7.60858 5.02505)">
<stop stop-color="#1A3D9C"/>
<stop offset="0.4" stop-color="#1A3D9C" stop-opacity="0.56"/>
<stop offset="0.48" stop-color="#1A3D9C" stop-opacity="0.43"/>
<stop offset="0.69" stop-color="#1A3D9C" stop-opacity="0.12"/>
<stop offset="0.79" stop-color="#1A3D9C" stop-opacity="0"/>
</radialGradient>
<radialGradient id="paint30_radial_10641_218557" cx="0" cy="0" r="1" gradientUnits="userSpaceOnUse" gradientTransform="translate(7.78646 11.3833) rotate(76.1845) scale(5.64705 3.70524)">
<stop stop-color="#1A3D9C"/>
<stop offset="0.06" stop-color="#1A3D9C" stop-opacity="0.88"/>
<stop offset="0.21" stop-color="#1A3D9C" stop-opacity="0.61"/>
<stop offset="0.36" stop-color="#1A3D9C" stop-opacity="0.39"/>
<stop offset="0.51" stop-color="#1A3D9C" stop-opacity="0.22"/>
<stop offset="0.67" stop-color="#1A3D9C" stop-opacity="0.1"/>
<stop offset="0.83" stop-color="#1A3D9C" stop-opacity="0.02"/>
<stop offset="1" stop-color="#1A3D9C" stop-opacity="0"/>
</radialGradient>
<radialGradient id="paint31_radial_10641_218557" cx="0" cy="0" r="1" gradientUnits="userSpaceOnUse" gradientTransform="translate(7.78646 11.3833) rotate(76.1845) scale(5.64705 3.70524)">
<stop stop-color="#1B3E9E"/>
<stop offset="0.06" stop-color="#1B3E9E" stop-opacity="0.87"/>
<stop offset="0.21" stop-color="#1B3E9D" stop-opacity="0.61"/>
<stop offset="0.36" stop-color="#1A3D9D" stop-opacity="0.39"/>
<stop offset="0.52" stop-color="#1A3D9C" stop-opacity="0.22"/>
<stop offset="0.67" stop-color="#1A3D9C" stop-opacity="0.1"/>
<stop offset="0.83" stop-color="#1A3D9C" stop-opacity="0.02"/>
<stop offset="1" stop-color="#1A3D9C" stop-opacity="0"/>
</radialGradient>
<radialGradient id="paint32_radial_10641_218557" cx="0" cy="0" r="1" gradientUnits="userSpaceOnUse" gradientTransform="translate(8.14394 11.2063) rotate(76.182) scale(4.32073 2.83482)">
<stop stop-color="#183991"/>
<stop offset="0.03" stop-color="#183992" stop-opacity="0.95"/>
<stop offset="0.18" stop-color="#193A95" stop-opacity="0.66"/>
<stop offset="0.34" stop-color="#193B97" stop-opacity="0.42"/>
<stop offset="0.5" stop-color="#1A3C99" stop-opacity="0.24"/>
<stop offset="0.66" stop-color="#1A3D9B" stop-opacity="0.1"/>
<stop offset="0.82" stop-color="#1A3D9C" stop-opacity="0.03"/>
<stop offset="1" stop-color="#1A3D9C" stop-opacity="0"/>
</radialGradient>
<radialGradient id="paint33_radial_10641_218557" cx="0" cy="0" r="1" gradientUnits="userSpaceOnUse" gradientTransform="translate(9.09797 11.4761) rotate(87.1489) scale(3.41468 2.98643)">
<stop offset="0.04" stop-color="#2453D6" stop-opacity="0.6"/>
<stop offset="0.2" stop-color="#2453D6" stop-opacity="0.49"/>
<stop offset="0.52" stop-color="#2453D6" stop-opacity="0.2"/>
<stop offset="0.73" stop-color="#2453D6" stop-opacity="0"/>
</radialGradient>
<linearGradient id="paint34_linear_10641_218557" x1="15.7186" y1="3.58357" x2="11.8622" y2="13.0406" gradientUnits="userSpaceOnUse">
<stop stop-color="#3774FF"/>
<stop offset="0.05" stop-color="#3774FF" stop-opacity="0.91"/>
<stop offset="0.16" stop-color="#3774FF" stop-opacity="0.66"/>
<stop offset="0.32" stop-color="#3774FF" stop-opacity="0.28"/>
<stop offset="0.43" stop-color="#3774FF" stop-opacity="0"/>
</linearGradient>
</defs>
</svg>
