<svg width="24" height="24" viewBox="0 0 24 24" fill="none" xmlns="http://www.w3.org/2000/svg">
<path d="M3 7.45384V13.527C3.00346 14.1857 3.29063 14.8161 3.79842 15.2799C4.3062 15.7436 4.99305 16.0026 5.70802 16H15.3167C15.4466 16.0006 15.5715 15.9537 15.6639 15.8696C15.7563 15.7854 15.8087 15.671 15.8096 15.5513V9.47821C15.8062 8.81951 15.519 8.18903 15.0112 7.72531C14.5034 7.26159 13.8166 7.00258 13.1016 7.00519H3.49588C3.43131 7.00454 3.36724 7.01565 3.30734 7.03786C3.24744 7.06008 3.19289 7.09297 3.14682 7.13465C3.10075 7.17633 3.06406 7.22599 3.03887 7.28076C3.01367 7.33553 3.00047 7.39435 3 7.45384ZM16.4213 9.8229L20.3883 7.15292C20.7328 6.88975 21 6.95595 21 7.43195V15.5732C21 16.1149 20.6734 16.0492 20.3883 15.8517L16.4213 13.1877V9.8229Z" fill="#1991FF"/>
</svg>
