<svg width="35" height="35" viewBox="0 0 125 200" fill="none" xmlns="http://www.w3.org/2000/svg">
<path fill-rule="evenodd" clip-rule="evenodd" d="M96.558 8.17805C99.5932 1.53084 108.107 -1.71986 115.646 0.914542C123.23 3.56454 126.957 11.166 123.969 17.8929C123.614 18.5573 123.32 19.2471 122.961 19.9114C122.395 20.958 121.583 22.3548 120.493 23.9812C118.329 27.2127 114.985 31.4785 110.189 35.7163C100.381 44.3822 84.6351 52.729 61.929 51.9493C39.9355 51.1942 24.7102 43.1407 15.0627 35.0131C10.3188 31.0165 6.97587 27.0561 4.78231 24.0314C3.68097 22.5128 2.85437 21.2093 2.27343 20.2254C1.98251 19.7327 1.83693 19.4799 1.57779 18.9933C1.43442 18.7241 1.22057 18.2998 1.22057 18.2998C-2.02045 11.6659 1.41534 3.95752 8.89461 1.0828C16.3226 -1.77222 24.9453 1.21405 28.238 7.75361C28.2601 7.79458 28.321 7.90584 28.4227 8.07817C28.6372 8.44144 29.0268 9.06523 29.6082 9.86695C30.7801 11.483 32.6692 13.7357 35.3914 16.0291C40.6761 20.4812 49.3192 25.3144 63.0708 25.7866C76.1097 26.2343 84.2324 21.6943 89.3566 17.1668C92.0264 14.8079 93.9151 12.4002 95.116 10.6075C95.7093 9.72174 96.1129 9.01872 96.3427 8.59354C96.457 8.38202 96.5264 8.24285 96.553 8.18837C96.5549 8.1845 96.5566 8.18103 96.558 8.17805Z" fill="#21CC99"/>
<path fill-rule="evenodd" clip-rule="evenodd" d="M32 130.5C32 113.655 45.6553 100 62.5 100C79.3447 100 93 113.655 93 130.5C93 147.345 79.3447 161 62.5 161C45.6553 161 32 147.345 32 130.5ZM124.996 131.257C124.998 131.005 125 130.753 125 130.5C125 95.9822 97.0178 68 62.5 68C27.9822 68 0 95.9822 0 130.5C0 165.018 27.9822 193 62.5 193C73.6051 193 84.0337 190.104 93.0718 185.025C93.8398 193.146 100.678 199.5 109 199.5C117.837 199.5 125 192.337 125 183.5V132C125 131.753 124.999 131.506 124.996 131.257Z" fill="#9A47A7"/>
</svg>
