<svg width="64" height="64" viewBox="0 0 64 64" fill="none" xmlns="http://www.w3.org/2000/svg">
    <g filter="url(#filter0_d)">
        <path d="M46.2186 1.20444C43.0603 0.475559 37.8689 0 32 0C26.1311 0 20.9396 0.475559 17.7814 1.20444C11.4846 2.5258 6.5258 7.48455 5.20444 13.7814C4.47556 16.9396 4 22.1311 4 28C4 33.8689 4.47556 39.0603 5.20444 42.2186C6.5258 48.5154 11.4846 53.4742 17.7814 54.7956C20.9396 55.5244 26.1311 56 32 56C37.8689 56 43.0603 55.5244 46.2186 54.7956C52.5154 53.4742 57.4742 48.5154 58.7956 42.2186C59.5244 39.0603 60 33.8689 60 28C60 22.1311 59.5244 16.9396 58.7956 13.7814C57.4742 7.48455 52.5154 2.5258 46.2186 1.20444Z" fill="#EDFFF8"/>
    </g>
    <path d="M43.0188 16.9812C42.3772 16.3396 41.337 16.3396 40.6955 16.9812L32 25.6767L23.3045 16.9812C22.663 16.3396 21.6228 16.3396 20.9812 16.9812C20.3396 17.6228 20.3396 18.663 20.9812 19.3045L29.6767 28L20.9812 36.6955C20.3396 37.337 20.3396 38.3772 20.9812 39.0188C21.6228 39.6604 22.663 39.6604 23.3045 39.0188L32 30.3233L40.6955 39.0188C41.337 39.6604 42.3772 39.6604 43.0188 39.0188C43.6604 38.3772 43.6604 37.337 43.0188 36.6955L34.3233 28L43.0188 19.3045C43.6604 18.663 43.6604 17.6228 43.0188 16.9812Z" fill="#464F57" stroke="#464F57" stroke-width="3"/>
    <defs>
        <filter id="filter0_d" x="0" y="0" width="64" height="64" filterUnits="userSpaceOnUse" color-interpolation-filters="sRGB">
            <feFlood flood-opacity="0" result="BackgroundImageFix"/>
            <feColorMatrix in="SourceAlpha" type="matrix" values="0 0 0 0 0 0 0 0 0 0 0 0 0 0 0 0 0 0 127 0" result="hardAlpha"/>
            <feOffset dy="4"/>
            <feGaussianBlur stdDeviation="2"/>
            <feComposite in2="hardAlpha" operator="out"/>
            <feColorMatrix type="matrix" values="0 0 0 0 0 0 0 0 0 0 0 0 0 0 0 0 0 0 0.25 0"/>
            <feBlend mode="normal" in2="BackgroundImageFix" result="effect1_dropShadow"/>
            <feBlend mode="normal" in="SourceGraphic" in2="effect1_dropShadow" result="shape"/>
        </filter>
    </defs>
</svg>
