<svg width="56" height="56" viewBox="0 0 56 56" fill="none" xmlns="http://www.w3.org/2000/svg">
    <path fill-rule="evenodd" clip-rule="evenodd" d="M42.2186 1.20444C39.0603 0.475559 33.8689 0 28 0C22.1311 0 16.9396 0.475559 13.7814 1.20444C7.48455 2.5258 2.5258 7.48455 1.20444 13.7814C0.475559 16.9396 0 22.1311 0 28C0 33.8689 0.475559 39.0603 1.20444 42.2186C2.5258 48.5154 7.48455 53.4742 13.7814 54.7956C16.9396 55.5244 22.1311 56 28 56C33.8689 56 39.0603 55.5244 42.2186 54.7956C48.5154 53.4742 53.4742 48.5154 54.7956 42.2186C55.5244 39.0603 56 33.8689 56 28C56 22.1311 55.5244 16.9396 54.7956 13.7814C53.4742 7.48455 48.5154 2.5258 42.2186 1.20444Z" fill="#00B388"/>
    <mask id="mask0" mask-type="alpha" maskUnits="userSpaceOnUse" x="14" y="14" width="28" height="28">
        <path fill-rule="evenodd" clip-rule="evenodd" d="M39.0188 16.9812C38.3772 16.3396 37.337 16.3396 36.6955 16.9812L28 25.6767L19.3045 16.9812C18.663 16.3396 17.6228 16.3396 16.9812 16.9812C16.3396 17.6228 16.3396 18.663 16.9812 19.3045L25.6767 28L16.9812 36.6955C16.3396 37.337 16.3396 38.3772 16.9812 39.0188C17.6228 39.6604 18.663 39.6604 19.3045 39.0188L28 30.3234L36.6955 39.0188C37.337 39.6604 38.3772 39.6604 39.0188 39.0188C39.6604 38.3772 39.6604 37.337 39.0188 36.6955L30.3234 28L39.0188 19.3045C39.6604 18.663 39.6604 17.6228 39.0188 16.9812Z" fill="#1A1A1A"/>
        <path d="M36.6955 16.9812L38.1097 18.3954V18.3954L36.6955 16.9812ZM39.0188 16.9812L37.6046 18.3954L37.6046 18.3954L39.0188 16.9812ZM28 25.6767L26.5858 27.0909L28 28.5051L29.4142 27.0909L28 25.6767ZM19.3045 16.9812L20.7187 15.567L20.7187 15.567L19.3045 16.9812ZM16.9812 16.9812L15.567 15.567L15.567 15.567L16.9812 16.9812ZM16.9812 19.3045L15.567 20.7187L15.567 20.7187L16.9812 19.3045ZM25.6767 28L27.0909 29.4142L28.5051 28L27.0909 26.5858L25.6767 28ZM16.9812 36.6955L18.3954 38.1097H18.3954L16.9812 36.6955ZM16.9812 39.0188L18.3954 37.6046L18.3954 37.6046L16.9812 39.0188ZM19.3045 39.0188L17.8903 37.6046H17.8903L19.3045 39.0188ZM28 30.3234L29.4142 28.9091L28 27.4949L26.5858 28.9091L28 30.3234ZM36.6955 39.0188L38.1097 37.6046L38.1097 37.6046L36.6955 39.0188ZM39.0188 39.0188L37.6046 37.6046L37.6046 37.6046L39.0188 39.0188ZM39.0188 36.6955L37.6046 38.1097L37.6046 38.1097L39.0188 36.6955ZM30.3234 28L28.9091 26.5858L27.4949 28L28.9091 29.4142L30.3234 28ZM39.0188 19.3045L37.6046 17.8903V17.8903L39.0188 19.3045ZM38.1097 18.3954C37.9702 18.5349 37.7441 18.5349 37.6046 18.3954L40.433 15.567C39.0104 14.1443 36.7039 14.1443 35.2813 15.567L38.1097 18.3954ZM29.4142 27.0909L38.1097 18.3954L35.2813 15.567L26.5858 24.2624L29.4142 27.0909ZM17.8903 18.3954L26.5858 27.0909L29.4142 24.2624L20.7187 15.567L17.8903 18.3954ZM18.3954 18.3954C18.2559 18.5349 18.0298 18.5349 17.8903 18.3954L20.7187 15.567C19.2961 14.1443 16.9896 14.1443 15.567 15.567L18.3954 18.3954ZM18.3954 17.8903C18.5349 18.0298 18.5349 18.2559 18.3954 18.3954L15.567 15.567C14.1443 16.9896 14.1443 19.2961 15.567 20.7187L18.3954 17.8903ZM27.0909 26.5858L18.3954 17.8903L15.567 20.7187L24.2624 29.4142L27.0909 26.5858ZM18.3954 38.1097L27.0909 29.4142L24.2624 26.5858L15.567 35.2813L18.3954 38.1097ZM18.3954 37.6046C18.5349 37.7441 18.5349 37.9702 18.3954 38.1097L15.567 35.2813C14.1443 36.7039 14.1443 39.0104 15.567 40.433L18.3954 37.6046ZM17.8903 37.6046C18.0298 37.4651 18.2559 37.4651 18.3954 37.6046L15.567 40.433C16.9896 41.8557 19.2961 41.8557 20.7187 40.433L17.8903 37.6046ZM26.5858 28.9091L17.8903 37.6046L20.7187 40.433L29.4142 31.7376L26.5858 28.9091ZM38.1097 37.6046L29.4142 28.9091L26.5858 31.7376L35.2813 40.433L38.1097 37.6046ZM37.6046 37.6046C37.7441 37.4651 37.9702 37.4651 38.1097 37.6046L35.2813 40.433C36.7039 41.8557 39.0104 41.8557 40.433 40.433L37.6046 37.6046ZM37.6046 38.1097C37.4651 37.9702 37.4651 37.7441 37.6046 37.6046L40.433 40.433C41.8557 39.0104 41.8557 36.7039 40.433 35.2813L37.6046 38.1097ZM28.9091 29.4142L37.6046 38.1097L40.433 35.2813L31.7376 26.5858L28.9091 29.4142ZM37.6046 17.8903L28.9091 26.5858L31.7376 29.4142L40.433 20.7187L37.6046 17.8903ZM37.6046 18.3954C37.4651 18.2559 37.4651 18.0298 37.6046 17.8903L40.433 20.7187C41.8557 19.2961 41.8557 16.9896 40.433 15.567L37.6046 18.3954Z" fill="white"/>
    </mask>
    <g mask="url(#mask0)">
        <rect x="5" y="5" width="46" height="46" fill="white"/>
    </g>
</svg>
