<svg width="153" height="142" viewBox="0 0 153 142" fill="none" xmlns="http://www.w3.org/2000/svg">
<path fill-rule="evenodd" clip-rule="evenodd" d="M54.2192 91.0972C54.2192 92.9846 55.7491 94.5127 57.6415 94.5127V94.5127C59.5317 94.5127 61.066 92.9846 61.066 91.0972V91.0972C61.066 89.2121 59.5317 87.6839 57.6415 87.6839V87.6839C55.7491 87.6839 54.2192 89.2121 54.2192 91.0972" fill="#1991FF"/>
<path fill-rule="evenodd" clip-rule="evenodd" d="M46.1359 96.9711C45.3426 96.9711 44.5284 97.0454 43.615 97.1905C43.2984 97.2408 43.0075 97.0076 42.9886 96.6884L42.9864 96.6507C42.9701 96.3735 43.167 96.1289 43.442 96.0851C48.7664 95.2368 52.661 90.5408 52.4189 85.0965C52.1693 79.4166 47.152 74.9167 41.2393 74.9167H21.226C20.0984 74.9167 19.1841 75.8296 19.1841 76.9554V126.545C19.1841 127.67 20.0984 128.583 21.226 128.583H45.5733C54.1415 128.583 61.4115 122.116 61.9481 113.83C62.5429 104.668 55.2814 96.9711 46.1359 96.9711Z" fill="#1991FF"/>
<path d="M119.825 61.5L119.825 91.4375C119.825 96.9949 115.32 101.5 109.763 101.5L79.8252 101.5" stroke="#007AFF" stroke-width="2.51563" stroke-linecap="round" stroke-linejoin="round"/>
<path d="M79.1963 101.5C79.1963 100.458 80.041 99.6133 81.083 99.6133C82.125 99.6133 82.9697 100.458 82.9697 101.5C82.9697 102.542 82.125 103.387 81.083 103.387C80.041 103.387 79.1963 102.542 79.1963 101.5Z" stroke="#007AFF" stroke-width="3.77344" stroke-linecap="round" stroke-linejoin="round"/>
<path fill-rule="evenodd" clip-rule="evenodd" d="M113.905 63.1262C113.413 63.6174 113.413 64.4138 113.905 64.905C114.396 65.3962 115.192 65.3962 115.683 64.905L118.567 62.021L118.567 62.7578C118.567 63.4525 119.131 64.0156 119.825 64.0156C120.52 64.0156 121.083 63.4525 121.083 62.7578L121.083 62.021L123.967 64.905C124.458 65.3962 125.255 65.3962 125.746 64.905C126.237 64.4138 126.237 63.6174 125.746 63.1262L121.159 58.5397C120.422 57.8029 119.228 57.8029 118.491 58.5397L113.905 63.1262Z" fill="#007AFF"/>
<path d="M41.1284 61.5L41.1284 31.5625C41.1284 26.0051 45.6336 21.5 51.1909 21.5L81.1284 21.5" stroke="#007AFF" stroke-width="2.51563" stroke-linecap="round" stroke-linejoin="round"/>
<path d="M81.7573 21.5C81.7573 22.542 80.9126 23.3867 79.8706 23.3867C78.8286 23.3867 77.9839 22.542 77.9839 21.5C77.9839 20.458 78.8286 19.6133 79.8706 19.6133C80.9126 19.6133 81.7573 20.458 81.7573 21.5Z" stroke="#007AFF" stroke-width="3.77344" stroke-linecap="round" stroke-linejoin="round"/>
<path fill-rule="evenodd" clip-rule="evenodd" d="M47.0491 59.8738C47.5403 59.3826 47.5403 58.5862 47.0491 58.095C46.5579 57.6038 45.7615 57.6038 45.2703 58.095L42.3862 60.979L42.3862 60.2422C42.3862 59.5475 41.8231 58.9844 41.1284 58.9844C40.4337 58.9844 39.8706 59.5475 39.8706 60.2422L39.8706 60.979L36.9866 58.095C36.4954 57.6038 35.699 57.6038 35.2078 58.095C34.7166 58.5862 34.7166 59.3826 35.2078 59.8738L39.7943 64.4603C40.5311 65.1971 41.7257 65.1971 42.4625 64.4603L47.0491 59.8738Z" fill="#007AFF"/>
<g clip-path="url(#clip0_18440_336493)">
<path d="M116.123 4.76721C118.126 2.71975 120.916 1.42644 123.992 1.42644C128.094 1.42644 131.647 3.68559 133.554 7.02719C135.199 6.29784 137.035 5.89761 138.966 5.89761C146.359 5.89761 152.319 11.8515 152.319 19.1945C152.319 26.5376 146.334 32.4898 138.966 32.4898C138.061 32.4898 137.178 32.3955 136.344 32.231C134.675 35.1723 131.479 37.1735 127.806 37.1735C126.281 37.1735 124.826 36.8204 123.538 36.2085C121.846 40.1388 117.887 42.9148 113.285 42.9148C108.492 42.9148 104.391 39.9263 102.817 35.7123C102.119 35.8538 101.408 35.9247 100.695 35.924C94.9722 35.924 90.3457 31.3114 90.3457 25.5924C90.3457 21.7886 92.4202 18.4379 95.5202 16.6493C94.8767 15.2137 94.519 13.6145 94.519 11.9193C94.4972 5.40311 99.9096 0.0843444 106.537 0.0843444C108.393 0.0812665 110.224 0.502473 111.887 1.31494C113.55 2.12741 115 3.30905 116.123 4.76721" fill="#00A1E0"/>
<path d="M99.3123 22.3005L99.5745 21.6182C99.6223 21.5008 99.6935 21.548 99.7421 21.5711L99.9566 21.7117C100.696 22.183 101.388 22.183 101.602 22.183C102.151 22.183 102.507 21.9002 102.507 21.5008V21.4777C102.507 21.0543 101.982 20.8906 101.362 20.7004L101.22 20.6532C100.386 20.4176 99.479 20.0661 99.479 19.0292V19.006C99.479 18.0178 100.29 17.3108 101.458 17.3108H101.577C102.268 17.3108 102.912 17.4993 103.389 17.8053C103.437 17.8285 103.485 17.8756 103.46 17.9459L103.198 18.6281C103.15 18.7455 103.031 18.6752 103.031 18.6752C102.602 18.4396 101.958 18.275 101.409 18.275C100.908 18.275 100.598 18.5338 100.598 18.8869V18.9101C100.598 19.3103 101.147 19.4972 101.767 19.6874L101.886 19.7105C102.721 19.9694 103.604 20.3225 103.604 21.3346V21.3578C103.604 22.441 102.816 23.0993 101.553 23.0993C100.933 23.0993 100.338 23.005 99.6927 22.6759C99.5737 22.6056 99.4539 22.5585 99.3349 22.4642C99.3115 22.4171 99.2637 22.3939 99.3115 22.2988L99.3123 22.3005ZM117.912 22.3005L118.175 21.6182C118.222 21.5008 118.317 21.548 118.342 21.5711L118.557 21.7117C119.296 22.183 119.988 22.183 120.202 22.183C120.751 22.183 121.107 21.9002 121.107 21.5008V21.4777C121.107 21.0543 120.582 20.8906 119.962 20.7004L119.82 20.6532C118.986 20.4176 118.079 20.0661 118.079 19.0292V19.006C118.079 18.0178 118.89 17.3108 120.058 17.3108H120.177C120.868 17.3108 121.512 17.4993 121.989 17.8053C122.037 17.8285 122.085 17.8756 122.06 17.9459L121.798 18.6281C121.75 18.7455 121.631 18.6752 121.631 18.6752C121.202 18.4396 120.558 18.275 120.009 18.275C119.508 18.275 119.198 18.5338 119.198 18.8869V18.9101C119.198 19.3103 119.747 19.4972 120.367 19.6874L120.486 19.7105C121.321 19.9694 122.204 20.3225 122.204 21.3346V21.3578C122.204 22.441 121.416 23.0993 120.153 23.0993C119.533 23.0993 118.938 23.005 118.293 22.6759C118.174 22.6056 118.054 22.5585 117.935 22.4642C117.935 22.4171 117.887 22.3939 117.911 22.2988L117.912 22.3005ZM131.695 19.0755C131.79 19.4286 131.862 19.8048 131.862 20.205C131.862 20.6053 131.815 20.9823 131.695 21.3346C131.599 21.6877 131.432 21.9937 131.217 22.2442C130.997 22.5055 130.719 22.7146 130.406 22.8562C130.073 22.9967 129.691 23.0678 129.262 23.0678C128.833 23.0678 128.451 22.9976 128.117 22.8562C127.784 22.7147 127.522 22.5031 127.306 22.2442C127.09 21.9854 126.925 21.6794 126.829 21.3346C126.732 20.9898 126.661 20.6053 126.661 20.205C126.661 19.8048 126.709 19.4277 126.829 19.0755C126.924 18.7224 127.091 18.4164 127.306 18.1658C127.527 17.9046 127.804 17.6955 128.117 17.5539C128.478 17.399 128.868 17.3188 129.262 17.3182C129.691 17.3182 130.073 17.3885 130.406 17.5539C130.74 17.6945 131.001 17.907 131.217 18.1658C131.433 18.4247 131.598 18.7306 131.695 19.0755ZM130.622 20.1819C130.622 19.57 130.503 19.0986 130.289 18.7695C130.074 18.4404 129.717 18.275 129.263 18.275C128.786 18.275 128.452 18.4404 128.238 18.7695C128.023 19.0986 127.904 19.57 127.904 20.1819C127.904 20.7938 128.023 21.2652 128.238 21.6174C128.452 21.9465 128.787 22.1119 129.263 22.1119C129.74 22.1119 130.074 21.9465 130.289 21.6174C130.528 21.2883 130.622 20.7938 130.622 20.1819ZM140.422 21.9465L140.685 22.6527C140.708 22.747 140.637 22.7702 140.637 22.7702C140.231 22.9355 139.684 23.029 139.135 23.029C138.213 23.029 137.514 22.7702 137.037 22.2517C136.56 21.7332 136.321 21.0278 136.321 20.1571C136.321 19.7568 136.369 19.3798 136.489 19.0275C136.609 18.6752 136.775 18.3684 137.013 18.1179C137.252 17.8552 137.545 17.6465 137.872 17.506C138.249 17.3488 138.655 17.2686 139.064 17.2703C139.327 17.2713 139.59 17.287 139.851 17.3174C140.09 17.3646 140.423 17.4348 140.567 17.506C140.59 17.506 140.662 17.5531 140.638 17.6234L140.376 18.3296C140.328 18.447 140.257 18.3999 140.257 18.3999C139.899 18.2824 139.565 18.2345 139.136 18.2345C138.611 18.2345 138.214 18.3999 137.967 18.7521C137.705 19.0812 137.561 19.5294 137.561 20.1414C137.561 20.8004 137.729 21.2709 138.014 21.5769C138.299 21.8829 138.705 22.0234 139.229 22.0234C139.443 22.0234 139.634 22.0003 139.801 21.9763C139.968 21.9523 140.134 21.906 140.302 21.8357C140.278 21.8829 140.373 21.8589 140.421 21.9532L140.422 21.9465ZM145.835 18.8638C146.074 19.6642 145.954 20.3464 145.93 20.3936C145.93 20.4878 145.835 20.4878 145.835 20.4878H142.235C142.258 21.0295 142.377 21.3975 142.664 21.6646C142.926 21.9234 143.331 22.0879 143.904 22.0879C144.762 22.0879 145.119 21.9226 145.382 21.8291C145.382 21.8291 145.478 21.806 145.525 21.8994L145.764 22.5585C145.811 22.6759 145.764 22.699 145.74 22.7238C145.526 22.8413 144.978 23.0769 143.928 23.0769C143.427 23.0769 142.975 23.0067 142.617 22.8652C142.259 22.7238 141.949 22.5361 141.712 22.2781C141.475 22.0201 141.306 21.7133 141.187 21.3851C141.068 21.032 141.02 20.6557 141.02 20.2555C141.02 19.8552 141.068 19.4782 141.187 19.1259C141.283 18.7728 141.45 18.4668 141.665 18.2163C141.88 17.9657 142.166 17.7449 142.499 17.6044C142.833 17.439 143.238 17.3687 143.692 17.3687C144.073 17.3687 144.431 17.439 144.717 17.5804C144.932 17.6747 145.17 17.8392 145.408 18.098C145.527 18.1923 145.742 18.5446 145.837 18.8753L145.835 18.8638ZM142.257 19.6163H144.809C144.785 19.2872 144.713 19.0043 144.57 18.7687C144.355 18.4396 144.045 18.251 143.569 18.251C143.092 18.251 142.758 18.4396 142.543 18.7687C142.401 18.9804 142.329 19.2632 142.257 19.6163H142.257ZM117.054 18.8638C117.292 19.6642 117.172 20.3464 117.172 20.3936C117.172 20.4878 117.077 20.4878 117.077 20.4878H113.477C113.5 21.0295 113.619 21.3975 113.906 21.6646C114.168 21.9234 114.574 22.0879 115.146 22.0879C116.005 22.0879 116.361 21.9226 116.625 21.8291C116.625 21.8291 116.72 21.806 116.767 21.8994L117.006 22.5585C117.054 22.6759 117.006 22.699 116.982 22.7238C116.768 22.8413 116.22 23.0769 115.17 23.0769C114.669 23.0769 114.217 23.0067 113.859 22.8652C113.501 22.7238 113.191 22.5361 112.954 22.2781C112.717 22.0201 112.548 21.7133 112.429 21.3851C112.311 21.032 112.262 20.6557 112.262 20.2555C112.262 19.8552 112.31 19.4782 112.429 19.1259C112.525 18.7728 112.692 18.4668 112.907 18.2163C113.122 17.9657 113.408 17.7449 113.742 17.6044C114.075 17.439 114.481 17.3687 114.934 17.3687C115.315 17.3687 115.673 17.439 115.959 17.5804C116.174 17.6747 116.412 17.8392 116.651 18.098C116.746 18.1923 116.984 18.5446 117.056 18.8753L117.054 18.8638ZM113.476 19.6163H116.051C116.028 19.2872 115.956 19.0043 115.813 18.7687C115.598 18.4396 115.288 18.251 114.811 18.251C114.335 18.251 114 18.4396 113.786 18.7687C113.618 18.9804 113.547 19.2632 113.476 19.6163V19.6163ZM107.157 19.4277L107.752 19.498V19.3574C107.752 18.8861 107.656 18.6512 107.465 18.5098C107.274 18.3684 106.964 18.2742 106.583 18.2742C106.583 18.2742 105.701 18.2742 105.01 18.6273C104.986 18.6504 104.962 18.6504 104.962 18.6504C104.962 18.6504 104.866 18.6736 104.843 18.6033L104.581 17.9211C104.533 17.8268 104.604 17.7805 104.604 17.7805C104.938 17.5217 105.702 17.3803 105.702 17.3803C105.964 17.3331 106.393 17.286 106.655 17.286C107.371 17.286 107.919 17.4514 108.301 17.7805C108.683 18.1096 108.873 18.6281 108.873 19.3574V22.6048C108.873 22.6048 108.873 22.699 108.802 22.7222C108.802 22.7222 108.659 22.7693 108.539 22.7925L107.635 22.9579C107.277 23.0282 106.919 23.0521 106.537 23.0521C106.179 23.0521 105.869 23.029 105.584 22.9579C105.298 22.8867 105.059 22.7925 104.845 22.6519C104.654 22.5113 104.487 22.3228 104.367 22.0871C104.248 21.8754 104.199 21.5926 104.199 21.2867C104.199 20.9807 104.271 20.6995 104.39 20.463C104.51 20.2265 104.7 20.0397 104.915 19.8759C105.129 19.7122 105.392 19.6171 105.654 19.5228C105.94 19.4525 106.226 19.4054 106.536 19.4054L107.156 19.4286L107.157 19.4277ZM105.726 21.9226C105.726 21.9226 106.059 22.1814 106.775 22.1342C107.299 22.1111 107.753 22.0168 107.753 22.0168V20.3927C107.753 20.3927 107.3 20.3225 106.775 20.3225C106.036 20.3225 105.726 20.5813 105.726 20.5813C105.511 20.7219 105.416 20.9575 105.416 21.2635C105.413 21.428 105.454 21.5904 105.535 21.734C105.558 21.7812 105.583 21.8283 105.726 21.9226V21.9226ZM136.128 17.6159C136.104 17.7102 135.913 18.2031 135.865 18.3684C135.842 18.4387 135.794 18.4627 135.723 18.4627C135.723 18.4627 135.509 18.4156 135.318 18.4156C135.156 18.4192 134.996 18.4428 134.841 18.4859C134.673 18.533 134.531 18.6264 134.388 18.7447C134.246 18.8629 134.15 19.0507 134.078 19.2623C134.007 19.474 133.959 19.8271 133.959 20.2034V22.8388C133.959 22.9091 133.912 22.9562 133.84 22.9562H132.887C132.816 22.9562 132.768 22.9091 132.768 22.8388V17.5473C132.768 17.477 132.816 17.4299 132.864 17.4299H133.785C133.856 17.4299 133.881 17.477 133.881 17.5473V17.9707C134.023 17.7822 134.262 17.6176 134.476 17.5242C134.689 17.4307 134.953 17.3588 135.397 17.3836C135.636 17.4067 135.946 17.4539 135.992 17.4778C136.088 17.501 136.134 17.525 136.111 17.6184L136.128 17.6159ZM127.28 15.1682C127.304 15.1682 127.376 15.2154 127.351 15.2857L127.065 16.0382C127.041 16.0853 127.017 16.1324 126.897 16.0853C126.874 16.0853 126.826 16.0622 126.706 16.0382C126.635 16.015 126.515 16.015 126.42 16.015C126.277 16.015 126.157 16.0382 126.038 16.0622C125.92 16.0861 125.824 16.1564 125.728 16.2507C125.633 16.345 125.537 16.4624 125.466 16.6269C125.324 17.0032 125.275 17.4042 125.275 17.4274H126.42C126.515 17.4274 126.539 17.4745 126.539 17.5448L126.396 18.2742C126.373 18.3916 126.277 18.3684 126.277 18.3684H125.085L124.323 22.9107C124.227 23.3821 124.132 23.7815 124.013 24.1098C123.894 24.4381 123.75 24.6746 123.535 24.9102C123.344 25.1219 123.13 25.2865 122.867 25.3568C122.628 25.451 122.318 25.4973 121.985 25.4973C121.817 25.4973 121.652 25.4973 121.461 25.4502C121.346 25.4329 121.234 25.4012 121.127 25.3559C121.079 25.3328 121.056 25.2857 121.079 25.2154L121.342 24.486C121.389 24.3917 121.461 24.4389 121.461 24.4389L121.652 24.5092C121.747 24.5323 121.843 24.5323 121.938 24.5323C122.106 24.5323 122.248 24.5092 122.367 24.462C122.51 24.4149 122.606 24.3215 122.701 24.2032C122.795 24.085 122.868 23.9204 122.963 23.7087C123.051 23.4227 123.122 23.132 123.177 22.838L123.988 18.3891H123.201C123.105 18.3891 123.082 18.342 123.082 18.2717L123.224 17.5423C123.248 17.4249 123.343 17.4481 123.343 17.4481H124.154L124.202 17.2124C124.321 16.5062 124.56 15.9654 124.917 15.6123C125.275 15.2592 125.8 15.0707 126.442 15.0707C126.633 15.0707 126.8 15.0938 126.943 15.1178C127.039 15.0947 127.158 15.1178 127.277 15.1649L127.28 15.1682ZM111.209 22.8173C111.209 22.8876 111.161 22.9347 111.113 22.9347H110.16C110.089 22.9347 110.064 22.8876 110.064 22.8173V15.2625C110.064 15.2154 110.112 15.1451 110.16 15.1451H111.113C111.184 15.1451 111.209 15.1922 111.209 15.2625V22.8173Z" fill="white"/>
</g>
<defs>
<clipPath id="clip0_18440_336493">
<rect width="62" height="43" fill="white" transform="translate(90.333)"/>
</clipPath>
</defs>
</svg>
