<svg width="16" height="14" viewBox="0 0 16 14" fill="none" xmlns="http://www.w3.org/2000/svg">
    <path d="M0 9.83422V12.4856C0 13.0918 0.490971 13.5828 1.09714 13.5828H3.74857L4.29714 11.5787L3.74857 9.83422L1.92914 9.28564L0 9.83422Z" fill="#0066DA"/>
    <path d="M3.74857 0.416992L0 4.16556L1.92914 4.71413L3.74857 4.16556L4.288 2.44396L3.74857 0.416992Z" fill="#E94235"/>
    <path d="M3.74857 4.16553H0V9.8341H3.74857V4.16553Z" fill="#2684FC"/>
    <path d="M15.103 2.00435L12.7085 3.96915V10.1232L15.1131 12.0953C15.4733 12.3769 16 12.12 16 11.6629V2.42857C16 1.96503 15.4614 1.71086 15.103 2.00435ZM9.05139 7V9.83429H3.74854V13.5829H11.6114C12.2176 13.5829 12.7085 13.0919 12.7085 12.4857V10.1232L9.05139 7Z" fill="#00AC47"/>
    <path d="M11.6114 0.416992H3.74854V4.16556H9.05139V6.99985L12.7085 3.96899V1.51414C12.7085 0.907964 12.2176 0.416992 11.6114 0.416992Z" fill="#FFBA00"/>
</svg>
