<svg width="32" height="32" viewBox="0 0 32 32" fill="none" xmlns="http://www.w3.org/2000/svg">
    <path d="M28.5344 19.5313L31.6681 16.7778C31.7722 16.6859 31.8558 16.5722 31.9131 16.4443C31.9704 16.3164 32 16.1774 32 16.0367C32 15.896 31.9704 15.757 31.9131 15.6291C31.8558 15.5013 31.7722 15.3875 31.6681 15.2956L28.5344 12.5579V19.5313ZM20.2857 4C19.955 4 19.6442 4.06294 19.3242 4.09913C19.9196 5.26346 20.2857 6.56468 20.2857 7.96975V18.1058C20.2857 22.4248 17.0967 25.9477 13 26.4371C14.3738 29.1371 17.1074 31 20.2857 31C22.4718 31 24.5684 30.1121 26.1146 28.5315C27.6609 26.951 28.5301 24.8071 28.5314 22.5712V12.4351C28.5314 7.7778 24.8393 4.00157 20.2857 4.00157V4Z" fill="#231F20"/>
    <path d="M4 9L0.38308 11.7646C0.262875 11.8569 0.166434 11.9711 0.100327 12.0995C0.0342195 12.2279 0 12.3675 0 12.5087C0 12.6499 0.0342195 12.7895 0.100327 12.9179C0.166434 13.0463 0.262875 13.1605 0.38308 13.2528L4 16" fill="#85FFCD"/>
    <path d="M11.4945 23.0356V12.8972C11.4945 8.57718 14.7813 5.05345 19 4.564C17.5848 1.86337 14.7702 0 11.4945 0C9.24241 -3.50297e-07 7.08253 0.888092 5.48965 2.46904C3.89677 4.04999 3.00126 6.19439 3 8.43081V18.5692C3 23.2276 6.80349 27 11.4945 27C11.8304 27 12.1553 26.937 12.4802 26.9024C11.8419 25.7116 11.5042 24.3846 11.496 23.0356H11.4945Z" fill="#85FFCD"/>
</svg>
