<svg width="30" height="30" viewBox="0 0 56 56" fill="none" xmlns="http://www.w3.org/2000/svg">
    <path fill-rule="evenodd" clip-rule="evenodd" d="M42.2186 1.20444C39.0603 0.475559 33.8689 0 28 0C22.1311 0 16.9396 0.475559 13.7814 1.20444C7.48455 2.5258 2.5258 7.48455 1.20444 13.7814C0.475559 16.9396 0 22.1311 0 28C0 33.8689 0.475559 39.0603 1.20444 42.2186C2.5258 48.5154 7.48455 53.4742 13.7814 54.7956C16.9396 55.5244 22.1311 56 28 56C33.8689 56 39.0603 55.5244 42.2186 54.7956C48.5154 53.4742 53.4742 48.5154 54.7956 42.2186C55.5244 39.0603 56 33.8689 56 28C56 22.1311 55.5244 16.9396 54.7956 13.7814C53.4742 7.48455 48.5154 2.5258 42.2186 1.20444Z" fill="#94A5B4"/>
    <mask id="mask0" mask-type="alpha" maskUnits="userSpaceOnUse" x="0" y="0" width="56" height="56">
        <path d="M42.2186 1.20444C39.0603 0.475559 33.8689 0 28 0C22.1311 0 16.9396 0.475559 13.7814 1.20444C7.48455 2.5258 2.5258 7.48455 1.20444 13.7814C0.475559 16.9396 0 22.1311 0 28C0 33.8689 0.475559 39.0603 1.20444 42.2186C2.5258 48.5154 7.48455 53.4742 13.7814 54.7956C16.9396 55.5244 22.1311 56 28 56C33.8689 56 39.0603 55.5244 42.2186 54.7956C48.5154 53.4742 53.4742 48.5154 54.7956 42.2186C55.5244 39.0603 56 33.8689 56 28C56 22.1311 55.5244 16.9396 54.7956 13.7814C53.4742 7.48455 48.5154 2.5258 42.2186 1.20444Z" fill="white"/>
    </mask>
    <g mask="url(#mask0)">
        <path fill-rule="evenodd" clip-rule="evenodd" d="M34.7284 42.9871C34.197 41.7223 33.0692 40.7699 31.6969 40.4819C30.8757 40.2924 29.526 40.1688 28.0001 40.1688C26.4741 40.1688 25.1244 40.2924 24.3032 40.4819C22.9408 40.7678 21.8192 41.7087 21.2832 42.96C21.0973 43.394 20.6528 43.6588 20.1826 43.6156C20.0652 43.6049 19.9639 43.5952 19.8787 43.5867C17.6828 43.3681 15.9569 43.0631 14.9542 42.7072C14.9526 42.7063 14.9506 42.7054 14.9482 42.7046C14.2753 42.4517 13.7965 41.8022 13.7965 41.041C13.7965 41.022 13.7968 41.0032 13.7974 40.9844C13.7989 40.9538 13.8007 40.9225 13.8028 40.8905C13.8034 40.8834 13.804 40.8763 13.8047 40.8692C13.8066 40.8493 13.8078 40.83 13.8083 40.8114C13.9792 38.5261 15.3671 33.1757 17.4401 27.0689C19.8099 20.0876 22.2883 14.4356 23.4059 13.3332C23.5842 13.1475 23.7901 12.9919 24.0176 12.8719C24.1064 12.8212 24.2189 12.7727 24.3525 12.727C24.356 12.7258 24.3595 12.7246 24.363 12.7234C25.0973 12.4751 26.4505 12.3088 27.9987 12.3088C29.5496 12.3088 30.9029 12.4751 31.6358 12.723C31.6406 12.7246 31.6441 12.7258 31.6476 12.727C31.7812 12.7727 31.8937 12.8212 31.9825 12.8719C32.21 12.9919 32.4159 13.1475 32.5926 13.3312C32.5932 13.3318 32.5937 13.3325 32.5942 13.3332C33.7118 14.4356 36.1902 20.0876 38.56 27.0689C40.633 33.1757 42.0209 38.5261 42.1918 40.8114C42.1923 40.83 42.1935 40.8493 42.1954 40.8692C42.1961 40.8763 42.1967 40.8834 42.1973 40.8905C42.1994 40.9225 42.2012 40.9538 42.2027 40.9844C42.2033 41.0032 42.2036 41.022 42.2036 41.041C42.2036 41.8022 41.7248 42.4517 41.0519 42.7046C41.0495 42.7054 41.0475 42.7063 41.0459 42.7072C40.044 43.0628 38.3203 43.3676 36.1272 43.5862C36.0317 43.5957 35.916 43.6067 35.7803 43.619L35.7803 43.619C35.3294 43.6602 34.9037 43.4045 34.7284 42.9871Z" fill="white"/>
    </g>
</svg>
