<svg width="64" height="64" viewBox="0 0 64 64" fill="none" xmlns="http://www.w3.org/2000/svg">
<g filter="url(#filter0_d)">
  <path d="M46.2186 1.20444C43.0603 0.475559 37.8689 0 32 0C26.1311 0 20.9396 0.475559 17.7814 1.20444C11.4846 2.5258 6.5258 7.48455 5.20444 13.7814C4.47556 16.9396 4 22.1311 4 28C4 33.8689 4.47556 39.0603 5.20444 42.2186C6.5258 48.5154 11.4846 53.4742 17.7814 54.7956C20.9396 55.5244 26.1311 56 32 56C37.8689 56 43.0603 55.5244 46.2186 54.7956C52.5154 53.4742 57.4742 48.5154 58.7956 42.2186C59.5244 39.0603 60 33.8689 60 28C60 22.1311 59.5244 16.9396 58.7956 13.7814C57.4742 7.48455 52.5154 2.5258 46.2186 1.20444Z" fill="#FBFBFB"/>
</g>
<path d="M46.2377 33.0395L49.8612 29.9278C49.9816 29.8239 50.0782 29.6954 50.1444 29.5509C50.2107 29.4063 50.2449 29.2493 50.2449 29.0903C50.2449 28.9313 50.2107 28.7742 50.1444 28.6297C50.0782 28.4852 49.9816 28.3566 49.8612 28.2528L46.2377 25.1589V33.0395ZM36.6997 15.4878C36.3172 15.4878 35.9579 15.5589 35.5879 15.5998C36.2763 16.9156 36.6997 18.3861 36.6997 19.9739V31.4285C36.6997 36.3094 33.0122 40.2906 28.2751 40.8436C29.8636 43.8948 33.0246 46.0001 36.6997 46.0001C39.2274 46.0001 41.6518 44.9967 43.4397 43.2105C45.2276 41.4243 46.2327 39.0015 46.2341 36.4748V25.0202C46.2341 19.757 41.965 15.4896 36.6997 15.4896V15.4878Z" fill="#B8B8B8"/>
<path d="M27.1741 25.0202V36.4747H27.1759C27.185 37.9989 27.5641 39.498 28.2805 40.8435C28.1691 40.8555 28.0578 40.8704 27.9461 40.8854C27.692 40.9194 27.436 40.9538 27.1741 40.9538C21.9088 40.9538 17.6396 36.6916 17.6396 31.4285V28.138L14.0214 25.0504C13.901 24.9465 13.8044 24.818 13.7381 24.6735C13.6719 24.5289 13.6376 24.3718 13.6376 24.2129C13.6376 24.0539 13.6719 23.8968 13.7381 23.7523C13.8044 23.6078 13.901 23.4792 14.0214 23.3754L17.6396 20.2682V19.9739C17.641 17.4472 18.6462 15.0244 20.4341 13.2382C22.222 11.452 24.6463 10.4486 27.1741 10.4486C30.8509 10.4486 34.0101 12.5539 35.5986 15.6051C30.8634 16.1581 27.1741 20.1393 27.1741 25.0202Z" fill="#EAEAEA"/>
<defs>
  <filter id="filter0_d" x="0" y="0" width="64" height="64" filterUnits="userSpaceOnUse" color-interpolation-filters="sRGB">
    <feFlood flood-opacity="0" result="BackgroundImageFix"/>
    <feColorMatrix in="SourceAlpha" type="matrix" values="0 0 0 0 0 0 0 0 0 0 0 0 0 0 0 0 0 0 127 0" result="hardAlpha"/>
    <feOffset dy="4"/>
    <feGaussianBlur stdDeviation="2"/>
    <feComposite in2="hardAlpha" operator="out"/>
    <feColorMatrix type="matrix" values="0 0 0 0 0 0 0 0 0 0 0 0 0 0 0 0 0 0 0.25 0"/>
    <feBlend mode="normal" in2="BackgroundImageFix" result="effect1_dropShadow"/>
    <feBlend mode="normal" in="SourceGraphic" in2="effect1_dropShadow" result="shape"/>
  </filter>
</defs>
</svg>
