<svg width="213" height="57" viewBox="0 0 213 57" fill="none" xmlns="http://www.w3.org/2000/svg">
    <path fill-rule="evenodd" clip-rule="evenodd" d="M37.1767 16.6883C37.1767 14.6934 38.7793 13.0766 40.7567 13.0766C42.7341 13.0766 44.3379 14.6934 44.3379 16.6883C44.3379 18.6832 42.7341 20.3001 40.7567 20.3001C38.7793 20.3001 37.1767 18.6832 37.1767 16.6883Z" fill="#1991FF"/>
    <path fill-rule="evenodd" clip-rule="evenodd" d="M39.9725 28.6878C36.8708 25.3485 32.6623 23.5097 28.1279 23.5097C27.3341 23.5097 26.4903 23.5837 25.5487 23.7351L24.5909 23.8901L24.4209 22.0631L25.2566 21.8893C30.8048 20.9935 34.7933 15.8553 34.3336 10.1911C33.8809 4.57622 28.924 0.178955 23.0522 0.178955H0.279999V56.2632H27.5413C36.403 56.2632 43.7737 49.5504 44.3243 40.9778C44.6199 36.3915 43.0743 32.026 39.9725 28.6878Z" fill="#1991FF"/>
    <path d="M71.1239 38.0492C73.0897 38.0492 74.6099 37.5996 75.6583 36.6474C76.7067 35.6953 77.2309 34.3993 77.2309 32.733C77.2309 31.7543 76.9688 30.908 76.4446 30.1674C75.9204 29.4533 75.2389 28.9243 74.374 28.5805C75.1603 28.2102 75.7893 27.6812 76.2611 26.9671C76.7329 26.2529 76.9688 25.4066 76.9688 24.428C76.9688 22.9204 76.4446 21.6773 75.3962 20.7251C74.3478 19.7729 72.8276 19.2704 70.7831 19.2704H62.92V38.0492H71.1239ZM71.019 30.2996C71.8054 30.2996 72.382 30.5112 72.7751 30.8815C73.1683 31.2783 73.378 31.8072 73.378 32.442C73.378 33.8703 72.5917 34.5844 71.019 34.5844H66.6419V30.2996H71.019ZM70.7569 22.7352C71.5433 22.7352 72.1199 22.9468 72.513 23.3171C72.9062 23.6874 73.1159 24.1899 73.1159 24.7718C73.1159 25.4595 72.9062 25.962 72.4868 26.3058C72.0675 26.6497 71.4908 26.8084 70.7569 26.8084H66.6419V22.7352H70.7569Z" fill="#444444"/>
    <path d="M92.434 34.505H84.1777V19.2704H80.351V38.0492H92.434V34.505Z" fill="#444444"/>
    <path d="M112.293 28.6598C112.293 25.8562 111.376 23.5022 109.567 21.6508C107.732 19.7994 105.426 18.8737 102.621 18.8737C99.7905 18.8737 97.484 19.7994 95.6755 21.6508C93.8408 23.5022 92.9496 25.8562 92.9496 28.6598C92.9496 31.4899 93.8408 33.8174 95.6755 35.6688C97.484 37.5202 99.7905 38.446 102.621 38.446C105.426 38.446 107.732 37.5202 109.567 35.6688C111.376 33.8174 112.293 31.4899 112.293 28.6598ZM108.257 28.6598C108.257 30.5112 107.732 31.9924 106.684 33.1032C105.635 34.2141 104.273 34.7695 102.621 34.7695C100.944 34.7695 99.6071 34.2141 98.5587 33.1032C97.5102 31.9924 96.986 30.5112 96.986 28.6598C96.986 26.8348 97.5102 25.3537 98.5587 24.2428C99.6071 23.132 100.944 22.5501 102.621 22.5501C104.273 22.5501 105.635 23.132 106.684 24.2428C107.732 25.3537 108.257 26.8348 108.257 28.6598Z" fill="#444444"/>
    <path d="M133.845 28.6598C133.845 25.8562 132.928 23.5022 131.119 21.6508C129.284 19.7994 126.978 18.8737 124.173 18.8737C121.342 18.8737 119.036 19.7994 117.227 21.6508C115.393 23.5022 114.502 25.8562 114.502 28.6598C114.502 31.4899 115.393 33.8174 117.227 35.6688C119.036 37.5202 121.342 38.446 124.173 38.446C126.978 38.446 129.284 37.5202 131.119 35.6688C132.928 33.8174 133.845 31.4899 133.845 28.6598ZM129.808 28.6598C129.808 30.5112 129.284 31.9924 128.236 33.1032C127.187 34.2141 125.824 34.7695 124.173 34.7695C122.496 34.7695 121.159 34.2141 120.111 33.1032C119.062 31.9924 118.538 30.5112 118.538 28.6598C118.538 26.8348 119.062 25.3537 120.111 24.2428C121.159 23.132 122.496 22.5501 124.173 22.5501C125.824 22.5501 127.187 23.132 128.236 24.2428C129.284 25.3537 129.808 26.8348 129.808 28.6598Z" fill="#444444"/>
    <path d="M145.122 38.0492C147.088 38.0492 148.608 37.5996 149.657 36.6474C150.705 35.6953 151.229 34.3993 151.229 32.733C151.229 31.7543 150.967 30.908 150.443 30.1674C149.919 29.4533 149.237 28.9243 148.372 28.5805C149.159 28.2102 149.788 27.6812 150.26 26.9671C150.731 26.2529 150.967 25.4066 150.967 24.428C150.967 22.9204 150.443 21.6773 149.395 20.7251C148.346 19.7729 146.826 19.2704 144.782 19.2704H136.918V38.0492H145.122ZM145.017 30.2996C145.804 30.2996 146.38 30.5112 146.774 30.8815C147.167 31.2783 147.376 31.8072 147.376 32.442C147.376 33.8703 146.59 34.5844 145.017 34.5844H140.64V30.2996H145.017ZM144.755 22.7352C145.542 22.7352 146.118 22.9468 146.511 23.3171C146.905 23.6874 147.114 24.1899 147.114 24.7718C147.114 25.4595 146.905 25.962 146.485 26.3058C146.066 26.6497 145.489 26.8084 144.755 26.8084H140.64V22.7352H144.755Z" fill="#444444"/>
    <path d="M158.176 19.2704H154.349V38.0492H158.176V19.2704Z" fill="#444444"/>
    <path d="M177.517 38.0492L173.454 30.5112C174.503 30.0881 175.315 29.4004 175.892 28.4482C176.468 27.5225 176.757 26.4116 176.757 25.1421C176.757 23.3964 176.206 21.9682 175.132 20.8838C174.031 19.8258 172.511 19.2704 170.545 19.2704H162.105V38.0492H165.932V30.9344H169.601L173.087 38.0492H177.517ZM172.93 25.1421C172.93 25.8562 172.72 26.4116 172.327 26.8084C171.908 27.2051 171.331 27.3903 170.545 27.3903H165.932V22.8146H170.545C171.305 22.8146 171.882 23.0262 172.301 23.4493C172.72 23.8725 172.93 24.4544 172.93 25.1421Z" fill="#444444"/>
    <path d="M186.45 38.0492C189.543 38.0492 191.928 37.2029 193.658 35.4572C195.388 33.738 196.253 31.4634 196.253 28.6598C196.253 25.8562 195.388 23.608 193.658 21.8624C191.928 20.1432 189.543 19.2704 186.45 19.2704H179.766V38.0492H186.45ZM192.216 28.6598C192.216 30.5112 191.718 31.9395 190.749 32.971C189.779 34.0025 188.311 34.505 186.345 34.505H183.593V22.8146H186.345C188.311 22.8146 189.779 23.3435 190.749 24.3751C191.718 25.4066 192.216 26.8348 192.216 28.6598Z" fill="#444444"/>
    <path d="M205.665 34.9811C204.512 34.9811 203.647 34.7166 203.044 34.1612C202.415 33.6322 202.1 32.9446 202.048 32.0982H198.273C198.3 32.9181 198.457 33.6851 198.719 34.3993C198.981 35.1398 199.4 35.8011 199.951 36.4094C200.475 37.0442 201.235 37.5202 202.179 37.8905C203.122 38.2608 204.197 38.4195 205.455 38.4195C207.657 38.4195 209.413 37.8905 210.776 36.8326C212.139 35.7746 212.82 34.3728 212.82 32.6801C212.82 31.675 212.637 30.8286 212.27 30.0881C211.903 29.3739 211.405 28.8185 210.828 28.4482C210.225 28.0779 209.57 27.7605 208.862 27.496C208.129 27.258 207.421 27.0729 206.713 26.9142C205.979 26.7555 205.324 26.5968 204.747 26.4116C204.145 26.2529 203.673 25.9885 203.306 25.6711C202.939 25.3537 202.755 24.9569 202.755 24.428C202.755 23.8196 203.018 23.3171 203.568 22.9204C204.092 22.5236 204.826 22.312 205.717 22.312C206.687 22.312 207.447 22.5765 208.024 23.1055C208.6 23.6345 208.889 24.2957 208.941 25.1421H212.689C212.637 23.37 211.982 21.8888 210.75 20.6722C209.518 19.482 207.866 18.8737 205.77 18.8737C203.673 18.8737 202.022 19.4291 200.816 20.5399C199.584 21.6508 198.981 23.0262 198.981 24.666C198.981 25.6711 199.165 26.5174 199.532 27.2316C199.898 27.9457 200.37 28.5011 200.947 28.8714C201.524 29.2417 202.179 29.5591 202.886 29.7971C203.594 30.0352 204.302 30.2203 205.01 30.379C205.717 30.5377 206.372 30.6964 206.949 30.8551C207.526 31.0402 208.024 31.2783 208.391 31.5957C208.758 31.913 208.941 32.3362 208.941 32.8123C208.941 33.5 208.653 34.0554 208.076 34.4257C207.5 34.796 206.687 34.9811 205.665 34.9811Z" fill="#444444"/>
</svg>
