<?xml version="1.0" encoding="UTF-8" standalone="no"?>
<!DOCTYPE svg PUBLIC "-//W3C//DTD SVG 1.1//EN" "http://www.w3.org/Graphics/SVG/1.1/DTD/svg11.dtd">
<svg xmlns="http://www.w3.org/2000/svg" xmlns:xlink="http://www.w3.org/1999/xlink" width="47" height="49" viewBox="0 0 47 49"><defs><linearGradient x1="10.642537%" y1="10.7823457%" x2="96.4712916%" y2="100%" id="linearGradient-1"><stop stop-color="#40e0cf" offset="0"/><stop stop-color="#36cdcf" offset="100%"/></linearGradient></defs><g id="logo" stroke="none" stroke-width="1" fill="none" fill-rule="evenodd"><g id="Artboard" transform="translate(-150.000000, -434.000000)" fill="url(#linearGradient-1)"><g id="logo-square-color" transform="translate(134.000000, 434.000000)"><g id="Group-Copy-3" transform="translate(15.500000, 0.500000)"><g id="Group-2" transform="translate(0.452830, 0.000000)"><path d="M23.5038933 48C11.8782057 48 2.75081838 40.2116564.688870843 28.9218594.663210859 28.7813631.627192737 28.5694079.580816475 28.2859937L12.1005167 28.2862009C12.1510159 28.4559694 12.1897138 28.5825822 12.2166104 28.6660392c1.7079378 5.2995227 6.3469051 8.0398432 11.2872829 8.0398432 4.9486033.0 9.5947915-2.6921727 11.2957894-8.0310774C34.8268874 28.5894179 34.8659873 28.4598141 34.9169824 28.2859937H46.4269702C46.3884452 28.5229308 46.3586873 28.700212 46.3376965 28.8178372 44.312957 40.1637883 35.1652528 48 23.5038933 48zm0-48C35.6638054.0 45.0905375 8.44311056 46.5579669 20.6371747 46.5789951 20.8119148 46.6068426 21.0757424 46.6415094 21.4286577H35.2908515C35.2581428 21.2282801 35.232585 21.0788367 35.2141783 20.9803277c-1.202844-6.4373769-6.2740918-9.6862101-11.710285-9.6862101-5.3740273.0-10.3914082 3.1749537-11.667507 9.4666163C11.8067916 20.9066475 11.7669745 21.1292887 11.7169351 21.4286577H.36627724C.416427069 20.933199.457676063 20.5633144.490024224 20.3190039 2.0818763 8.2964896 11.4500267.0 23.5038933.0z" id="icon"/></g></g></g></g></g></svg>
