<svg width="114" height="80" viewBox="0 0 114 80" fill="none" xmlns="http://www.w3.org/2000/svg">
<g clip-path="url(#clip0_4129_90240)">
<path d="M47.4905 8.8692C51.1456 5.05997 56.2383 2.65381 61.854 2.65381C69.3401 2.65381 75.826 6.85689 79.3068 13.0738C82.3104 11.7169 85.6612 10.9723 89.1863 10.9723C102.68 10.9723 113.559 22.0492 113.559 35.7107C113.559 49.3723 102.635 60.4461 89.1863 60.4461C87.5346 60.4461 85.9227 60.2707 84.3995 59.9646C81.353 65.4369 75.5202 69.16 68.8156 69.16C66.0322 69.16 63.3757 68.5031 61.0251 67.3646C57.9359 74.6769 50.7098 79.8415 42.3091 79.8415C33.5614 79.8415 26.0753 74.2815 23.2016 66.4415C21.927 66.7047 20.629 66.8366 19.3278 66.8354C8.88249 66.8354 0.4375 58.2538 0.4375 47.6138C0.4375 40.5369 4.22413 34.303 9.88267 30.9754C8.70814 28.3046 8.05511 25.3292 8.05511 22.1754C8.01535 10.0523 17.8949 0.156892 29.9919 0.156892C33.3791 0.151165 36.7216 0.934806 39.7573 2.44637C42.793 3.95794 45.4394 6.15634 47.489 8.8692" fill="#00A1E0"/>
<path d="M16.8045 41.4892L17.2832 40.22C17.3703 40.0015 17.5003 40.0892 17.589 40.1323L17.9805 40.3938C19.3294 41.2708 20.5926 41.2708 20.9841 41.2708C21.9859 41.2708 22.6358 40.7446 22.6358 40.0015V39.9585C22.6358 39.1708 21.6785 38.8661 20.5468 38.5123L20.2868 38.4246C18.7636 37.9861 17.1088 37.3323 17.1088 35.4031V35.36C17.1088 33.5215 18.5892 32.2061 20.7211 32.2061H20.9383C22.2 32.2061 23.376 32.5569 24.2462 33.1261C24.3334 33.1692 24.4206 33.2569 24.3762 33.3877L23.8975 34.6569C23.8104 34.8754 23.5917 34.7446 23.5917 34.7446C22.8086 34.3061 21.6341 34 20.6324 34C19.7179 34 19.152 34.4815 19.152 35.1385V35.1815C19.152 35.9261 20.1537 36.2738 21.2854 36.6277L21.5026 36.6708C23.0258 37.1523 24.6377 37.8092 24.6377 39.6923V39.7354C24.6377 41.7508 23.2001 42.9754 20.8939 42.9754C19.7622 42.9754 18.6764 42.8 17.4988 42.1877C17.2816 42.0569 17.0629 41.9692 16.8458 41.7938C16.8029 41.7061 16.7158 41.6631 16.8029 41.4861L16.8045 41.4892ZM50.7557 41.4892L51.2344 40.22C51.3215 40.0015 51.4944 40.0892 51.5402 40.1323L51.9318 40.3938C53.2806 41.2708 54.5439 41.2708 54.9354 41.2708C55.9371 41.2708 56.587 40.7446 56.587 40.0015V39.9585C56.587 39.1708 55.6297 38.8661 54.498 38.5123L54.238 38.4246C52.7148 37.9861 51.06 37.3323 51.06 35.4031V35.36C51.06 33.5215 52.5404 32.2061 54.6723 32.2061H54.8895C56.1512 32.2061 57.3272 32.5569 58.1974 33.1261C58.2846 33.1692 58.3718 33.2569 58.3274 33.3877L57.8487 34.6569C57.7616 34.8754 57.5429 34.7446 57.5429 34.7446C56.7599 34.3061 55.5853 34 54.5836 34C53.6691 34 53.1032 34.4815 53.1032 35.1385V35.1815C53.1032 35.9261 54.1049 36.2738 55.2366 36.6277L55.4538 36.6708C56.977 37.1523 58.5889 37.8092 58.5889 39.6923V39.7354C58.5889 41.7508 57.1514 42.9754 54.8451 42.9754C53.7134 42.9754 52.6276 42.8 51.45 42.1877C51.2328 42.0569 51.0141 41.9692 50.797 41.7938C50.797 41.7061 50.7098 41.6631 50.7542 41.4861L50.7557 41.4892ZM75.9132 35.4892C76.0876 36.1461 76.2191 36.8461 76.2191 37.5908C76.2191 38.3354 76.1319 39.0369 75.9132 39.6923C75.7389 40.3492 75.4345 40.9185 75.0415 41.3846C74.6389 41.8707 74.133 42.2597 73.5611 42.5231C72.9524 42.7846 72.2551 42.9169 71.472 42.9169C70.689 42.9169 69.9917 42.7861 69.383 42.5231C68.7743 42.26 68.2971 41.8661 67.9026 41.3846C67.508 40.9031 67.2067 40.3338 67.0309 39.6923C66.855 39.0508 66.725 38.3354 66.725 37.5908C66.725 36.8461 66.8122 36.1446 67.0309 35.4892C67.2052 34.8323 67.5095 34.2631 67.9026 33.7969C68.3052 33.3108 68.8111 32.9218 69.383 32.6585C70.0422 32.3703 70.7532 32.221 71.472 32.22C72.2551 32.22 72.9524 32.3508 73.5611 32.6585C74.1698 32.92 74.6469 33.3154 75.0415 33.7969C75.4361 34.2785 75.7374 34.8477 75.9132 35.4892ZM73.9557 37.5477C73.9557 36.4092 73.7385 35.5323 73.347 34.92C72.9555 34.3077 72.3025 34 71.4751 34C70.6034 34 69.9947 34.3077 69.6032 34.92C69.2117 35.5323 68.9945 36.4092 68.9945 37.5477C68.9945 38.6861 69.2117 39.5631 69.6032 40.2185C69.9947 40.8308 70.6049 41.1385 71.4751 41.1385C72.3453 41.1385 72.9555 40.8308 73.347 40.2185C73.7829 39.6061 73.9557 38.6861 73.9557 37.5477ZM91.8443 40.8308L92.323 42.1446C92.3658 42.32 92.2358 42.3631 92.2358 42.3631C91.4956 42.6708 90.4954 42.8446 89.4937 42.8446C87.8115 42.8446 86.5345 42.3631 85.6643 41.3985C84.7941 40.4338 84.3582 39.1215 84.3582 37.5015C84.3582 36.7569 84.4454 36.0554 84.6641 35.4C84.8828 34.7446 85.1871 34.1738 85.6214 33.7077C86.0564 33.2191 86.5911 32.8307 87.189 32.5692C87.8776 32.2768 88.6179 32.1276 89.3653 32.1308C89.8452 32.1327 90.3246 32.1619 90.8013 32.2185C91.2372 32.3061 91.8458 32.4369 92.1074 32.5692C92.1502 32.5692 92.2817 32.6569 92.2373 32.7877L91.7587 34.1015C91.6715 34.32 91.5415 34.2323 91.5415 34.2323C90.8885 34.0138 90.2798 33.9246 89.4952 33.9246C88.5379 33.9246 87.813 34.2323 87.3618 34.8877C86.8831 35.5 86.6216 36.3338 86.6216 37.4723C86.6216 38.6985 86.9275 39.5738 87.4475 40.1431C87.9674 40.7123 88.7092 40.9738 89.665 40.9738C90.0565 40.9738 90.4052 40.9308 90.7095 40.8861C91.0139 40.8415 91.3182 40.7554 91.6241 40.6246C91.5813 40.7123 91.7541 40.6677 91.8412 40.8431L91.8443 40.8308ZM101.724 35.0954C102.16 36.5846 101.941 37.8538 101.898 37.9415C101.898 38.1169 101.724 38.1169 101.724 38.1169H95.1523C95.1951 39.1246 95.4122 39.8092 95.9353 40.3061C96.414 40.7877 97.1542 41.0938 98.1987 41.0938C99.7663 41.0938 100.416 40.7861 100.898 40.6123C100.898 40.6123 101.072 40.5692 101.158 40.7431L101.594 41.9692C101.681 42.1877 101.594 42.2308 101.551 42.2769C101.159 42.4954 100.159 42.9338 98.243 42.9338C97.3285 42.9338 96.5027 42.8031 95.8496 42.54C95.1966 42.2769 94.6307 41.9277 94.1979 41.4477C93.7651 40.9677 93.4577 40.3969 93.2406 39.7861C93.0234 39.1292 92.9347 38.4292 92.9347 37.6846C92.9347 36.94 93.0219 36.2385 93.2406 35.5831C93.4149 34.9261 93.7193 34.3569 94.1123 33.8908C94.5053 33.4246 95.0268 33.0138 95.6355 32.7523C96.2442 32.4446 96.9844 32.3138 97.8118 32.3138C98.5076 32.3138 99.1606 32.4446 99.6837 32.7077C100.075 32.8831 100.51 33.1892 100.945 33.6708C101.163 33.8461 101.554 34.5015 101.728 35.1169L101.724 35.0954ZM95.1935 36.4954H99.8504C99.8075 35.8831 99.676 35.3569 99.4145 34.9185C99.023 34.3061 98.4571 33.9554 97.587 33.9554C96.7168 33.9554 96.1066 34.3061 95.7151 34.9185C95.4551 35.3123 95.3235 35.8385 95.192 36.4954H95.1935ZM49.1881 35.0954C49.624 36.5846 49.4053 37.8538 49.4053 37.9415C49.4053 38.1169 49.2309 38.1169 49.2309 38.1169H42.6594C42.7022 39.1246 42.9194 39.8092 43.4424 40.3061C43.9211 40.7877 44.6613 41.0938 45.7058 41.0938C47.2734 41.0938 47.9234 40.7861 48.4051 40.6123C48.4051 40.6123 48.5794 40.5692 48.6651 40.7431L49.101 41.9692C49.1881 42.1877 49.101 42.2308 49.0581 42.2769C48.6666 42.4954 47.6664 42.9338 45.7502 42.9338C44.8356 42.9338 44.0098 42.8031 43.3568 42.54C42.7037 42.2769 42.1379 41.9277 41.7051 41.4477C41.2723 40.9677 40.9649 40.3969 40.7477 39.7861C40.5306 39.1292 40.4419 38.4292 40.4419 37.6846C40.4419 36.94 40.529 36.2385 40.7477 35.5831C40.9221 34.9261 41.2264 34.3569 41.6195 33.8908C42.0125 33.4246 42.534 33.0138 43.1427 32.7523C43.7513 32.4446 44.4915 32.3138 45.3189 32.3138C46.0148 32.3138 46.6678 32.4446 47.1908 32.7077C47.5823 32.8831 48.0167 33.1892 48.4525 33.6708C48.6269 33.8461 49.0612 34.5015 49.1927 35.1169L49.1881 35.0954ZM42.6579 36.4954H47.359C47.3162 35.8831 47.1847 35.3569 46.9232 34.9185C46.5317 34.3061 45.9658 33.9554 45.0956 33.9554C44.2254 33.9554 43.6152 34.3061 43.2237 34.9185C42.9179 35.3123 42.7879 35.8385 42.6579 36.4954V36.4954ZM31.1236 36.1446L32.2095 36.2754V36.0138C32.2095 35.1369 32.0351 34.7 31.6864 34.4369C31.3377 34.1738 30.7719 33.9985 30.076 33.9985C30.076 33.9985 28.4656 33.9985 27.2039 34.6554C27.1611 34.6985 27.1168 34.6985 27.1168 34.6985C27.1168 34.6985 26.9424 34.7415 26.8996 34.6108L26.4209 33.3415C26.3338 33.1661 26.4638 33.08 26.4638 33.08C27.0724 32.5985 28.4672 32.3354 28.4672 32.3354C28.9459 32.2477 29.7289 32.16 30.2076 32.16C31.5136 32.16 32.5138 32.4677 33.2112 33.08C33.9085 33.6923 34.2557 34.6569 34.2557 36.0138V42.0554C34.2557 42.0554 34.2557 42.2308 34.1257 42.2738C34.1257 42.2738 33.8657 42.3615 33.647 42.4046L31.9954 42.7123C31.3423 42.8431 30.6893 42.8877 29.9919 42.8877C29.3389 42.8877 28.773 42.8446 28.2515 42.7123C27.73 42.58 27.2942 42.4046 26.9027 42.1431C26.554 41.8815 26.2496 41.5308 26.0309 41.0923C25.8138 40.6985 25.7251 40.1723 25.7251 39.6031C25.7251 39.0338 25.8551 38.5108 26.0738 38.0708C26.2925 37.6308 26.6396 37.2831 27.0311 36.9785C27.4226 36.6738 27.9029 36.4969 28.38 36.3215C28.903 36.1908 29.4245 36.1031 29.9904 36.1031L31.1221 36.1461L31.1236 36.1446ZM28.5115 40.7861C28.5115 40.7861 29.1202 41.2677 30.4263 41.18C31.3836 41.1369 32.211 40.9615 32.211 40.9615V37.94C32.211 37.94 31.3851 37.8092 30.4263 37.8092C29.0774 37.8092 28.5115 38.2908 28.5115 38.2908C28.12 38.5523 27.9457 38.9908 27.9457 39.56C27.9395 39.866 28.0144 40.1682 28.1628 40.4354C28.2057 40.5231 28.25 40.6108 28.5115 40.7861V40.7861ZM84.0049 32.7738C83.9621 32.9492 83.6134 33.8661 83.5263 34.1738C83.4834 34.3046 83.3963 34.3492 83.2663 34.3492C83.2663 34.3492 82.8748 34.2615 82.5261 34.2615C82.2317 34.2683 81.9394 34.3122 81.6559 34.3923C81.35 34.48 81.09 34.6538 80.83 34.8738C80.5701 35.0938 80.3942 35.4431 80.2642 35.8369C80.1342 36.2308 80.047 36.8877 80.047 37.5877V42.4908C80.047 42.6215 79.9599 42.7092 79.8299 42.7092H78.0895C77.9595 42.7092 77.8723 42.6215 77.8723 42.4908V32.6461C77.8723 32.5154 77.9595 32.4277 78.0467 32.4277H79.7289C79.8589 32.4277 79.9033 32.5154 79.9033 32.6461V33.4338C80.1632 33.0831 80.5991 32.7769 80.9891 32.6031C81.3791 32.4292 81.8608 32.2954 82.6714 32.3415C83.1072 32.3846 83.6731 32.4723 83.7572 32.5169C83.9315 32.56 84.0172 32.6046 83.9744 32.7785L84.0049 32.7738ZM67.8552 28.22C67.898 28.22 68.0295 28.3077 67.9852 28.4385L67.4621 29.8385C67.4193 29.9261 67.375 30.0138 67.1563 29.9261C67.1134 29.9261 67.0263 29.8831 66.8076 29.8385C66.6776 29.7954 66.4589 29.7954 66.2845 29.7954C66.0246 29.7954 65.8059 29.8385 65.5887 29.8831C65.3715 29.9277 65.1972 30.0585 65.0229 30.2338C64.8485 30.4092 64.6742 30.6277 64.5442 30.9338C64.2842 31.6338 64.1955 32.38 64.1955 32.4231H66.2845C66.4589 32.4231 66.5017 32.5108 66.5017 32.6415L66.2417 33.9985C66.1989 34.2169 66.0246 34.1738 66.0246 34.1738H63.8483L62.4566 42.6246C62.2823 43.5015 62.1079 44.2446 61.8908 44.8554C61.6736 45.4661 61.4121 45.9061 61.019 46.3446C60.6704 46.7385 60.2789 47.0446 59.8002 47.1754C59.3643 47.3508 58.7985 47.4369 58.1898 47.4369C57.8839 47.4369 57.5811 47.4369 57.2324 47.3492C57.0229 47.317 56.8184 47.2581 56.6237 47.1738C56.5366 47.1308 56.4938 47.0431 56.5366 46.9123L57.0153 45.5554C57.1024 45.38 57.2324 45.4677 57.2324 45.4677L57.5811 45.5985C57.7555 45.6415 57.9298 45.6415 58.1041 45.6415C58.41 45.6415 58.67 45.5985 58.8872 45.5108C59.1471 45.4231 59.323 45.2492 59.4958 45.0292C59.6686 44.8092 59.8017 44.5031 59.9745 44.1092C60.1353 43.5771 60.266 43.0362 60.366 42.4892L61.8464 34.2123H60.4088C60.2345 34.2123 60.1917 34.1246 60.1917 33.9938L60.4517 32.6369C60.4945 32.4185 60.6688 32.4615 60.6688 32.4615H62.1492L62.2364 32.0231C62.4536 30.7092 62.8894 29.7031 63.5425 29.0461C64.1955 28.3892 65.1528 28.0385 66.3258 28.0385C66.6745 28.0385 66.9789 28.0815 67.2404 28.1261C67.4147 28.0831 67.6319 28.1261 67.8491 28.2138L67.8552 28.22ZM38.5195 42.4508C38.5195 42.5815 38.4323 42.6692 38.3451 42.6692H36.6048C36.4748 42.6692 36.4304 42.5815 36.4304 42.4508V28.3954C36.4304 28.3077 36.5176 28.1769 36.6048 28.1769H38.3451C38.4751 28.1769 38.5195 28.2646 38.5195 28.3954V42.4508Z" fill="white"/>
</g>
<defs>
<clipPath id="clip0_4129_90240">
<rect width="113.171" height="80" fill="white" transform="translate(0.415039)"/>
</clipPath>
</defs>
</svg>
