<svg width="24" height="24" viewBox="0 0 24 24" fill="none" xmlns="http://www.w3.org/2000/svg">
<path fill-rule="evenodd" clip-rule="evenodd" d="M10.2607 10.6407C10.5321 10.5974 10.7741 10.5752 11.0099 10.5752C12.7994 10.5752 14.3462 11.57 15.1437 13.0292L11.6947 19.9271C11.4173 19.975 11.1325 20 10.8427 20H3.60684C3.2717 20 3 19.7278 3 19.3922V4.60783C3 4.27217 3.2717 4 3.60684 4H9.55465C11.3119 4 12.803 5.3416 12.8771 7.03497C12.9491 8.65814 11.7916 10.0582 10.2093 10.3111C10.1275 10.3242 10.069 10.3971 10.0739 10.4797L10.0745 10.491C10.0801 10.5861 10.1666 10.6557 10.2607 10.6407ZM13 19.9999L13.3323 19.3354C13.3323 19.3354 13.3322 19.3354 13.3322 19.3354L15.676 14.6478C15.676 14.6479 15.676 14.6479 15.676 14.6479L17 12L21 19.9999H13ZM14.9823 9.84231C14.4199 9.84231 13.9652 9.38673 13.9652 8.82402C13.9652 8.26198 14.4199 7.8064 14.9823 7.8064C15.544 7.8064 16 8.26198 16 8.82402C16 9.38673 15.544 9.84231 14.9823 9.84231Z" fill="#FF8433"/>
</svg>
