<svg width="150" height="43" viewBox="0 0 150 43" fill="none" xmlns="http://www.w3.org/2000/svg">
<g clip-path="url(#clip0_2696_125291)">
<path fill-rule="evenodd" clip-rule="evenodd" d="M27.5986 12.9723C27.5986 11.4932 28.7974 10.2944 30.2765 10.2944C31.7556 10.2944 32.9552 11.4932 32.9552 12.9723C32.9552 14.4514 31.7556 15.6502 30.2765 15.6502C28.7974 15.6502 27.5986 14.4514 27.5986 12.9723Z" fill="#43CCF2"/>
<path fill-rule="evenodd" clip-rule="evenodd" d="M29.6899 21.8691C27.3698 19.3932 24.2218 18.0299 20.8301 18.0299C20.2364 18.0299 19.6052 18.0847 18.9009 18.197L18.1844 18.3119L18.0573 16.9573L18.6824 16.8285C22.8324 16.1643 25.8158 12.3546 25.472 8.15503C25.1333 3.99197 21.4256 0.731689 17.0335 0.731689H0V42.3144H20.3913C27.0198 42.3144 32.5331 37.3373 32.9449 30.9813C33.166 27.5809 32.0099 24.3441 29.6899 21.8691Z" fill="#1991FF"/>
<path d="M51.9836 29C53.3336 29 54.3776 28.694 55.0976 28.046C55.8176 27.398 56.1776 26.516 56.1776 25.382C56.1776 24.716 55.9976 24.14 55.6376 23.636C55.2776 23.15 54.8096 22.79 54.2156 22.556C54.7556 22.304 55.1876 21.944 55.5116 21.458C55.8356 20.972 55.9976 20.396 55.9976 19.73C55.9976 18.704 55.6376 17.858 54.9176 17.21C54.1976 16.562 53.1536 16.22 51.7496 16.22H46.3496V29H51.9836ZM51.9116 23.726C52.4516 23.726 52.8476 23.87 53.1176 24.122C53.3876 24.392 53.5316 24.752 53.5316 25.184C53.5316 26.156 52.9916 26.642 51.9116 26.642H48.9056V23.726H51.9116ZM51.7316 18.578C52.2716 18.578 52.6676 18.722 52.9376 18.974C53.2076 19.226 53.3516 19.568 53.3516 19.964C53.3516 20.432 53.2076 20.774 52.9196 21.008C52.6316 21.242 52.2356 21.35 51.7316 21.35H48.9056V18.578H51.7316Z" fill="black"/>
<path d="M66.6183 26.588H60.9483V16.22H58.3203V29H66.6183V26.588Z" fill="black"/>
<path d="M80.2562 22.61C80.2562 20.702 79.6262 19.1 78.3842 17.84C77.1242 16.58 75.5402 15.95 73.6142 15.95C71.6702 15.95 70.0862 16.58 68.8442 17.84C67.5842 19.1 66.9722 20.702 66.9722 22.61C66.9722 24.536 67.5842 26.12 68.8442 27.38C70.0862 28.64 71.6702 29.27 73.6142 29.27C75.5402 29.27 77.1242 28.64 78.3842 27.38C79.6262 26.12 80.2562 24.536 80.2562 22.61ZM77.4842 22.61C77.4842 23.87 77.1242 24.878 76.4042 25.634C75.6842 26.39 74.7482 26.768 73.6142 26.768C72.4622 26.768 71.5442 26.39 70.8242 25.634C70.1042 24.878 69.7442 23.87 69.7442 22.61C69.7442 21.368 70.1042 20.36 70.8242 19.604C71.5442 18.848 72.4622 18.452 73.6142 18.452C74.7482 18.452 75.6842 18.848 76.4042 19.604C77.1242 20.36 77.4842 21.368 77.4842 22.61Z" fill="black"/>
<path d="M95.0574 22.61C95.0574 20.702 94.4274 19.1 93.1854 17.84C91.9254 16.58 90.3414 15.95 88.4154 15.95C86.4714 15.95 84.8874 16.58 83.6454 17.84C82.3854 19.1 81.7734 20.702 81.7734 22.61C81.7734 24.536 82.3854 26.12 83.6454 27.38C84.8874 28.64 86.4714 29.27 88.4154 29.27C90.3414 29.27 91.9254 28.64 93.1854 27.38C94.4274 26.12 95.0574 24.536 95.0574 22.61ZM92.2854 22.61C92.2854 23.87 91.9254 24.878 91.2054 25.634C90.4854 26.39 89.5494 26.768 88.4154 26.768C87.2634 26.768 86.3454 26.39 85.6254 25.634C84.9054 24.878 84.5454 23.87 84.5454 22.61C84.5454 21.368 84.9054 20.36 85.6254 19.604C86.3454 18.848 87.2634 18.452 88.4154 18.452C89.5494 18.452 90.4854 18.848 91.2054 19.604C91.9254 20.36 92.2854 21.368 92.2854 22.61Z" fill="black"/>
<path d="M102.802 29C104.152 29 105.196 28.694 105.916 28.046C106.636 27.398 106.996 26.516 106.996 25.382C106.996 24.716 106.816 24.14 106.456 23.636C106.096 23.15 105.628 22.79 105.034 22.556C105.574 22.304 106.006 21.944 106.33 21.458C106.654 20.972 106.816 20.396 106.816 19.73C106.816 18.704 106.456 17.858 105.736 17.21C105.016 16.562 103.972 16.22 102.568 16.22H97.168V29H102.802ZM102.73 23.726C103.27 23.726 103.666 23.87 103.936 24.122C104.206 24.392 104.35 24.752 104.35 25.184C104.35 26.156 103.81 26.642 102.73 26.642H99.724V23.726H102.73ZM102.55 18.578C103.09 18.578 103.486 18.722 103.756 18.974C104.026 19.226 104.17 19.568 104.17 19.964C104.17 20.432 104.026 20.774 103.738 21.008C103.45 21.242 103.054 21.35 102.55 21.35H99.724V18.578H102.55Z" fill="black"/>
<path d="M111.767 16.22H109.139V29H111.767V16.22Z" fill="black"/>
<path d="M125.049 29L122.259 23.87C122.979 23.582 123.537 23.114 123.933 22.466C124.329 21.836 124.527 21.08 124.527 20.216C124.527 19.028 124.149 18.056 123.411 17.318C122.655 16.598 121.611 16.22 120.261 16.22H114.465V29H117.093V24.158H119.613L122.007 29H125.049ZM121.899 20.216C121.899 20.702 121.755 21.08 121.485 21.35C121.197 21.62 120.801 21.746 120.261 21.746H117.093V18.632H120.261C120.783 18.632 121.179 18.776 121.467 19.064C121.755 19.352 121.899 19.748 121.899 20.216Z" fill="black"/>
<path d="M131.184 29C133.308 29 134.946 28.424 136.134 27.236C137.322 26.066 137.916 24.518 137.916 22.61C137.916 20.702 137.322 19.172 136.134 17.984C134.946 16.814 133.308 16.22 131.184 16.22H126.594V29H131.184ZM135.144 22.61C135.144 23.87 134.802 24.842 134.136 25.544C133.47 26.246 132.462 26.588 131.112 26.588H129.222V18.632H131.112C132.462 18.632 133.47 18.992 134.136 19.694C134.802 20.396 135.144 21.368 135.144 22.61Z" fill="black"/>
<path d="M144.379 26.912C143.587 26.912 142.993 26.732 142.579 26.354C142.147 25.994 141.931 25.526 141.895 24.95H139.303C139.321 25.508 139.429 26.03 139.609 26.516C139.789 27.02 140.077 27.47 140.455 27.884C140.815 28.316 141.337 28.64 141.985 28.892C142.633 29.144 143.371 29.252 144.235 29.252C145.747 29.252 146.953 28.892 147.889 28.172C148.825 27.452 149.293 26.498 149.293 25.346C149.293 24.662 149.167 24.086 148.915 23.582C148.663 23.096 148.321 22.718 147.925 22.466C147.511 22.214 147.061 21.998 146.575 21.818C146.071 21.656 145.585 21.53 145.099 21.422C144.595 21.314 144.145 21.206 143.749 21.08C143.335 20.972 143.011 20.792 142.759 20.576C142.507 20.36 142.381 20.09 142.381 19.73C142.381 19.316 142.561 18.974 142.939 18.704C143.299 18.434 143.803 18.29 144.415 18.29C145.081 18.29 145.603 18.47 145.999 18.83C146.395 19.19 146.593 19.64 146.629 20.216H149.203C149.167 19.01 148.717 18.002 147.871 17.174C147.025 16.364 145.891 15.95 144.451 15.95C143.011 15.95 141.877 16.328 141.049 17.084C140.203 17.84 139.789 18.776 139.789 19.892C139.789 20.576 139.915 21.152 140.167 21.638C140.419 22.124 140.743 22.502 141.139 22.754C141.535 23.006 141.985 23.222 142.471 23.384C142.957 23.546 143.443 23.672 143.929 23.78C144.415 23.888 144.865 23.996 145.261 24.104C145.657 24.23 145.999 24.392 146.251 24.608C146.503 24.824 146.629 25.112 146.629 25.436C146.629 25.904 146.431 26.282 146.035 26.534C145.639 26.786 145.081 26.912 144.379 26.912Z" fill="black"/>
</g>
<defs>
<clipPath id="clip0_2696_125291">
<rect width="150" height="43" fill="white"/>
</clipPath>
</defs>
</svg>
