<svg width="72" height="72" viewBox="0 0 72 72" fill="none" xmlns="http://www.w3.org/2000/svg">
<g filter="url(#filter0_d_11177_224290)">
<path d="M52.2498 1.3765C48.6404 0.543496 42.7074 0 36 0C29.2926 0 23.3596 0.543496 19.7502 1.3765C12.5538 2.88663 6.88663 8.55378 5.3765 15.7502C4.5435 19.3596 4 25.2926 4 32C4 38.7074 4.5435 44.6404 5.3765 48.2498C6.88663 55.4462 12.5538 61.1134 19.7502 62.6235C23.3596 63.4565 29.2926 64 36 64C42.7074 64 48.6404 63.4565 52.2498 62.6235C59.4462 61.1134 65.1134 55.4462 66.6235 48.2498C67.4565 44.6404 68 38.7074 68 32C68 25.2926 67.4565 19.3596 66.6235 15.7502C65.1134 8.55378 59.4462 2.88663 52.2498 1.3765Z" fill="#EDFFF8"/>
</g>
<path d="M46.5188 20.4812C45.8772 19.8396 44.837 19.8396 44.1955 20.4812L35.5 29.1767L26.8045 20.4812C26.163 19.8396 25.1228 19.8396 24.4812 20.4812C23.8396 21.1228 23.8396 22.163 24.4812 22.8045L33.1767 31.5L24.4812 40.1955C23.8396 40.837 23.8396 41.8772 24.4812 42.5188C25.1228 43.1604 26.163 43.1604 26.8045 42.5188L35.5 33.8233L44.1955 42.5188C44.837 43.1604 45.8772 43.1604 46.5188 42.5188C47.1604 41.8772 47.1604 40.837 46.5188 40.1955L37.8233 31.5L46.5188 22.8045C47.1604 22.163 47.1604 21.1228 46.5188 20.4812Z" fill="#464F57" stroke="#464F57" stroke-width="3"/>
<defs>
<filter id="filter0_d_11177_224290" x="0" y="0" width="72" height="72" filterUnits="userSpaceOnUse" color-interpolation-filters="sRGB">
<feFlood flood-opacity="0" result="BackgroundImageFix"/>
<feColorMatrix in="SourceAlpha" type="matrix" values="0 0 0 0 0 0 0 0 0 0 0 0 0 0 0 0 0 0 127 0" result="hardAlpha"/>
<feOffset dy="4"/>
<feGaussianBlur stdDeviation="2"/>
<feComposite in2="hardAlpha" operator="out"/>
<feColorMatrix type="matrix" values="0 0 0 0 0 0 0 0 0 0 0 0 0 0 0 0 0 0 0.25 0"/>
<feBlend mode="normal" in2="BackgroundImageFix" result="effect1_dropShadow_11177_224290"/>
<feBlend mode="normal" in="SourceGraphic" in2="effect1_dropShadow_11177_224290" result="shape"/>
</filter>
</defs>
</svg>
