<svg width="72" height="72" viewBox="0 0 72 72" fill="none" xmlns="http://www.w3.org/2000/svg">
<g filter="url(#filter0_d_11177_224285)">
<path d="M52.2498 1.3765C48.6404 0.543496 42.7074 0 36 0C29.2926 0 23.3596 0.543496 19.7502 1.3765C12.5538 2.88663 6.88663 8.55378 5.3765 15.7502C4.5435 19.3596 4 25.2926 4 32C4 38.7074 4.5435 44.6404 5.3765 48.2498C6.88663 55.4462 12.5538 61.1134 19.7502 62.6235C23.3596 63.4565 29.2926 64 36 64C42.7074 64 48.6404 63.4565 52.2498 62.6235C59.4462 61.1134 65.1134 55.4462 66.6235 48.2498C67.4565 44.6404 68 38.7074 68 32C68 25.2926 67.4565 19.3596 66.6235 15.7502C65.1134 8.55378 59.4462 2.88663 52.2498 1.3765Z" fill="#FBFBFB"/>
</g>
<path fill-rule="evenodd" clip-rule="evenodd" d="M44.1739 9.88724C44.9023 8.35327 46.9457 7.60311 48.755 8.21105C50.5752 8.82259 51.4696 10.5768 50.7525 12.1291C50.6673 12.2825 50.5968 12.4416 50.5106 12.5949C50.3748 12.8365 50.1799 13.1588 49.9183 13.5341C49.3989 14.2799 48.5964 15.2643 47.4453 16.2422C45.0914 18.2421 41.3124 20.1682 35.8629 19.9883C30.5845 19.8141 26.9304 17.9556 24.615 16.08C23.4765 15.1577 22.6742 14.2437 22.1478 13.5457C21.8834 13.1953 21.685 12.8945 21.5456 12.6674C21.4758 12.5537 21.4409 12.4954 21.3787 12.3831C21.3443 12.3209 21.2929 12.223 21.2929 12.223C20.5151 10.6921 21.3397 8.91327 23.1347 8.24988C24.9174 7.59103 26.9869 8.28017 27.7771 9.7893C27.7824 9.79875 27.797 9.82443 27.8214 9.86419C27.8729 9.94803 27.9664 10.092 28.106 10.277C28.3872 10.6499 28.8406 11.1698 29.4939 11.699C30.7623 12.7264 32.8366 13.8418 36.137 13.9508C39.2663 14.0541 41.2158 13.0064 42.4456 11.9616C43.0863 11.4172 43.5396 10.8616 43.8278 10.4479C43.9702 10.2435 44.0671 10.0812 44.1222 9.98313C44.1497 9.93431 44.1663 9.9022 44.1727 9.88962C44.1732 9.88873 44.1736 9.88793 44.1739 9.88724Z" fill="#EAEAEA"/>
<path fill-rule="evenodd" clip-rule="evenodd" d="M28.68 39.7338C28.68 35.7628 31.9573 32.5437 36 32.5437C40.0427 32.5437 43.32 35.7628 43.32 39.7338C43.32 43.7049 40.0427 46.924 36 46.924C31.9573 46.924 28.68 43.7049 28.68 39.7338ZM50.999 39.9123C50.9995 39.8529 51 39.7935 51 39.7338C51 31.5966 44.2843 25 36 25C27.7157 25 21 31.5966 21 39.7338C21 47.8712 27.7157 54.4677 36 54.4677C38.6652 54.4677 41.1681 53.785 43.3372 52.5876C43.5216 54.5021 45.1627 56 47.16 56C49.2809 56 51 54.3114 51 52.2281V40.0875C51 40.0292 50.9998 39.971 50.999 39.9123Z" fill="#B8B8B8"/>
<defs>
<filter id="filter0_d_11177_224285" x="0" y="0" width="72" height="72" filterUnits="userSpaceOnUse" color-interpolation-filters="sRGB">
<feFlood flood-opacity="0" result="BackgroundImageFix"/>
<feColorMatrix in="SourceAlpha" type="matrix" values="0 0 0 0 0 0 0 0 0 0 0 0 0 0 0 0 0 0 127 0" result="hardAlpha"/>
<feOffset dy="4"/>
<feGaussianBlur stdDeviation="2"/>
<feComposite in2="hardAlpha" operator="out"/>
<feColorMatrix type="matrix" values="0 0 0 0 0 0 0 0 0 0 0 0 0 0 0 0 0 0 0.25 0"/>
<feBlend mode="normal" in2="BackgroundImageFix" result="effect1_dropShadow_11177_224285"/>
<feBlend mode="normal" in="SourceGraphic" in2="effect1_dropShadow_11177_224285" result="shape"/>
</filter>
</defs>
</svg>
